<?xml version="1.0" encoding="utf-8" standalone="no"?>
<!DOCTYPE svg PUBLIC "-//W3C//DTD SVG 1.1//EN"
  "http://www.w3.org/Graphics/SVG/1.1/DTD/svg11.dtd">
<!-- Created with matplotlib (https://matplotlib.org/) -->
<svg height="613.849688pt" version="1.1" viewBox="0 0 928.182188 613.849688" width="928.182188pt" xmlns="http://www.w3.org/2000/svg" xmlns:xlink="http://www.w3.org/1999/xlink">
 <defs>
  <style type="text/css">
*{stroke-linecap:butt;stroke-linejoin:round;}
  </style>
 </defs>
 <g id="figure_1">
  <g id="patch_1">
   <path d="M 0 613.849688 
L 928.182188 613.849688 
L 928.182188 0 
L 0 0 
z
" style="fill:#ffffff;"/>
  </g>
  <g id="axes_1">
   <g id="patch_2">
    <path d="M 83.982188 550.8 
L 920.982188 550.8 
L 920.982188 7.2 
L 83.982188 7.2 
z
" style="fill:#ffffff;"/>
   </g>
   <g id="matplotlib.axis_1">
    <g id="xtick_1">
     <g id="text_1">
      <!-- 0 -->
      <defs>
       <path d="M 4.15625 35.296875 
Q 4.15625 48 6.765625 55.734375 
Q 9.375 63.484375 14.515625 67.671875 
Q 19.671875 71.875 27.484375 71.875 
Q 33.25 71.875 37.59375 69.546875 
Q 41.9375 67.234375 44.765625 62.859375 
Q 47.609375 58.5 49.21875 52.21875 
Q 50.828125 45.953125 50.828125 35.296875 
Q 50.828125 22.703125 48.234375 14.96875 
Q 45.65625 7.234375 40.5 3 
Q 35.359375 -1.21875 27.484375 -1.21875 
Q 17.140625 -1.21875 11.234375 6.203125 
Q 4.15625 15.140625 4.15625 35.296875 
z
M 13.1875 35.296875 
Q 13.1875 17.671875 17.3125 11.828125 
Q 21.4375 6 27.484375 6 
Q 33.546875 6 37.671875 11.859375 
Q 41.796875 17.71875 41.796875 35.296875 
Q 41.796875 52.984375 37.671875 58.78125 
Q 33.546875 64.59375 27.390625 64.59375 
Q 21.34375 64.59375 17.71875 59.46875 
Q 13.1875 52.9375 13.1875 35.296875 
z
" id="ArialMT-48"/>
      </defs>
      <g style="fill:#262626;" transform="translate(148.172481 576.047188)scale(0.22 -0.22)">
       <use xlink:href="#ArialMT-48"/>
      </g>
     </g>
    </g>
    <g id="xtick_2">
     <g id="text_2">
      <!-- 50 -->
      <defs>
       <path d="M 4.15625 18.75 
L 13.375 19.53125 
Q 14.40625 12.796875 18.140625 9.390625 
Q 21.875 6 27.15625 6 
Q 33.5 6 37.890625 10.78125 
Q 42.28125 15.578125 42.28125 23.484375 
Q 42.28125 31 38.0625 35.34375 
Q 33.84375 39.703125 27 39.703125 
Q 22.75 39.703125 19.328125 37.765625 
Q 15.921875 35.84375 13.96875 32.765625 
L 5.71875 33.84375 
L 12.640625 70.609375 
L 48.25 70.609375 
L 48.25 62.203125 
L 19.671875 62.203125 
L 15.828125 42.96875 
Q 22.265625 47.46875 29.34375 47.46875 
Q 38.71875 47.46875 45.15625 40.96875 
Q 51.609375 34.46875 51.609375 24.265625 
Q 51.609375 14.546875 45.953125 7.46875 
Q 39.0625 -1.21875 27.15625 -1.21875 
Q 17.390625 -1.21875 11.203125 4.25 
Q 5.03125 9.71875 4.15625 18.75 
z
" id="ArialMT-53"/>
      </defs>
      <g style="fill:#262626;" transform="translate(278.068214 576.047188)scale(0.22 -0.22)">
       <use xlink:href="#ArialMT-53"/>
       <use x="55.615234" xlink:href="#ArialMT-48"/>
      </g>
     </g>
    </g>
    <g id="xtick_3">
     <g id="text_3">
      <!-- 100 -->
      <defs>
       <path d="M 37.25 0 
L 28.46875 0 
L 28.46875 56 
Q 25.296875 52.984375 20.140625 49.953125 
Q 14.984375 46.921875 10.890625 45.40625 
L 10.890625 53.90625 
Q 18.265625 57.375 23.78125 62.296875 
Q 29.296875 67.234375 31.59375 71.875 
L 37.25 71.875 
z
" id="ArialMT-49"/>
      </defs>
      <g style="fill:#262626;" transform="translate(407.963946 576.047188)scale(0.22 -0.22)">
       <use xlink:href="#ArialMT-49"/>
       <use x="55.615234" xlink:href="#ArialMT-48"/>
       <use x="111.230469" xlink:href="#ArialMT-48"/>
      </g>
     </g>
    </g>
    <g id="xtick_4">
     <g id="text_4">
      <!-- 150 -->
      <g style="fill:#262626;" transform="translate(543.97671 576.047188)scale(0.22 -0.22)">
       <use xlink:href="#ArialMT-49"/>
       <use x="55.615234" xlink:href="#ArialMT-53"/>
       <use x="111.230469" xlink:href="#ArialMT-48"/>
      </g>
     </g>
    </g>
    <g id="xtick_5">
     <g id="text_5">
      <!-- 200 -->
      <defs>
       <path d="M 50.34375 8.453125 
L 50.34375 0 
L 3.03125 0 
Q 2.9375 3.171875 4.046875 6.109375 
Q 5.859375 10.9375 9.828125 15.625 
Q 13.8125 20.3125 21.34375 26.46875 
Q 33.015625 36.03125 37.109375 41.625 
Q 41.21875 47.21875 41.21875 52.203125 
Q 41.21875 57.421875 37.46875 61 
Q 33.734375 64.59375 27.734375 64.59375 
Q 21.390625 64.59375 17.578125 60.78125 
Q 13.765625 56.984375 13.71875 50.25 
L 4.6875 51.171875 
Q 5.609375 61.28125 11.65625 66.578125 
Q 17.71875 71.875 27.9375 71.875 
Q 38.234375 71.875 44.234375 66.15625 
Q 50.25 60.453125 50.25 52 
Q 50.25 47.703125 48.484375 43.546875 
Q 46.734375 39.40625 42.65625 34.8125 
Q 38.578125 30.21875 29.109375 22.21875 
Q 21.1875 15.578125 18.9375 13.203125 
Q 16.703125 10.84375 15.234375 8.453125 
z
" id="ArialMT-50"/>
      </defs>
      <g style="fill:#262626;" transform="translate(679.989473 576.047188)scale(0.22 -0.22)">
       <use xlink:href="#ArialMT-50"/>
       <use x="55.615234" xlink:href="#ArialMT-48"/>
       <use x="111.230469" xlink:href="#ArialMT-48"/>
      </g>
     </g>
    </g>
    <g id="xtick_6">
     <g id="text_6">
      <!-- 250 -->
      <g style="fill:#262626;" transform="translate(816.002237 576.047188)scale(0.22 -0.22)">
       <use xlink:href="#ArialMT-50"/>
       <use x="55.615234" xlink:href="#ArialMT-53"/>
       <use x="111.230469" xlink:href="#ArialMT-48"/>
      </g>
     </g>
    </g>
    <g id="text_7">
     <!-- Target_Mass_Number -->
     <defs>
      <path d="M 25.921875 0 
L 25.921875 63.140625 
L 2.34375 63.140625 
L 2.34375 71.578125 
L 59.078125 71.578125 
L 59.078125 63.140625 
L 35.40625 63.140625 
L 35.40625 0 
z
" id="ArialMT-84"/>
      <path d="M 40.4375 6.390625 
Q 35.546875 2.25 31.03125 0.53125 
Q 26.515625 -1.171875 21.34375 -1.171875 
Q 12.796875 -1.171875 8.203125 3 
Q 3.609375 7.171875 3.609375 13.671875 
Q 3.609375 17.484375 5.34375 20.625 
Q 7.078125 23.78125 9.890625 25.6875 
Q 12.703125 27.59375 16.21875 28.5625 
Q 18.796875 29.25 24.03125 29.890625 
Q 34.671875 31.15625 39.703125 32.90625 
Q 39.75 34.71875 39.75 35.203125 
Q 39.75 40.578125 37.25 42.78125 
Q 33.890625 45.75 27.25 45.75 
Q 21.046875 45.75 18.09375 43.578125 
Q 15.140625 41.40625 13.71875 35.890625 
L 5.125 37.0625 
Q 6.296875 42.578125 8.984375 45.96875 
Q 11.671875 49.359375 16.75 51.1875 
Q 21.828125 53.03125 28.515625 53.03125 
Q 35.15625 53.03125 39.296875 51.46875 
Q 43.453125 49.90625 45.40625 47.53125 
Q 47.359375 45.171875 48.140625 41.546875 
Q 48.578125 39.3125 48.578125 33.453125 
L 48.578125 21.734375 
Q 48.578125 9.46875 49.140625 6.21875 
Q 49.703125 2.984375 51.375 0 
L 42.1875 0 
Q 40.828125 2.734375 40.4375 6.390625 
z
M 39.703125 26.03125 
Q 34.90625 24.078125 25.34375 22.703125 
Q 19.921875 21.921875 17.671875 20.9375 
Q 15.4375 19.96875 14.203125 18.09375 
Q 12.984375 16.21875 12.984375 13.921875 
Q 12.984375 10.40625 15.640625 8.0625 
Q 18.3125 5.71875 23.4375 5.71875 
Q 28.515625 5.71875 32.46875 7.9375 
Q 36.421875 10.15625 38.28125 14.015625 
Q 39.703125 17 39.703125 22.796875 
z
" id="ArialMT-97"/>
      <path d="M 6.5 0 
L 6.5 51.859375 
L 14.40625 51.859375 
L 14.40625 44 
Q 17.4375 49.515625 20 51.265625 
Q 22.5625 53.03125 25.640625 53.03125 
Q 30.078125 53.03125 34.671875 50.203125 
L 31.640625 42.046875 
Q 28.421875 43.953125 25.203125 43.953125 
Q 22.3125 43.953125 20.015625 42.21875 
Q 17.71875 40.484375 16.75 37.40625 
Q 15.28125 32.71875 15.28125 27.15625 
L 15.28125 0 
z
" id="ArialMT-114"/>
      <path d="M 4.984375 -4.296875 
L 13.53125 -5.5625 
Q 14.0625 -9.515625 16.5 -11.328125 
Q 19.78125 -13.765625 25.4375 -13.765625 
Q 31.546875 -13.765625 34.859375 -11.328125 
Q 38.1875 -8.890625 39.359375 -4.5 
Q 40.046875 -1.8125 39.984375 6.78125 
Q 34.234375 0 25.640625 0 
Q 14.9375 0 9.078125 7.71875 
Q 3.21875 15.4375 3.21875 26.21875 
Q 3.21875 33.640625 5.90625 39.90625 
Q 8.59375 46.1875 13.6875 49.609375 
Q 18.796875 53.03125 25.6875 53.03125 
Q 34.859375 53.03125 40.828125 45.609375 
L 40.828125 51.859375 
L 48.921875 51.859375 
L 48.921875 7.03125 
Q 48.921875 -5.078125 46.453125 -10.125 
Q 44 -15.1875 38.640625 -18.109375 
Q 33.296875 -21.046875 25.484375 -21.046875 
Q 16.21875 -21.046875 10.5 -16.875 
Q 4.78125 -12.703125 4.984375 -4.296875 
z
M 12.25 26.859375 
Q 12.25 16.65625 16.296875 11.96875 
Q 20.359375 7.28125 26.46875 7.28125 
Q 32.515625 7.28125 36.609375 11.9375 
Q 40.71875 16.609375 40.71875 26.5625 
Q 40.71875 36.078125 36.5 40.90625 
Q 32.28125 45.75 26.3125 45.75 
Q 20.453125 45.75 16.34375 40.984375 
Q 12.25 36.234375 12.25 26.859375 
z
" id="ArialMT-103"/>
      <path d="M 42.09375 16.703125 
L 51.171875 15.578125 
Q 49.03125 7.625 43.21875 3.21875 
Q 37.40625 -1.171875 28.375 -1.171875 
Q 17 -1.171875 10.328125 5.828125 
Q 3.65625 12.84375 3.65625 25.484375 
Q 3.65625 38.578125 10.390625 45.796875 
Q 17.140625 53.03125 27.875 53.03125 
Q 38.28125 53.03125 44.875 45.953125 
Q 51.46875 38.875 51.46875 26.03125 
Q 51.46875 25.25 51.421875 23.6875 
L 12.75 23.6875 
Q 13.234375 15.140625 17.578125 10.59375 
Q 21.921875 6.0625 28.421875 6.0625 
Q 33.25 6.0625 36.671875 8.59375 
Q 40.09375 11.140625 42.09375 16.703125 
z
M 13.234375 30.90625 
L 42.1875 30.90625 
Q 41.609375 37.453125 38.875 40.71875 
Q 34.671875 45.796875 27.984375 45.796875 
Q 21.921875 45.796875 17.796875 41.75 
Q 13.671875 37.703125 13.234375 30.90625 
z
" id="ArialMT-101"/>
      <path d="M 25.78125 7.859375 
L 27.046875 0.09375 
Q 23.34375 -0.6875 20.40625 -0.6875 
Q 15.625 -0.6875 12.984375 0.828125 
Q 10.359375 2.34375 9.28125 4.8125 
Q 8.203125 7.28125 8.203125 15.1875 
L 8.203125 45.015625 
L 1.765625 45.015625 
L 1.765625 51.859375 
L 8.203125 51.859375 
L 8.203125 64.703125 
L 16.9375 69.96875 
L 16.9375 51.859375 
L 25.78125 51.859375 
L 25.78125 45.015625 
L 16.9375 45.015625 
L 16.9375 14.703125 
Q 16.9375 10.9375 17.40625 9.859375 
Q 17.875 8.796875 18.921875 8.15625 
Q 19.96875 7.515625 21.921875 7.515625 
Q 23.390625 7.515625 25.78125 7.859375 
z
" id="ArialMT-116"/>
      <path d="M -1.515625 -19.875 
L -1.515625 -13.53125 
L 56.734375 -13.53125 
L 56.734375 -19.875 
z
" id="ArialMT-95"/>
      <path d="M 7.421875 0 
L 7.421875 71.578125 
L 21.6875 71.578125 
L 38.625 20.90625 
Q 40.96875 13.8125 42.046875 10.296875 
Q 43.265625 14.203125 45.84375 21.78125 
L 62.984375 71.578125 
L 75.734375 71.578125 
L 75.734375 0 
L 66.609375 0 
L 66.609375 59.90625 
L 45.796875 0 
L 37.25 0 
L 16.546875 60.9375 
L 16.546875 0 
z
" id="ArialMT-77"/>
      <path d="M 3.078125 15.484375 
L 11.765625 16.84375 
Q 12.5 11.625 15.84375 8.84375 
Q 19.1875 6.0625 25.203125 6.0625 
Q 31.25 6.0625 34.171875 8.515625 
Q 37.109375 10.984375 37.109375 14.3125 
Q 37.109375 17.28125 34.515625 19 
Q 32.71875 20.171875 25.53125 21.96875 
Q 15.875 24.421875 12.140625 26.203125 
Q 8.40625 27.984375 6.46875 31.125 
Q 4.546875 34.28125 4.546875 38.09375 
Q 4.546875 41.546875 6.125 44.5 
Q 7.71875 47.46875 10.453125 49.421875 
Q 12.5 50.921875 16.03125 51.96875 
Q 19.578125 53.03125 23.640625 53.03125 
Q 29.734375 53.03125 34.34375 51.265625 
Q 38.96875 49.515625 41.15625 46.5 
Q 43.359375 43.5 44.1875 38.484375 
L 35.59375 37.3125 
Q 35.015625 41.3125 32.203125 43.546875 
Q 29.390625 45.796875 24.265625 45.796875 
Q 18.21875 45.796875 15.625 43.796875 
Q 13.03125 41.796875 13.03125 39.109375 
Q 13.03125 37.40625 14.109375 36.03125 
Q 15.1875 34.625 17.484375 33.6875 
Q 18.796875 33.203125 25.25 31.453125 
Q 34.578125 28.953125 38.25 27.359375 
Q 41.9375 25.78125 44.03125 22.75 
Q 46.140625 19.734375 46.140625 15.234375 
Q 46.140625 10.84375 43.578125 6.953125 
Q 41.015625 3.078125 36.171875 0.953125 
Q 31.34375 -1.171875 25.25 -1.171875 
Q 15.140625 -1.171875 9.84375 3.03125 
Q 4.546875 7.234375 3.078125 15.484375 
z
" id="ArialMT-115"/>
      <path d="M 7.625 0 
L 7.625 71.578125 
L 17.328125 71.578125 
L 54.9375 15.375 
L 54.9375 71.578125 
L 64.015625 71.578125 
L 64.015625 0 
L 54.296875 0 
L 16.703125 56.25 
L 16.703125 0 
z
" id="ArialMT-78"/>
      <path d="M 40.578125 0 
L 40.578125 7.625 
Q 34.515625 -1.171875 24.125 -1.171875 
Q 19.53125 -1.171875 15.546875 0.578125 
Q 11.578125 2.34375 9.640625 5 
Q 7.71875 7.671875 6.9375 11.53125 
Q 6.390625 14.109375 6.390625 19.734375 
L 6.390625 51.859375 
L 15.1875 51.859375 
L 15.1875 23.09375 
Q 15.1875 16.21875 15.71875 13.8125 
Q 16.546875 10.359375 19.234375 8.375 
Q 21.921875 6.390625 25.875 6.390625 
Q 29.828125 6.390625 33.296875 8.421875 
Q 36.765625 10.453125 38.203125 13.9375 
Q 39.65625 17.4375 39.65625 24.078125 
L 39.65625 51.859375 
L 48.4375 51.859375 
L 48.4375 0 
z
" id="ArialMT-117"/>
      <path d="M 6.59375 0 
L 6.59375 51.859375 
L 14.453125 51.859375 
L 14.453125 44.578125 
Q 16.890625 48.390625 20.9375 50.703125 
Q 25 53.03125 30.171875 53.03125 
Q 35.9375 53.03125 39.625 50.640625 
Q 43.3125 48.25 44.828125 43.953125 
Q 50.984375 53.03125 60.84375 53.03125 
Q 68.5625 53.03125 72.703125 48.75 
Q 76.859375 44.484375 76.859375 35.59375 
L 76.859375 0 
L 68.109375 0 
L 68.109375 32.671875 
Q 68.109375 37.9375 67.25 40.25 
Q 66.40625 42.578125 64.15625 43.984375 
Q 61.921875 45.40625 58.890625 45.40625 
Q 53.421875 45.40625 49.796875 41.765625 
Q 46.1875 38.140625 46.1875 30.125 
L 46.1875 0 
L 37.40625 0 
L 37.40625 33.6875 
Q 37.40625 39.546875 35.25 42.46875 
Q 33.109375 45.40625 28.21875 45.40625 
Q 24.515625 45.40625 21.359375 43.453125 
Q 18.21875 41.5 16.796875 37.734375 
Q 15.375 33.984375 15.375 26.90625 
L 15.375 0 
z
" id="ArialMT-109"/>
      <path d="M 14.703125 0 
L 6.546875 0 
L 6.546875 71.578125 
L 15.328125 71.578125 
L 15.328125 46.046875 
Q 20.90625 53.03125 29.546875 53.03125 
Q 34.328125 53.03125 38.59375 51.09375 
Q 42.875 49.171875 45.625 45.671875 
Q 48.390625 42.1875 49.953125 37.25 
Q 51.515625 32.328125 51.515625 26.703125 
Q 51.515625 13.375 44.921875 6.09375 
Q 38.328125 -1.171875 29.109375 -1.171875 
Q 19.921875 -1.171875 14.703125 6.5 
z
M 14.59375 26.3125 
Q 14.59375 17 17.140625 12.84375 
Q 21.296875 6.0625 28.375 6.0625 
Q 34.125 6.0625 38.328125 11.0625 
Q 42.53125 16.0625 42.53125 25.984375 
Q 42.53125 36.140625 38.5 40.96875 
Q 34.46875 45.796875 28.765625 45.796875 
Q 23 45.796875 18.796875 40.796875 
Q 14.59375 35.796875 14.59375 26.3125 
z
" id="ArialMT-98"/>
     </defs>
     <g style="fill:#262626;" transform="translate(383.132812 601.598438)scale(0.24 -0.24)">
      <use xlink:href="#ArialMT-84"/>
      <use x="60.912109" xlink:href="#ArialMT-97"/>
      <use x="116.527344" xlink:href="#ArialMT-114"/>
      <use x="149.828125" xlink:href="#ArialMT-103"/>
      <use x="205.443359" xlink:href="#ArialMT-101"/>
      <use x="261.058594" xlink:href="#ArialMT-116"/>
      <use x="288.841797" xlink:href="#ArialMT-95"/>
      <use x="344.457031" xlink:href="#ArialMT-77"/>
      <use x="427.757812" xlink:href="#ArialMT-97"/>
      <use x="483.373047" xlink:href="#ArialMT-115"/>
      <use x="533.373047" xlink:href="#ArialMT-115"/>
      <use x="583.373047" xlink:href="#ArialMT-95"/>
      <use x="638.988281" xlink:href="#ArialMT-78"/>
      <use x="711.205078" xlink:href="#ArialMT-117"/>
      <use x="766.820312" xlink:href="#ArialMT-109"/>
      <use x="850.121094" xlink:href="#ArialMT-98"/>
      <use x="905.736328" xlink:href="#ArialMT-101"/>
      <use x="961.351562" xlink:href="#ArialMT-114"/>
     </g>
    </g>
   </g>
   <g id="matplotlib.axis_2">
    <g id="ytick_1">
     <g id="text_8">
      <!-- 0.0000 -->
      <defs>
       <path d="M 9.078125 0 
L 9.078125 10.015625 
L 19.09375 10.015625 
L 19.09375 0 
z
" id="ArialMT-46"/>
      </defs>
      <g style="fill:#262626;" transform="translate(7.2 558.673594)scale(0.22 -0.22)">
       <use xlink:href="#ArialMT-48"/>
       <use x="55.615234" xlink:href="#ArialMT-46"/>
       <use x="83.398438" xlink:href="#ArialMT-48"/>
       <use x="139.013672" xlink:href="#ArialMT-48"/>
       <use x="194.628906" xlink:href="#ArialMT-48"/>
       <use x="250.244141" xlink:href="#ArialMT-48"/>
      </g>
     </g>
    </g>
    <g id="ytick_2">
     <g id="text_9">
      <!-- 0.0025 -->
      <g style="fill:#262626;" transform="translate(7.2 495.389198)scale(0.22 -0.22)">
       <use xlink:href="#ArialMT-48"/>
       <use x="55.615234" xlink:href="#ArialMT-46"/>
       <use x="83.398438" xlink:href="#ArialMT-48"/>
       <use x="139.013672" xlink:href="#ArialMT-48"/>
       <use x="194.628906" xlink:href="#ArialMT-50"/>
       <use x="250.244141" xlink:href="#ArialMT-53"/>
      </g>
     </g>
    </g>
    <g id="ytick_3">
     <g id="text_10">
      <!-- 0.0050 -->
      <g style="fill:#262626;" transform="translate(7.2 432.104803)scale(0.22 -0.22)">
       <use xlink:href="#ArialMT-48"/>
       <use x="55.615234" xlink:href="#ArialMT-46"/>
       <use x="83.398438" xlink:href="#ArialMT-48"/>
       <use x="139.013672" xlink:href="#ArialMT-48"/>
       <use x="194.628906" xlink:href="#ArialMT-53"/>
       <use x="250.244141" xlink:href="#ArialMT-48"/>
      </g>
     </g>
    </g>
    <g id="ytick_4">
     <g id="text_11">
      <!-- 0.0075 -->
      <defs>
       <path d="M 4.734375 62.203125 
L 4.734375 70.65625 
L 51.078125 70.65625 
L 51.078125 63.8125 
Q 44.234375 56.546875 37.515625 44.484375 
Q 30.8125 32.421875 27.15625 19.671875 
Q 24.515625 10.6875 23.78125 0 
L 14.75 0 
Q 14.890625 8.453125 18.0625 20.40625 
Q 21.234375 32.375 27.171875 43.484375 
Q 33.109375 54.59375 39.796875 62.203125 
z
" id="ArialMT-55"/>
      </defs>
      <g style="fill:#262626;" transform="translate(7.2 368.820407)scale(0.22 -0.22)">
       <use xlink:href="#ArialMT-48"/>
       <use x="55.615234" xlink:href="#ArialMT-46"/>
       <use x="83.398438" xlink:href="#ArialMT-48"/>
       <use x="139.013672" xlink:href="#ArialMT-48"/>
       <use x="194.628906" xlink:href="#ArialMT-55"/>
       <use x="250.244141" xlink:href="#ArialMT-53"/>
      </g>
     </g>
    </g>
    <g id="ytick_5">
     <g id="text_12">
      <!-- 0.0100 -->
      <g style="fill:#262626;" transform="translate(7.2 305.536011)scale(0.22 -0.22)">
       <use xlink:href="#ArialMT-48"/>
       <use x="55.615234" xlink:href="#ArialMT-46"/>
       <use x="83.398438" xlink:href="#ArialMT-48"/>
       <use x="139.013672" xlink:href="#ArialMT-49"/>
       <use x="194.628906" xlink:href="#ArialMT-48"/>
       <use x="250.244141" xlink:href="#ArialMT-48"/>
      </g>
     </g>
    </g>
    <g id="ytick_6">
     <g id="text_13">
      <!-- 0.0125 -->
      <g style="fill:#262626;" transform="translate(7.2 242.251616)scale(0.22 -0.22)">
       <use xlink:href="#ArialMT-48"/>
       <use x="55.615234" xlink:href="#ArialMT-46"/>
       <use x="83.398438" xlink:href="#ArialMT-48"/>
       <use x="139.013672" xlink:href="#ArialMT-49"/>
       <use x="194.628906" xlink:href="#ArialMT-50"/>
       <use x="250.244141" xlink:href="#ArialMT-53"/>
      </g>
     </g>
    </g>
    <g id="ytick_7">
     <g id="text_14">
      <!-- 0.0150 -->
      <g style="fill:#262626;" transform="translate(7.2 178.96722)scale(0.22 -0.22)">
       <use xlink:href="#ArialMT-48"/>
       <use x="55.615234" xlink:href="#ArialMT-46"/>
       <use x="83.398438" xlink:href="#ArialMT-48"/>
       <use x="139.013672" xlink:href="#ArialMT-49"/>
       <use x="194.628906" xlink:href="#ArialMT-53"/>
       <use x="250.244141" xlink:href="#ArialMT-48"/>
      </g>
     </g>
    </g>
    <g id="ytick_8">
     <g id="text_15">
      <!-- 0.0175 -->
      <g style="fill:#262626;" transform="translate(7.2 115.682824)scale(0.22 -0.22)">
       <use xlink:href="#ArialMT-48"/>
       <use x="55.615234" xlink:href="#ArialMT-46"/>
       <use x="83.398438" xlink:href="#ArialMT-48"/>
       <use x="139.013672" xlink:href="#ArialMT-49"/>
       <use x="194.628906" xlink:href="#ArialMT-55"/>
       <use x="250.244141" xlink:href="#ArialMT-53"/>
      </g>
     </g>
    </g>
    <g id="ytick_9">
     <g id="text_16">
      <!-- 0.0200 -->
      <g style="fill:#262626;" transform="translate(7.2 52.398429)scale(0.22 -0.22)">
       <use xlink:href="#ArialMT-48"/>
       <use x="55.615234" xlink:href="#ArialMT-46"/>
       <use x="83.398438" xlink:href="#ArialMT-48"/>
       <use x="139.013672" xlink:href="#ArialMT-50"/>
       <use x="194.628906" xlink:href="#ArialMT-48"/>
       <use x="250.244141" xlink:href="#ArialMT-48"/>
      </g>
     </g>
    </g>
   </g>
   <g id="PolyCollection_1">
    <defs>
     <path d="M 122.027642 -63.128251 
L 122.027642 -63.049688 
L 128.019052 -63.049688 
L 134.010462 -63.049688 
L 140.001873 -63.049688 
L 145.993283 -63.049688 
L 151.984693 -63.049688 
L 157.976103 -63.049688 
L 163.967513 -63.049688 
L 169.958923 -63.049688 
L 175.950334 -63.049688 
L 181.941744 -63.049688 
L 187.933154 -63.049688 
L 193.924564 -63.049688 
L 199.915974 -63.049688 
L 205.907384 -63.049688 
L 211.898795 -63.049688 
L 217.890205 -63.049688 
L 223.881615 -63.049688 
L 229.873025 -63.049688 
L 235.864435 -63.049688 
L 241.855845 -63.049688 
L 247.847256 -63.049688 
L 253.838666 -63.049688 
L 259.830076 -63.049688 
L 265.821486 -63.049688 
L 271.812896 -63.049688 
L 277.804306 -63.049688 
L 283.795716 -63.049688 
L 289.787127 -63.049688 
L 295.778537 -63.049688 
L 301.769947 -63.049688 
L 307.761357 -63.049688 
L 313.752767 -63.049688 
L 319.744177 -63.049688 
L 325.735588 -63.049688 
L 331.726998 -63.049688 
L 337.718408 -63.049688 
L 343.709818 -63.049688 
L 349.701228 -63.049688 
L 355.692638 -63.049688 
L 361.684049 -63.049688 
L 367.675459 -63.049688 
L 373.666869 -63.049688 
L 379.658279 -63.049688 
L 385.649689 -63.049688 
L 391.641099 -63.049688 
L 397.63251 -63.049688 
L 403.62392 -63.049688 
L 409.61533 -63.049688 
L 415.60674 -63.049688 
L 421.59815 -63.049688 
L 427.58956 -63.049688 
L 433.580971 -63.049688 
L 439.572381 -63.049688 
L 445.563791 -63.049688 
L 451.555201 -63.049688 
L 457.546611 -63.049688 
L 463.538021 -63.049688 
L 469.529432 -63.049688 
L 475.520842 -63.049688 
L 481.512252 -63.049688 
L 487.503662 -63.049688 
L 493.495072 -63.049688 
L 499.486482 -63.049688 
L 505.477893 -63.049688 
L 511.469303 -63.049688 
L 517.460713 -63.049688 
L 523.452123 -63.049688 
L 529.443533 -63.049688 
L 535.434943 -63.049688 
L 541.426354 -63.049688 
L 547.417764 -63.049688 
L 553.409174 -63.049688 
L 559.400584 -63.049688 
L 565.391994 -63.049688 
L 571.383404 -63.049688 
L 577.374815 -63.049688 
L 583.366225 -63.049688 
L 589.357635 -63.049688 
L 595.349045 -63.049688 
L 601.340455 -63.049688 
L 607.331865 -63.049688 
L 613.323276 -63.049688 
L 619.314686 -63.049688 
L 625.306096 -63.049688 
L 631.297506 -63.049688 
L 637.288916 -63.049688 
L 643.280326 -63.049688 
L 649.271737 -63.049688 
L 655.263147 -63.049688 
L 661.254557 -63.049688 
L 667.245967 -63.049688 
L 673.237377 -63.049688 
L 679.228787 -63.049688 
L 685.220198 -63.049688 
L 691.211608 -63.049688 
L 697.203018 -63.049688 
L 703.194428 -63.049688 
L 709.185838 -63.049688 
L 715.177248 -63.049688 
L 721.168659 -63.049688 
L 727.160069 -63.049688 
L 733.151479 -63.049688 
L 739.142889 -63.049688 
L 745.134299 -63.049688 
L 751.125709 -63.049688 
L 757.117119 -63.049688 
L 763.10853 -63.049688 
L 769.09994 -63.049688 
L 775.09135 -63.049688 
L 781.08276 -63.049688 
L 787.07417 -63.049688 
L 793.06558 -63.049688 
L 799.056991 -63.049688 
L 805.048401 -63.049688 
L 811.039811 -63.049688 
L 817.031221 -63.049688 
L 823.022631 -63.049688 
L 829.014041 -63.049688 
L 835.005452 -63.049688 
L 840.996862 -63.049688 
L 846.988272 -63.049688 
L 852.979682 -63.049688 
L 858.971092 -63.049688 
L 864.962502 -63.049688 
L 870.953913 -63.049688 
L 876.945323 -63.049688 
L 882.936733 -63.049688 
L 882.936733 -63.06898 
L 882.936733 -63.06898 
L 876.945323 -63.081787 
L 870.953913 -63.204718 
L 864.962502 -63.705995 
L 858.971092 -65.323878 
L 852.979682 -69.497284 
L 846.988272 -78.211965 
L 840.996862 -93.703307 
L 835.005452 -119.679968 
L 829.014041 -164.463541 
L 823.022631 -240.144929 
L 817.031221 -350.206033 
L 811.039811 -472.936104 
L 805.048401 -563.318974 
L 799.056991 -580.763973 
L 793.06558 -517.595699 
L 787.07417 -401.723583 
L 781.08276 -276.180105 
L 775.09135 -175.266299 
L 769.09994 -111.968179 
L 763.10853 -80.665339 
L 757.117119 -68.823642 
L 751.125709 -67.069991 
L 745.134299 -72.810839 
L 739.142889 -88.914697 
L 733.151479 -118.815963 
L 727.160069 -159.011558 
L 721.168659 -194.974219 
L 715.177248 -208.396672 
L 709.185838 -192.181391 
L 703.194428 -157.099687 
L 697.203018 -122.091773 
L 691.211608 -99.964092 
L 685.220198 -92.890019 
L 679.228787 -96.87263 
L 673.237377 -106.384965 
L 667.245967 -116.544557 
L 661.254557 -124.539036 
L 655.263147 -129.61622 
L 649.271737 -131.245656 
L 643.280326 -128.148505 
L 637.288916 -119.751131 
L 631.297506 -108.057021 
L 625.306096 -97.176038 
L 619.314686 -90.392802 
L 613.323276 -87.816545 
L 607.331865 -87.149498 
L 601.340455 -86.290574 
L 595.349045 -84.821033 
L 589.357635 -83.659204 
L 583.366225 -84.314267 
L 577.374815 -88.451431 
L 571.383404 -97.087643 
L 565.391994 -109.526631 
L 559.400584 -123.141093 
L 553.409174 -133.980934 
L 547.417764 -137.897291 
L 541.426354 -132.879774 
L 535.434943 -121.409573 
L 529.443533 -109.577005 
L 523.452123 -102.907463 
L 517.460713 -102.809721 
L 511.469303 -106.61868 
L 505.477893 -110.720139 
L 499.486482 -113.669403 
L 493.495072 -116.063349 
L 487.503662 -117.577876 
L 481.512252 -115.717122 
L 475.520842 -108.677369 
L 469.529432 -98.364953 
L 463.538021 -89.144974 
L 457.546611 -84.034402 
L 451.555201 -82.905895 
L 445.563791 -83.790346 
L 439.572381 -85.096839 
L 433.580971 -87.06677 
L 427.58956 -92.174402 
L 421.59815 -104.034784 
L 415.60674 -124.245177 
L 409.61533 -148.718967 
L 403.62392 -167.822539 
L 397.63251 -172.488192 
L 391.641099 -161.112602 
L 385.649689 -140.099439 
L 379.658279 -118.576723 
L 373.666869 -103.215785 
L 367.675459 -96.491912 
L 361.684049 -97.975204 
L 355.692638 -106.731909 
L 349.701228 -122.950804 
L 343.709818 -148.134767 
L 337.718408 -184.530972 
L 331.726998 -234.327934 
L 325.735588 -297.011923 
L 319.744177 -363.760809 
L 313.752767 -414.843665 
L 307.761357 -428.668414 
L 301.769947 -397.806965 
L 295.778537 -335.306265 
L 289.787127 -265.242922 
L 283.795716 -208.353922 
L 277.804306 -173.507645 
L 271.812896 -157.401124 
L 265.821486 -150.936856 
L 259.830076 -148.15895 
L 253.838666 -150.88939 
L 247.847256 -164.667216 
L 241.855845 -189.659529 
L 235.864435 -215.650499 
L 229.873025 -227.305434 
L 223.881615 -216.462924 
L 217.890205 -189.630344 
L 211.898795 -162.776219 
L 205.907384 -149.311887 
L 199.915974 -152.132451 
L 193.924564 -163.693923 
L 187.933154 -172.094607 
L 181.941744 -169.002089 
L 175.950334 -153.959021 
L 169.958923 -132.340812 
L 163.967513 -110.404527 
L 157.976103 -92.184205 
L 151.984693 -79.108388 
L 145.993283 -70.861931 
L 140.001873 -66.326635 
L 134.010462 -64.20429 
L 128.019052 -63.383683 
L 122.027642 -63.128251 
z
" id="m7ddb049ac5" style="stroke:#ffffff;stroke-opacity:0.25;"/>
    </defs>
    <g clip-path="url(#pad58f383d2)">
     <use style="fill:#4c72b0;fill-opacity:0.25;stroke:#ffffff;stroke-opacity:0.25;" x="0" xlink:href="#m7ddb049ac5" y="613.849688"/>
    </g>
   </g>
   <g id="line2d_1">
    <path clip-path="url(#pad58f383d2)" d="M 122.027642 550.721437 
L 128.019052 550.466004 
L 134.010462 549.645398 
L 140.001873 547.523053 
L 145.993283 542.987757 
L 151.984693 534.741299 
L 157.976103 521.665483 
L 163.967513 503.44516 
L 175.950334 459.890667 
L 181.941744 444.847598 
L 187.933154 441.75508 
L 193.924564 450.155765 
L 199.915974 461.717237 
L 205.907384 464.537801 
L 211.898795 451.073468 
L 223.881615 397.386764 
L 229.873025 386.544254 
L 235.864435 398.199189 
L 241.855845 424.190158 
L 247.847256 449.182471 
L 253.838666 462.960298 
L 259.830076 465.690738 
L 265.821486 462.912831 
L 271.812896 456.448563 
L 277.804306 440.342042 
L 283.795716 405.495766 
L 289.787127 348.606765 
L 295.778537 278.543422 
L 301.769947 216.042722 
L 307.761357 185.181273 
L 313.752767 199.006022 
L 319.744177 250.088879 
L 325.735588 316.837764 
L 331.726998 379.521753 
L 337.718408 429.318715 
L 343.709818 465.71492 
L 349.701228 490.898884 
L 355.692638 507.117779 
L 361.684049 515.874483 
L 367.675459 517.357775 
L 373.666869 510.633903 
L 379.658279 495.272964 
L 385.649689 473.750249 
L 391.641099 452.737086 
L 397.63251 441.361495 
L 403.62392 446.027148 
L 409.61533 465.13072 
L 415.60674 489.604511 
L 421.59815 509.814904 
L 427.58956 521.675285 
L 433.580971 526.782918 
L 439.572381 528.752848 
L 445.563791 530.059342 
L 451.555201 530.943793 
L 457.546611 529.815286 
L 463.538021 524.704713 
L 469.529432 515.484734 
L 475.520842 505.172318 
L 481.512252 498.132565 
L 487.503662 496.271811 
L 493.495072 497.786338 
L 499.486482 500.180285 
L 505.477893 503.129548 
L 511.469303 507.231008 
L 517.460713 511.039967 
L 523.452123 510.942225 
L 529.443533 504.272683 
L 535.434943 492.440114 
L 541.426354 480.969914 
L 547.417764 475.952397 
L 553.409174 479.868754 
L 559.400584 490.708594 
L 565.391994 504.323057 
L 571.383404 516.762045 
L 577.374815 525.398257 
L 583.366225 529.53542 
L 589.357635 530.190483 
L 595.349045 529.028654 
L 601.340455 527.559114 
L 607.331865 526.70019 
L 613.323276 526.033143 
L 619.314686 523.456885 
L 625.306096 516.67365 
L 631.297506 505.792666 
L 637.288916 494.098556 
L 643.280326 485.701182 
L 649.271737 482.604031 
L 655.263147 484.233467 
L 661.254557 489.310651 
L 667.245967 497.305131 
L 673.237377 507.464722 
L 679.228787 516.977057 
L 685.220198 520.959668 
L 691.211608 513.885596 
L 697.203018 491.757915 
L 709.185838 421.668296 
L 715.177248 405.453015 
L 721.168659 418.875468 
L 727.160069 454.83813 
L 733.151479 495.033725 
L 739.142889 524.934991 
L 745.134299 541.038848 
L 751.125709 546.779697 
L 757.117119 545.026045 
L 763.10853 533.184349 
L 769.09994 501.881508 
L 775.09135 438.583388 
L 781.08276 337.669582 
L 787.07417 212.126105 
L 793.06558 96.253988 
L 799.056991 33.085714 
L 805.048401 50.530714 
L 811.039811 140.913583 
L 817.031221 263.643655 
L 823.022631 373.704758 
L 829.014041 449.386147 
L 835.005452 494.169719 
L 840.996862 520.14638 
L 846.988272 535.637722 
L 852.979682 544.352403 
L 858.971092 548.52581 
L 864.962502 550.143693 
L 870.953913 550.64497 
L 882.936733 550.780708 
L 882.936733 550.780708 
" style="fill:none;stroke:#4c72b0;stroke-linecap:round;stroke-width:1.5;"/>
   </g>
   <g id="patch_3">
    <path d="M 83.982188 550.8 
L 83.982188 7.2 
" style="fill:none;stroke:#262626;stroke-linecap:square;stroke-linejoin:miter;stroke-width:1.25;"/>
   </g>
   <g id="patch_4">
    <path d="M 920.982188 550.8 
L 920.982188 7.2 
" style="fill:none;stroke:#262626;stroke-linecap:square;stroke-linejoin:miter;stroke-width:1.25;"/>
   </g>
   <g id="patch_5">
    <path d="M 83.982188 550.8 
L 920.982188 550.8 
" style="fill:none;stroke:#262626;stroke-linecap:square;stroke-linejoin:miter;stroke-width:1.25;"/>
   </g>
   <g id="patch_6">
    <path d="M 83.982188 7.2 
L 920.982188 7.2 
" style="fill:none;stroke:#262626;stroke-linecap:square;stroke-linejoin:miter;stroke-width:1.25;"/>
   </g>
   <g id="legend_1">
    <g id="patch_7">
     <path d="M 99.382188 56.1775 
L 388.589375 56.1775 
Q 392.989375 56.1775 392.989375 51.7775 
L 392.989375 22.6 
Q 392.989375 18.2 388.589375 18.2 
L 99.382188 18.2 
Q 94.982188 18.2 94.982188 22.6 
L 94.982188 51.7775 
Q 94.982188 56.1775 99.382188 56.1775 
z
" style="fill:#ffffff;opacity:0.8;stroke:#cccccc;stroke-linejoin:miter;"/>
    </g>
    <g id="line2d_2">
     <path d="M 103.782188 35.047187 
L 147.782188 35.047187 
" style="fill:none;stroke:#4c72b0;stroke-linecap:round;stroke-width:1.5;"/>
    </g>
    <g id="line2d_3"/>
    <g id="text_17">
     <!-- Target_Mass_Number -->
     <g style="fill:#262626;" transform="translate(165.382188 42.747187)scale(0.22 -0.22)">
      <use xlink:href="#ArialMT-84"/>
      <use x="60.912109" xlink:href="#ArialMT-97"/>
      <use x="116.527344" xlink:href="#ArialMT-114"/>
      <use x="149.828125" xlink:href="#ArialMT-103"/>
      <use x="205.443359" xlink:href="#ArialMT-101"/>
      <use x="261.058594" xlink:href="#ArialMT-116"/>
      <use x="288.841797" xlink:href="#ArialMT-95"/>
      <use x="344.457031" xlink:href="#ArialMT-77"/>
      <use x="427.757812" xlink:href="#ArialMT-97"/>
      <use x="483.373047" xlink:href="#ArialMT-115"/>
      <use x="533.373047" xlink:href="#ArialMT-115"/>
      <use x="583.373047" xlink:href="#ArialMT-95"/>
      <use x="638.988281" xlink:href="#ArialMT-78"/>
      <use x="711.205078" xlink:href="#ArialMT-117"/>
      <use x="766.820312" xlink:href="#ArialMT-109"/>
      <use x="850.121094" xlink:href="#ArialMT-98"/>
      <use x="905.736328" xlink:href="#ArialMT-101"/>
      <use x="961.351562" xlink:href="#ArialMT-114"/>
     </g>
    </g>
   </g>
  </g>
 </g>
 <defs>
  <clipPath id="pad58f383d2">
   <rect height="543.6" width="837" x="83.982188" y="7.2"/>
  </clipPath>
 </defs>
</svg>
