<?xml version="1.0" encoding="utf-8" standalone="no"?>
<!DOCTYPE svg PUBLIC "-//W3C//DTD SVG 1.1//EN"
  "http://www.w3.org/Graphics/SVG/1.1/DTD/svg11.dtd">
<!-- Created with matplotlib (https://matplotlib.org/) -->
<svg height="468.839844pt" version="1.1" viewBox="0 0 953.402187 468.839844" width="953.402187pt" xmlns="http://www.w3.org/2000/svg" xmlns:xlink="http://www.w3.org/1999/xlink">
 <defs>
  <style type="text/css">
*{stroke-linecap:butt;stroke-linejoin:round;}
  </style>
 </defs>
 <g id="figure_1">
  <g id="patch_1">
   <path d="M 0 468.839844 
L 953.402187 468.839844 
L 953.402187 0 
L 0 0 
z
" style="fill:#ffffff;"/>
  </g>
  <g id="axes_1">
   <g id="patch_2">
    <path d="M 53.402188 442.08 
L 946.202188 442.08 
L 946.202188 7.2 
L 53.402188 7.2 
z
" style="fill:#ffffff;"/>
   </g>
   <g id="matplotlib.axis_1">
    <g id="xtick_1">
     <g id="text_1">
      <!-- −2.0 -->
      <defs>
       <path d="M 52.828125 31.203125 
L 5.5625 31.203125 
L 5.5625 39.40625 
L 52.828125 39.40625 
z
" id="ArialMT-8722"/>
       <path d="M 50.34375 8.453125 
L 50.34375 0 
L 3.03125 0 
Q 2.9375 3.171875 4.046875 6.109375 
Q 5.859375 10.9375 9.828125 15.625 
Q 13.8125 20.3125 21.34375 26.46875 
Q 33.015625 36.03125 37.109375 41.625 
Q 41.21875 47.21875 41.21875 52.203125 
Q 41.21875 57.421875 37.46875 61 
Q 33.734375 64.59375 27.734375 64.59375 
Q 21.390625 64.59375 17.578125 60.78125 
Q 13.765625 56.984375 13.71875 50.25 
L 4.6875 51.171875 
Q 5.609375 61.28125 11.65625 66.578125 
Q 17.71875 71.875 27.9375 71.875 
Q 38.234375 71.875 44.234375 66.15625 
Q 50.25 60.453125 50.25 52 
Q 50.25 47.703125 48.484375 43.546875 
Q 46.734375 39.40625 42.65625 34.8125 
Q 38.578125 30.21875 29.109375 22.21875 
Q 21.1875 15.578125 18.9375 13.203125 
Q 16.703125 10.84375 15.234375 8.453125 
z
" id="ArialMT-50"/>
       <path d="M 9.078125 0 
L 9.078125 10.015625 
L 19.09375 10.015625 
L 19.09375 0 
z
" id="ArialMT-46"/>
       <path d="M 4.15625 35.296875 
Q 4.15625 48 6.765625 55.734375 
Q 9.375 63.484375 14.515625 67.671875 
Q 19.671875 71.875 27.484375 71.875 
Q 33.25 71.875 37.59375 69.546875 
Q 41.9375 67.234375 44.765625 62.859375 
Q 47.609375 58.5 49.21875 52.21875 
Q 50.828125 45.953125 50.828125 35.296875 
Q 50.828125 22.703125 48.234375 14.96875 
Q 45.65625 7.234375 40.5 3 
Q 35.359375 -1.21875 27.484375 -1.21875 
Q 17.140625 -1.21875 11.234375 6.203125 
Q 4.15625 15.140625 4.15625 35.296875 
z
M 13.1875 35.296875 
Q 13.1875 17.671875 17.3125 11.828125 
Q 21.4375 6 27.484375 6 
Q 33.546875 6 37.671875 11.859375 
Q 41.796875 17.71875 41.796875 35.296875 
Q 41.796875 52.984375 37.671875 58.78125 
Q 33.546875 64.59375 27.390625 64.59375 
Q 21.34375 64.59375 17.71875 59.46875 
Q 13.1875 52.9375 13.1875 35.296875 
z
" id="ArialMT-48"/>
      </defs>
      <g style="fill:#262626;" transform="translate(57.592248 459.453594)scale(0.11 -0.11)">
       <use xlink:href="#ArialMT-8722"/>
       <use x="58.398438" xlink:href="#ArialMT-50"/>
       <use x="114.013672" xlink:href="#ArialMT-46"/>
       <use x="141.796875" xlink:href="#ArialMT-48"/>
      </g>
     </g>
    </g>
    <g id="xtick_2">
     <g id="text_2">
      <!-- −1.5 -->
      <defs>
       <path d="M 37.25 0 
L 28.46875 0 
L 28.46875 56 
Q 25.296875 52.984375 20.140625 49.953125 
Q 14.984375 46.921875 10.890625 45.40625 
L 10.890625 53.90625 
Q 18.265625 57.375 23.78125 62.296875 
Q 29.296875 67.234375 31.59375 71.875 
L 37.25 71.875 
z
" id="ArialMT-49"/>
       <path d="M 4.15625 18.75 
L 13.375 19.53125 
Q 14.40625 12.796875 18.140625 9.390625 
Q 21.875 6 27.15625 6 
Q 33.5 6 37.890625 10.78125 
Q 42.28125 15.578125 42.28125 23.484375 
Q 42.28125 31 38.0625 35.34375 
Q 33.84375 39.703125 27 39.703125 
Q 22.75 39.703125 19.328125 37.765625 
Q 15.921875 35.84375 13.96875 32.765625 
L 5.71875 33.84375 
L 12.640625 70.609375 
L 48.25 70.609375 
L 48.25 62.203125 
L 19.671875 62.203125 
L 15.828125 42.96875 
Q 22.265625 47.46875 29.34375 47.46875 
Q 38.71875 47.46875 45.15625 40.96875 
Q 51.609375 34.46875 51.609375 24.265625 
Q 51.609375 14.546875 45.953125 7.46875 
Q 39.0625 -1.21875 27.15625 -1.21875 
Q 17.390625 -1.21875 11.203125 4.25 
Q 5.03125 9.71875 4.15625 18.75 
z
" id="ArialMT-53"/>
      </defs>
      <g style="fill:#262626;" transform="translate(166.194279 459.453594)scale(0.11 -0.11)">
       <use xlink:href="#ArialMT-8722"/>
       <use x="58.398438" xlink:href="#ArialMT-49"/>
       <use x="114.013672" xlink:href="#ArialMT-46"/>
       <use x="141.796875" xlink:href="#ArialMT-53"/>
      </g>
     </g>
    </g>
    <g id="xtick_3">
     <g id="text_3">
      <!-- −1.0 -->
      <g style="fill:#262626;" transform="translate(274.796311 459.453594)scale(0.11 -0.11)">
       <use xlink:href="#ArialMT-8722"/>
       <use x="58.398438" xlink:href="#ArialMT-49"/>
       <use x="114.013672" xlink:href="#ArialMT-46"/>
       <use x="141.796875" xlink:href="#ArialMT-48"/>
      </g>
     </g>
    </g>
    <g id="xtick_4">
     <g id="text_4">
      <!-- −0.5 -->
      <g style="fill:#262626;" transform="translate(383.398342 459.453594)scale(0.11 -0.11)">
       <use xlink:href="#ArialMT-8722"/>
       <use x="58.398438" xlink:href="#ArialMT-48"/>
       <use x="114.013672" xlink:href="#ArialMT-46"/>
       <use x="141.796875" xlink:href="#ArialMT-53"/>
      </g>
     </g>
    </g>
    <g id="xtick_5">
     <g id="text_5">
      <!-- 0.0 -->
      <g style="fill:#262626;" transform="translate(495.212717 459.453594)scale(0.11 -0.11)">
       <use xlink:href="#ArialMT-48"/>
       <use x="55.615234" xlink:href="#ArialMT-46"/>
       <use x="83.398438" xlink:href="#ArialMT-48"/>
      </g>
     </g>
    </g>
    <g id="xtick_6">
     <g id="text_6">
      <!-- 0.5 -->
      <g style="fill:#262626;" transform="translate(603.814748 459.453594)scale(0.11 -0.11)">
       <use xlink:href="#ArialMT-48"/>
       <use x="55.615234" xlink:href="#ArialMT-46"/>
       <use x="83.398438" xlink:href="#ArialMT-53"/>
      </g>
     </g>
    </g>
    <g id="xtick_7">
     <g id="text_7">
      <!-- 1.0 -->
      <g style="fill:#262626;" transform="translate(712.416779 459.453594)scale(0.11 -0.11)">
       <use xlink:href="#ArialMT-49"/>
       <use x="55.615234" xlink:href="#ArialMT-46"/>
       <use x="83.398438" xlink:href="#ArialMT-48"/>
      </g>
     </g>
    </g>
    <g id="xtick_8">
     <g id="text_8">
      <!-- 1.5 -->
      <g style="fill:#262626;" transform="translate(821.01881 459.453594)scale(0.11 -0.11)">
       <use xlink:href="#ArialMT-49"/>
       <use x="55.615234" xlink:href="#ArialMT-46"/>
       <use x="83.398438" xlink:href="#ArialMT-53"/>
      </g>
     </g>
    </g>
    <g id="xtick_9">
     <g id="text_9">
      <!-- 2.0 -->
      <g style="fill:#262626;" transform="translate(929.620842 459.453594)scale(0.11 -0.11)">
       <use xlink:href="#ArialMT-50"/>
       <use x="55.615234" xlink:href="#ArialMT-46"/>
       <use x="83.398438" xlink:href="#ArialMT-48"/>
      </g>
     </g>
    </g>
   </g>
   <g id="matplotlib.axis_2">
    <g id="ytick_1">
     <g id="text_10">
      <!-- 0 -->
      <g style="fill:#262626;" transform="translate(37.785156 446.016797)scale(0.11 -0.11)">
       <use xlink:href="#ArialMT-48"/>
      </g>
     </g>
    </g>
    <g id="ytick_2">
     <g id="text_11">
      <!-- 25000 -->
      <g style="fill:#262626;" transform="translate(13.317031 386.673114)scale(0.11 -0.11)">
       <use xlink:href="#ArialMT-50"/>
       <use x="55.615234" xlink:href="#ArialMT-53"/>
       <use x="111.230469" xlink:href="#ArialMT-48"/>
       <use x="166.845703" xlink:href="#ArialMT-48"/>
       <use x="222.460938" xlink:href="#ArialMT-48"/>
      </g>
     </g>
    </g>
    <g id="ytick_3">
     <g id="text_12">
      <!-- 50000 -->
      <g style="fill:#262626;" transform="translate(13.317031 327.329432)scale(0.11 -0.11)">
       <use xlink:href="#ArialMT-53"/>
       <use x="55.615234" xlink:href="#ArialMT-48"/>
       <use x="111.230469" xlink:href="#ArialMT-48"/>
       <use x="166.845703" xlink:href="#ArialMT-48"/>
       <use x="222.460938" xlink:href="#ArialMT-48"/>
      </g>
     </g>
    </g>
    <g id="ytick_4">
     <g id="text_13">
      <!-- 75000 -->
      <defs>
       <path d="M 4.734375 62.203125 
L 4.734375 70.65625 
L 51.078125 70.65625 
L 51.078125 63.8125 
Q 44.234375 56.546875 37.515625 44.484375 
Q 30.8125 32.421875 27.15625 19.671875 
Q 24.515625 10.6875 23.78125 0 
L 14.75 0 
Q 14.890625 8.453125 18.0625 20.40625 
Q 21.234375 32.375 27.171875 43.484375 
Q 33.109375 54.59375 39.796875 62.203125 
z
" id="ArialMT-55"/>
      </defs>
      <g style="fill:#262626;" transform="translate(13.317031 267.98575)scale(0.11 -0.11)">
       <use xlink:href="#ArialMT-55"/>
       <use x="55.615234" xlink:href="#ArialMT-53"/>
       <use x="111.230469" xlink:href="#ArialMT-48"/>
       <use x="166.845703" xlink:href="#ArialMT-48"/>
       <use x="222.460938" xlink:href="#ArialMT-48"/>
      </g>
     </g>
    </g>
    <g id="ytick_5">
     <g id="text_14">
      <!-- 100000 -->
      <g style="fill:#262626;" transform="translate(7.2 208.642067)scale(0.11 -0.11)">
       <use xlink:href="#ArialMT-49"/>
       <use x="55.615234" xlink:href="#ArialMT-48"/>
       <use x="111.230469" xlink:href="#ArialMT-48"/>
       <use x="166.845703" xlink:href="#ArialMT-48"/>
       <use x="222.460938" xlink:href="#ArialMT-48"/>
       <use x="278.076172" xlink:href="#ArialMT-48"/>
      </g>
     </g>
    </g>
    <g id="ytick_6">
     <g id="text_15">
      <!-- 125000 -->
      <g style="fill:#262626;" transform="translate(7.2 149.298385)scale(0.11 -0.11)">
       <use xlink:href="#ArialMT-49"/>
       <use x="55.615234" xlink:href="#ArialMT-50"/>
       <use x="111.230469" xlink:href="#ArialMT-53"/>
       <use x="166.845703" xlink:href="#ArialMT-48"/>
       <use x="222.460938" xlink:href="#ArialMT-48"/>
       <use x="278.076172" xlink:href="#ArialMT-48"/>
      </g>
     </g>
    </g>
    <g id="ytick_7">
     <g id="text_16">
      <!-- 150000 -->
      <g style="fill:#262626;" transform="translate(7.2 89.954702)scale(0.11 -0.11)">
       <use xlink:href="#ArialMT-49"/>
       <use x="55.615234" xlink:href="#ArialMT-53"/>
       <use x="111.230469" xlink:href="#ArialMT-48"/>
       <use x="166.845703" xlink:href="#ArialMT-48"/>
       <use x="222.460938" xlink:href="#ArialMT-48"/>
       <use x="278.076172" xlink:href="#ArialMT-48"/>
      </g>
     </g>
    </g>
    <g id="ytick_8">
     <g id="text_17">
      <!-- 175000 -->
      <g style="fill:#262626;" transform="translate(7.2 30.61102)scale(0.11 -0.11)">
       <use xlink:href="#ArialMT-49"/>
       <use x="55.615234" xlink:href="#ArialMT-55"/>
       <use x="111.230469" xlink:href="#ArialMT-53"/>
       <use x="166.845703" xlink:href="#ArialMT-48"/>
       <use x="222.460938" xlink:href="#ArialMT-48"/>
       <use x="278.076172" xlink:href="#ArialMT-48"/>
      </g>
     </g>
    </g>
   </g>
   <g id="patch_3">
    <path clip-path="url(#p6872ef9285)" d="M 93.984006 442.08 
L 114.274915 442.08 
L 114.274915 125.794789 
L 93.984006 125.794789 
z
" style="fill:#4c72b0;stroke:#ffffff;stroke-linejoin:miter;"/>
   </g>
   <g id="patch_4">
    <path clip-path="url(#p6872ef9285)" d="M 114.274915 442.08 
L 134.565824 442.08 
L 134.565824 346.242327 
L 114.274915 346.242327 
z
" style="fill:#4c72b0;stroke:#ffffff;stroke-linejoin:miter;"/>
   </g>
   <g id="patch_5">
    <path clip-path="url(#p6872ef9285)" d="M 134.565824 442.08 
L 154.856733 442.08 
L 154.856733 346.133134 
L 134.565824 346.133134 
z
" style="fill:#4c72b0;stroke:#ffffff;stroke-linejoin:miter;"/>
   </g>
   <g id="patch_6">
    <path clip-path="url(#p6872ef9285)" d="M 154.856733 442.08 
L 175.147642 442.08 
L 175.147642 309.050454 
L 154.856733 309.050454 
z
" style="fill:#4c72b0;stroke:#ffffff;stroke-linejoin:miter;"/>
   </g>
   <g id="patch_7">
    <path clip-path="url(#p6872ef9285)" d="M 175.147642 442.08 
L 195.438551 442.08 
L 195.438551 289.13234 
L 175.147642 289.13234 
z
" style="fill:#4c72b0;stroke:#ffffff;stroke-linejoin:miter;"/>
   </g>
   <g id="patch_8">
    <path clip-path="url(#p6872ef9285)" d="M 195.438551 442.08 
L 215.72946 442.08 
L 215.72946 244.508265 
L 195.438551 244.508265 
z
" style="fill:#4c72b0;stroke:#ffffff;stroke-linejoin:miter;"/>
   </g>
   <g id="patch_9">
    <path clip-path="url(#p6872ef9285)" d="M 215.72946 442.08 
L 236.020369 442.08 
L 236.020369 188.41899 
L 215.72946 188.41899 
z
" style="fill:#4c72b0;stroke:#ffffff;stroke-linejoin:miter;"/>
   </g>
   <g id="patch_10">
    <path clip-path="url(#p6872ef9285)" d="M 236.020369 442.08 
L 256.311278 442.08 
L 256.311278 166.395363 
L 236.020369 166.395363 
z
" style="fill:#4c72b0;stroke:#ffffff;stroke-linejoin:miter;"/>
   </g>
   <g id="patch_11">
    <path clip-path="url(#p6872ef9285)" d="M 256.311278 442.08 
L 276.602188 442.08 
L 276.602188 140.851468 
L 256.311278 140.851468 
z
" style="fill:#4c72b0;stroke:#ffffff;stroke-linejoin:miter;"/>
   </g>
   <g id="patch_12">
    <path clip-path="url(#p6872ef9285)" d="M 276.602188 442.08 
L 296.893097 442.08 
L 296.893097 120.819414 
L 276.602188 120.819414 
z
" style="fill:#4c72b0;stroke:#ffffff;stroke-linejoin:miter;"/>
   </g>
   <g id="patch_13">
    <path clip-path="url(#p6872ef9285)" d="M 296.893097 442.08 
L 317.184006 442.08 
L 317.184006 104.927176 
L 296.893097 104.927176 
z
" style="fill:#4c72b0;stroke:#ffffff;stroke-linejoin:miter;"/>
   </g>
   <g id="patch_14">
    <path clip-path="url(#p6872ef9285)" d="M 317.184006 442.08 
L 337.474915 442.08 
L 337.474915 115.433382 
L 317.184006 115.433382 
z
" style="fill:#4c72b0;stroke:#ffffff;stroke-linejoin:miter;"/>
   </g>
   <g id="patch_15">
    <path clip-path="url(#p6872ef9285)" d="M 337.474915 442.08 
L 357.765824 442.08 
L 357.765824 108.929314 
L 337.474915 108.929314 
z
" style="fill:#4c72b0;stroke:#ffffff;stroke-linejoin:miter;"/>
   </g>
   <g id="patch_16">
    <path clip-path="url(#p6872ef9285)" d="M 357.765824 442.08 
L 378.056733 442.08 
L 378.056733 117.109247 
L 357.765824 117.109247 
z
" style="fill:#4c72b0;stroke:#ffffff;stroke-linejoin:miter;"/>
   </g>
   <g id="patch_17">
    <path clip-path="url(#p6872ef9285)" d="M 378.056733 442.08 
L 398.347642 442.08 
L 398.347642 134.831645 
L 378.056733 134.831645 
z
" style="fill:#4c72b0;stroke:#ffffff;stroke-linejoin:miter;"/>
   </g>
   <g id="patch_18">
    <path clip-path="url(#p6872ef9285)" d="M 398.347642 442.08 
L 418.638551 442.08 
L 418.638551 167.798247 
L 398.347642 167.798247 
z
" style="fill:#4c72b0;stroke:#ffffff;stroke-linejoin:miter;"/>
   </g>
   <g id="patch_19">
    <path clip-path="url(#p6872ef9285)" d="M 418.638551 442.08 
L 438.92946 442.08 
L 438.92946 201.370155 
L 418.638551 201.370155 
z
" style="fill:#4c72b0;stroke:#ffffff;stroke-linejoin:miter;"/>
   </g>
   <g id="patch_20">
    <path clip-path="url(#p6872ef9285)" d="M 438.92946 442.08 
L 459.220369 442.08 
L 459.220369 220.941702 
L 438.92946 220.941702 
z
" style="fill:#4c72b0;stroke:#ffffff;stroke-linejoin:miter;"/>
   </g>
   <g id="patch_21">
    <path clip-path="url(#p6872ef9285)" d="M 459.220369 442.08 
L 479.511278 442.08 
L 479.511278 236.162169 
L 459.220369 236.162169 
z
" style="fill:#4c72b0;stroke:#ffffff;stroke-linejoin:miter;"/>
   </g>
   <g id="patch_22">
    <path clip-path="url(#p6872ef9285)" d="M 479.511278 442.08 
L 499.802188 442.08 
L 499.802188 241.417646 
L 479.511278 241.417646 
z
" style="fill:#4c72b0;stroke:#ffffff;stroke-linejoin:miter;"/>
   </g>
   <g id="patch_23">
    <path clip-path="url(#p6872ef9285)" d="M 499.802188 442.08 
L 520.093097 442.08 
L 520.093097 234.061403 
L 499.802188 234.061403 
z
" style="fill:#4c72b0;stroke:#ffffff;stroke-linejoin:miter;"/>
   </g>
   <g id="patch_24">
    <path clip-path="url(#p6872ef9285)" d="M 520.093097 442.08 
L 540.384006 442.08 
L 540.384006 237.470104 
L 520.093097 237.470104 
z
" style="fill:#4c72b0;stroke:#ffffff;stroke-linejoin:miter;"/>
   </g>
   <g id="patch_25">
    <path clip-path="url(#p6872ef9285)" d="M 540.384006 442.08 
L 560.674915 442.08 
L 560.674915 218.992855 
L 540.384006 218.992855 
z
" style="fill:#4c72b0;stroke:#ffffff;stroke-linejoin:miter;"/>
   </g>
   <g id="patch_26">
    <path clip-path="url(#p6872ef9285)" d="M 560.674915 442.08 
L 580.965824 442.08 
L 580.965824 216.096883 
L 560.674915 216.096883 
z
" style="fill:#4c72b0;stroke:#ffffff;stroke-linejoin:miter;"/>
   </g>
   <g id="patch_27">
    <path clip-path="url(#p6872ef9285)" d="M 580.965824 442.08 
L 601.256733 442.08 
L 601.256733 229.738809 
L 580.965824 229.738809 
z
" style="fill:#4c72b0;stroke:#ffffff;stroke-linejoin:miter;"/>
   </g>
   <g id="patch_28">
    <path clip-path="url(#p6872ef9285)" d="M 601.256733 442.08 
L 621.547642 442.08 
L 621.547642 201.002224 
L 601.256733 201.002224 
z
" style="fill:#4c72b0;stroke:#ffffff;stroke-linejoin:miter;"/>
   </g>
   <g id="patch_29">
    <path clip-path="url(#p6872ef9285)" d="M 621.547642 442.08 
L 641.838551 442.08 
L 641.838551 160.788571 
L 621.547642 160.788571 
z
" style="fill:#4c72b0;stroke:#ffffff;stroke-linejoin:miter;"/>
   </g>
   <g id="patch_30">
    <path clip-path="url(#p6872ef9285)" d="M 641.838551 442.08 
L 662.12946 442.08 
L 662.12946 150.719135 
L 641.838551 150.719135 
z
" style="fill:#4c72b0;stroke:#ffffff;stroke-linejoin:miter;"/>
   </g>
   <g id="patch_31">
    <path clip-path="url(#p6872ef9285)" d="M 662.12946 442.08 
L 682.420369 442.08 
L 682.420369 44.498691 
L 662.12946 44.498691 
z
" style="fill:#4c72b0;stroke:#ffffff;stroke-linejoin:miter;"/>
   </g>
   <g id="patch_32">
    <path clip-path="url(#p6872ef9285)" d="M 682.420369 442.08 
L 702.711278 442.08 
L 702.711278 27.908571 
L 682.420369 27.908571 
z
" style="fill:#4c72b0;stroke:#ffffff;stroke-linejoin:miter;"/>
   </g>
   <g id="patch_33">
    <path clip-path="url(#p6872ef9285)" d="M 702.711278 442.08 
L 723.002187 442.08 
L 723.002187 36.620224 
L 702.711278 36.620224 
z
" style="fill:#4c72b0;stroke:#ffffff;stroke-linejoin:miter;"/>
   </g>
   <g id="patch_34">
    <path clip-path="url(#p6872ef9285)" d="M 723.002187 442.08 
L 743.293097 442.08 
L 743.293097 85.640479 
L 723.002187 85.640479 
z
" style="fill:#4c72b0;stroke:#ffffff;stroke-linejoin:miter;"/>
   </g>
   <g id="patch_35">
    <path clip-path="url(#p6872ef9285)" d="M 743.293097 442.08 
L 763.584006 442.08 
L 763.584006 133.936742 
L 743.293097 133.936742 
z
" style="fill:#4c72b0;stroke:#ffffff;stroke-linejoin:miter;"/>
   </g>
   <g id="patch_36">
    <path clip-path="url(#p6872ef9285)" d="M 763.584006 442.08 
L 783.874915 442.08 
L 783.874915 160.978471 
L 763.584006 160.978471 
z
" style="fill:#4c72b0;stroke:#ffffff;stroke-linejoin:miter;"/>
   </g>
   <g id="patch_37">
    <path clip-path="url(#p6872ef9285)" d="M 783.874915 442.08 
L 804.165824 442.08 
L 804.165824 170.862755 
L 783.874915 170.862755 
z
" style="fill:#4c72b0;stroke:#ffffff;stroke-linejoin:miter;"/>
   </g>
   <g id="patch_38">
    <path clip-path="url(#p6872ef9285)" d="M 804.165824 442.08 
L 824.456733 442.08 
L 824.456733 216.016176 
L 804.165824 216.016176 
z
" style="fill:#4c72b0;stroke:#ffffff;stroke-linejoin:miter;"/>
   </g>
   <g id="patch_39">
    <path clip-path="url(#p6872ef9285)" d="M 824.456733 442.08 
L 844.747642 442.08 
L 844.747642 272.518483 
L 824.456733 272.518483 
z
" style="fill:#4c72b0;stroke:#ffffff;stroke-linejoin:miter;"/>
   </g>
   <g id="patch_40">
    <path clip-path="url(#p6872ef9285)" d="M 844.747642 442.08 
L 865.038551 442.08 
L 865.038551 321.757123 
L 844.747642 321.757123 
z
" style="fill:#4c72b0;stroke:#ffffff;stroke-linejoin:miter;"/>
   </g>
   <g id="patch_41">
    <path clip-path="url(#p6872ef9285)" d="M 865.038551 442.08 
L 885.32946 442.08 
L 885.32946 306.86898 
L 865.038551 306.86898 
z
" style="fill:#4c72b0;stroke:#ffffff;stroke-linejoin:miter;"/>
   </g>
   <g id="patch_42">
    <path clip-path="url(#p6872ef9285)" d="M 885.32946 442.08 
L 905.620369 442.08 
L 905.620369 369.039796 
L 885.32946 369.039796 
z
" style="fill:#4c72b0;stroke:#ffffff;stroke-linejoin:miter;"/>
   </g>
   <g id="patch_43">
    <path d="M 53.402188 442.08 
L 53.402188 7.2 
" style="fill:none;stroke:#262626;stroke-linecap:square;stroke-linejoin:miter;stroke-width:1.25;"/>
   </g>
   <g id="patch_44">
    <path d="M 946.202188 442.08 
L 946.202188 7.2 
" style="fill:none;stroke:#262626;stroke-linecap:square;stroke-linejoin:miter;stroke-width:1.25;"/>
   </g>
   <g id="patch_45">
    <path d="M 53.402188 442.08 
L 946.202188 442.08 
" style="fill:none;stroke:#262626;stroke-linecap:square;stroke-linejoin:miter;stroke-width:1.25;"/>
   </g>
   <g id="patch_46">
    <path d="M 53.402188 7.2 
L 946.202188 7.2 
" style="fill:none;stroke:#262626;stroke-linecap:square;stroke-linejoin:miter;stroke-width:1.25;"/>
   </g>
  </g>
 </g>
 <defs>
  <clipPath id="p6872ef9285">
   <rect height="434.88" width="892.8" x="53.402188" y="7.2"/>
  </clipPath>
 </defs>
</svg>
