<?xml version="1.0" encoding="utf-8" standalone="no"?>
<!DOCTYPE svg PUBLIC "-//W3C//DTD SVG 1.1//EN"
  "http://www.w3.org/Graphics/SVG/1.1/DTD/svg11.dtd">
<!-- Created with matplotlib (https://matplotlib.org/) -->
<svg height="613.849688pt" version="1.1" viewBox="0 0 903.714062 613.849688" width="903.714062pt" xmlns="http://www.w3.org/2000/svg" xmlns:xlink="http://www.w3.org/1999/xlink">
 <defs>
  <style type="text/css">
*{stroke-linecap:butt;stroke-linejoin:round;}
  </style>
 </defs>
 <g id="figure_1">
  <g id="patch_1">
   <path d="M 0 613.849688 
L 903.714062 613.849688 
L 903.714062 0 
L 0 0 
z
" style="fill:#ffffff;"/>
  </g>
  <g id="axes_1">
   <g id="patch_2">
    <path d="M 59.514063 550.8 
L 896.514063 550.8 
L 896.514063 7.2 
L 59.514063 7.2 
z
" style="fill:#ffffff;"/>
   </g>
   <g id="matplotlib.axis_1">
    <g id="xtick_1">
     <g id="text_1">
      <!-- 0 -->
      <defs>
       <path d="M 4.15625 35.296875 
Q 4.15625 48 6.765625 55.734375 
Q 9.375 63.484375 14.515625 67.671875 
Q 19.671875 71.875 27.484375 71.875 
Q 33.25 71.875 37.59375 69.546875 
Q 41.9375 67.234375 44.765625 62.859375 
Q 47.609375 58.5 49.21875 52.21875 
Q 50.828125 45.953125 50.828125 35.296875 
Q 50.828125 22.703125 48.234375 14.96875 
Q 45.65625 7.234375 40.5 3 
Q 35.359375 -1.21875 27.484375 -1.21875 
Q 17.140625 -1.21875 11.234375 6.203125 
Q 4.15625 15.140625 4.15625 35.296875 
z
M 13.1875 35.296875 
Q 13.1875 17.671875 17.3125 11.828125 
Q 21.4375 6 27.484375 6 
Q 33.546875 6 37.671875 11.859375 
Q 41.796875 17.71875 41.796875 35.296875 
Q 41.796875 52.984375 37.671875 58.78125 
Q 33.546875 64.59375 27.390625 64.59375 
Q 21.34375 64.59375 17.71875 59.46875 
Q 13.1875 52.9375 13.1875 35.296875 
z
" id="ArialMT-48"/>
      </defs>
      <g style="fill:#262626;" transform="translate(118.633801 576.047188)scale(0.22 -0.22)">
       <use xlink:href="#ArialMT-48"/>
      </g>
     </g>
    </g>
    <g id="xtick_2">
     <g id="text_2">
      <!-- 20 -->
      <defs>
       <path d="M 50.34375 8.453125 
L 50.34375 0 
L 3.03125 0 
Q 2.9375 3.171875 4.046875 6.109375 
Q 5.859375 10.9375 9.828125 15.625 
Q 13.8125 20.3125 21.34375 26.46875 
Q 33.015625 36.03125 37.109375 41.625 
Q 41.21875 47.21875 41.21875 52.203125 
Q 41.21875 57.421875 37.46875 61 
Q 33.734375 64.59375 27.734375 64.59375 
Q 21.390625 64.59375 17.578125 60.78125 
Q 13.765625 56.984375 13.71875 50.25 
L 4.6875 51.171875 
Q 5.609375 61.28125 11.65625 66.578125 
Q 17.71875 71.875 27.9375 71.875 
Q 38.234375 71.875 44.234375 66.15625 
Q 50.25 60.453125 50.25 52 
Q 50.25 47.703125 48.484375 43.546875 
Q 46.734375 39.40625 42.65625 34.8125 
Q 38.578125 30.21875 29.109375 22.21875 
Q 21.1875 15.578125 18.9375 13.203125 
Q 16.703125 10.84375 15.234375 8.453125 
z
" id="ArialMT-50"/>
      </defs>
      <g style="fill:#262626;" transform="translate(253.822062 576.047188)scale(0.22 -0.22)">
       <use xlink:href="#ArialMT-50"/>
       <use x="55.615234" xlink:href="#ArialMT-48"/>
      </g>
     </g>
    </g>
    <g id="xtick_3">
     <g id="text_3">
      <!-- 40 -->
      <defs>
       <path d="M 32.328125 0 
L 32.328125 17.140625 
L 1.265625 17.140625 
L 1.265625 25.203125 
L 33.9375 71.578125 
L 41.109375 71.578125 
L 41.109375 25.203125 
L 50.78125 25.203125 
L 50.78125 17.140625 
L 41.109375 17.140625 
L 41.109375 0 
z
M 32.328125 25.203125 
L 32.328125 57.46875 
L 9.90625 25.203125 
z
" id="ArialMT-52"/>
      </defs>
      <g style="fill:#262626;" transform="translate(395.127354 576.047188)scale(0.22 -0.22)">
       <use xlink:href="#ArialMT-52"/>
       <use x="55.615234" xlink:href="#ArialMT-48"/>
      </g>
     </g>
    </g>
    <g id="xtick_4">
     <g id="text_4">
      <!-- 60 -->
      <defs>
       <path d="M 49.75 54.046875 
L 41.015625 53.375 
Q 39.84375 58.546875 37.703125 60.890625 
Q 34.125 64.65625 28.90625 64.65625 
Q 24.703125 64.65625 21.53125 62.3125 
Q 17.390625 59.28125 14.984375 53.46875 
Q 12.59375 47.65625 12.5 36.921875 
Q 15.671875 41.75 20.265625 44.09375 
Q 24.859375 46.4375 29.890625 46.4375 
Q 38.671875 46.4375 44.84375 39.96875 
Q 51.03125 33.5 51.03125 23.25 
Q 51.03125 16.5 48.125 10.71875 
Q 45.21875 4.9375 40.140625 1.859375 
Q 35.0625 -1.21875 28.609375 -1.21875 
Q 17.625 -1.21875 10.6875 6.859375 
Q 3.765625 14.9375 3.765625 33.5 
Q 3.765625 54.25 11.421875 63.671875 
Q 18.109375 71.875 29.4375 71.875 
Q 37.890625 71.875 43.28125 67.140625 
Q 48.6875 62.40625 49.75 54.046875 
z
M 13.875 23.1875 
Q 13.875 18.65625 15.796875 14.5 
Q 17.71875 10.359375 21.1875 8.171875 
Q 24.65625 6 28.46875 6 
Q 34.03125 6 38.03125 10.484375 
Q 42.046875 14.984375 42.046875 22.703125 
Q 42.046875 30.125 38.078125 34.390625 
Q 34.125 38.671875 28.125 38.671875 
Q 22.171875 38.671875 18.015625 34.390625 
Q 13.875 30.125 13.875 23.1875 
z
" id="ArialMT-54"/>
      </defs>
      <g style="fill:#262626;" transform="translate(536.432646 576.047188)scale(0.22 -0.22)">
       <use xlink:href="#ArialMT-54"/>
       <use x="55.615234" xlink:href="#ArialMT-48"/>
      </g>
     </g>
    </g>
    <g id="xtick_5">
     <g id="text_5">
      <!-- 80 -->
      <defs>
       <path d="M 17.671875 38.8125 
Q 12.203125 40.828125 9.5625 44.53125 
Q 6.9375 48.25 6.9375 53.421875 
Q 6.9375 61.234375 12.546875 66.546875 
Q 18.171875 71.875 27.484375 71.875 
Q 36.859375 71.875 42.578125 66.421875 
Q 48.296875 60.984375 48.296875 53.171875 
Q 48.296875 48.1875 45.671875 44.5 
Q 43.0625 40.828125 37.75 38.8125 
Q 44.34375 36.671875 47.78125 31.875 
Q 51.21875 27.09375 51.21875 20.453125 
Q 51.21875 11.28125 44.71875 5.03125 
Q 38.234375 -1.21875 27.640625 -1.21875 
Q 17.046875 -1.21875 10.546875 5.046875 
Q 4.046875 11.328125 4.046875 20.703125 
Q 4.046875 27.6875 7.59375 32.390625 
Q 11.140625 37.109375 17.671875 38.8125 
z
M 15.921875 53.71875 
Q 15.921875 48.640625 19.1875 45.40625 
Q 22.46875 42.1875 27.6875 42.1875 
Q 32.765625 42.1875 36.015625 45.375 
Q 39.265625 48.578125 39.265625 53.21875 
Q 39.265625 58.0625 35.90625 61.359375 
Q 32.5625 64.65625 27.59375 64.65625 
Q 22.5625 64.65625 19.234375 61.421875 
Q 15.921875 58.203125 15.921875 53.71875 
z
M 13.09375 20.65625 
Q 13.09375 16.890625 14.875 13.375 
Q 16.65625 9.859375 20.171875 7.921875 
Q 23.6875 6 27.734375 6 
Q 34.03125 6 38.125 10.046875 
Q 42.234375 14.109375 42.234375 20.359375 
Q 42.234375 26.703125 38.015625 30.859375 
Q 33.796875 35.015625 27.4375 35.015625 
Q 21.234375 35.015625 17.15625 30.90625 
Q 13.09375 26.8125 13.09375 20.65625 
z
" id="ArialMT-56"/>
      </defs>
      <g style="fill:#262626;" transform="translate(677.737938 576.047188)scale(0.22 -0.22)">
       <use xlink:href="#ArialMT-56"/>
       <use x="55.615234" xlink:href="#ArialMT-48"/>
      </g>
     </g>
    </g>
    <g id="xtick_6">
     <g id="text_6">
      <!-- 100 -->
      <defs>
       <path d="M 37.25 0 
L 28.46875 0 
L 28.46875 56 
Q 25.296875 52.984375 20.140625 49.953125 
Q 14.984375 46.921875 10.890625 45.40625 
L 10.890625 53.90625 
Q 18.265625 57.375 23.78125 62.296875 
Q 29.296875 67.234375 31.59375 71.875 
L 37.25 71.875 
z
" id="ArialMT-49"/>
      </defs>
      <g style="fill:#262626;" transform="translate(812.926199 576.047188)scale(0.22 -0.22)">
       <use xlink:href="#ArialMT-49"/>
       <use x="55.615234" xlink:href="#ArialMT-48"/>
       <use x="111.230469" xlink:href="#ArialMT-48"/>
      </g>
     </g>
    </g>
    <g id="text_7">
     <!-- Target_Protons -->
     <defs>
      <path d="M 25.921875 0 
L 25.921875 63.140625 
L 2.34375 63.140625 
L 2.34375 71.578125 
L 59.078125 71.578125 
L 59.078125 63.140625 
L 35.40625 63.140625 
L 35.40625 0 
z
" id="ArialMT-84"/>
      <path d="M 40.4375 6.390625 
Q 35.546875 2.25 31.03125 0.53125 
Q 26.515625 -1.171875 21.34375 -1.171875 
Q 12.796875 -1.171875 8.203125 3 
Q 3.609375 7.171875 3.609375 13.671875 
Q 3.609375 17.484375 5.34375 20.625 
Q 7.078125 23.78125 9.890625 25.6875 
Q 12.703125 27.59375 16.21875 28.5625 
Q 18.796875 29.25 24.03125 29.890625 
Q 34.671875 31.15625 39.703125 32.90625 
Q 39.75 34.71875 39.75 35.203125 
Q 39.75 40.578125 37.25 42.78125 
Q 33.890625 45.75 27.25 45.75 
Q 21.046875 45.75 18.09375 43.578125 
Q 15.140625 41.40625 13.71875 35.890625 
L 5.125 37.0625 
Q 6.296875 42.578125 8.984375 45.96875 
Q 11.671875 49.359375 16.75 51.1875 
Q 21.828125 53.03125 28.515625 53.03125 
Q 35.15625 53.03125 39.296875 51.46875 
Q 43.453125 49.90625 45.40625 47.53125 
Q 47.359375 45.171875 48.140625 41.546875 
Q 48.578125 39.3125 48.578125 33.453125 
L 48.578125 21.734375 
Q 48.578125 9.46875 49.140625 6.21875 
Q 49.703125 2.984375 51.375 0 
L 42.1875 0 
Q 40.828125 2.734375 40.4375 6.390625 
z
M 39.703125 26.03125 
Q 34.90625 24.078125 25.34375 22.703125 
Q 19.921875 21.921875 17.671875 20.9375 
Q 15.4375 19.96875 14.203125 18.09375 
Q 12.984375 16.21875 12.984375 13.921875 
Q 12.984375 10.40625 15.640625 8.0625 
Q 18.3125 5.71875 23.4375 5.71875 
Q 28.515625 5.71875 32.46875 7.9375 
Q 36.421875 10.15625 38.28125 14.015625 
Q 39.703125 17 39.703125 22.796875 
z
" id="ArialMT-97"/>
      <path d="M 6.5 0 
L 6.5 51.859375 
L 14.40625 51.859375 
L 14.40625 44 
Q 17.4375 49.515625 20 51.265625 
Q 22.5625 53.03125 25.640625 53.03125 
Q 30.078125 53.03125 34.671875 50.203125 
L 31.640625 42.046875 
Q 28.421875 43.953125 25.203125 43.953125 
Q 22.3125 43.953125 20.015625 42.21875 
Q 17.71875 40.484375 16.75 37.40625 
Q 15.28125 32.71875 15.28125 27.15625 
L 15.28125 0 
z
" id="ArialMT-114"/>
      <path d="M 4.984375 -4.296875 
L 13.53125 -5.5625 
Q 14.0625 -9.515625 16.5 -11.328125 
Q 19.78125 -13.765625 25.4375 -13.765625 
Q 31.546875 -13.765625 34.859375 -11.328125 
Q 38.1875 -8.890625 39.359375 -4.5 
Q 40.046875 -1.8125 39.984375 6.78125 
Q 34.234375 0 25.640625 0 
Q 14.9375 0 9.078125 7.71875 
Q 3.21875 15.4375 3.21875 26.21875 
Q 3.21875 33.640625 5.90625 39.90625 
Q 8.59375 46.1875 13.6875 49.609375 
Q 18.796875 53.03125 25.6875 53.03125 
Q 34.859375 53.03125 40.828125 45.609375 
L 40.828125 51.859375 
L 48.921875 51.859375 
L 48.921875 7.03125 
Q 48.921875 -5.078125 46.453125 -10.125 
Q 44 -15.1875 38.640625 -18.109375 
Q 33.296875 -21.046875 25.484375 -21.046875 
Q 16.21875 -21.046875 10.5 -16.875 
Q 4.78125 -12.703125 4.984375 -4.296875 
z
M 12.25 26.859375 
Q 12.25 16.65625 16.296875 11.96875 
Q 20.359375 7.28125 26.46875 7.28125 
Q 32.515625 7.28125 36.609375 11.9375 
Q 40.71875 16.609375 40.71875 26.5625 
Q 40.71875 36.078125 36.5 40.90625 
Q 32.28125 45.75 26.3125 45.75 
Q 20.453125 45.75 16.34375 40.984375 
Q 12.25 36.234375 12.25 26.859375 
z
" id="ArialMT-103"/>
      <path d="M 42.09375 16.703125 
L 51.171875 15.578125 
Q 49.03125 7.625 43.21875 3.21875 
Q 37.40625 -1.171875 28.375 -1.171875 
Q 17 -1.171875 10.328125 5.828125 
Q 3.65625 12.84375 3.65625 25.484375 
Q 3.65625 38.578125 10.390625 45.796875 
Q 17.140625 53.03125 27.875 53.03125 
Q 38.28125 53.03125 44.875 45.953125 
Q 51.46875 38.875 51.46875 26.03125 
Q 51.46875 25.25 51.421875 23.6875 
L 12.75 23.6875 
Q 13.234375 15.140625 17.578125 10.59375 
Q 21.921875 6.0625 28.421875 6.0625 
Q 33.25 6.0625 36.671875 8.59375 
Q 40.09375 11.140625 42.09375 16.703125 
z
M 13.234375 30.90625 
L 42.1875 30.90625 
Q 41.609375 37.453125 38.875 40.71875 
Q 34.671875 45.796875 27.984375 45.796875 
Q 21.921875 45.796875 17.796875 41.75 
Q 13.671875 37.703125 13.234375 30.90625 
z
" id="ArialMT-101"/>
      <path d="M 25.78125 7.859375 
L 27.046875 0.09375 
Q 23.34375 -0.6875 20.40625 -0.6875 
Q 15.625 -0.6875 12.984375 0.828125 
Q 10.359375 2.34375 9.28125 4.8125 
Q 8.203125 7.28125 8.203125 15.1875 
L 8.203125 45.015625 
L 1.765625 45.015625 
L 1.765625 51.859375 
L 8.203125 51.859375 
L 8.203125 64.703125 
L 16.9375 69.96875 
L 16.9375 51.859375 
L 25.78125 51.859375 
L 25.78125 45.015625 
L 16.9375 45.015625 
L 16.9375 14.703125 
Q 16.9375 10.9375 17.40625 9.859375 
Q 17.875 8.796875 18.921875 8.15625 
Q 19.96875 7.515625 21.921875 7.515625 
Q 23.390625 7.515625 25.78125 7.859375 
z
" id="ArialMT-116"/>
      <path d="M -1.515625 -19.875 
L -1.515625 -13.53125 
L 56.734375 -13.53125 
L 56.734375 -19.875 
z
" id="ArialMT-95"/>
      <path d="M 7.71875 0 
L 7.71875 71.578125 
L 34.71875 71.578125 
Q 41.84375 71.578125 45.609375 70.90625 
Q 50.875 70.015625 54.4375 67.546875 
Q 58.015625 65.09375 60.1875 60.640625 
Q 62.359375 56.203125 62.359375 50.875 
Q 62.359375 41.75 56.546875 35.421875 
Q 50.734375 29.109375 35.546875 29.109375 
L 17.1875 29.109375 
L 17.1875 0 
z
M 17.1875 37.546875 
L 35.6875 37.546875 
Q 44.875 37.546875 48.734375 40.96875 
Q 52.59375 44.390625 52.59375 50.59375 
Q 52.59375 55.078125 50.3125 58.265625 
Q 48.046875 61.46875 44.34375 62.5 
Q 41.9375 63.140625 35.5 63.140625 
L 17.1875 63.140625 
z
" id="ArialMT-80"/>
      <path d="M 3.328125 25.921875 
Q 3.328125 40.328125 11.328125 47.265625 
Q 18.015625 53.03125 27.640625 53.03125 
Q 38.328125 53.03125 45.109375 46.015625 
Q 51.90625 39.015625 51.90625 26.65625 
Q 51.90625 16.65625 48.90625 10.90625 
Q 45.90625 5.171875 40.15625 2 
Q 34.421875 -1.171875 27.640625 -1.171875 
Q 16.75 -1.171875 10.03125 5.8125 
Q 3.328125 12.796875 3.328125 25.921875 
z
M 12.359375 25.921875 
Q 12.359375 15.96875 16.703125 11.015625 
Q 21.046875 6.0625 27.640625 6.0625 
Q 34.1875 6.0625 38.53125 11.03125 
Q 42.875 16.015625 42.875 26.21875 
Q 42.875 35.84375 38.5 40.796875 
Q 34.125 45.75 27.640625 45.75 
Q 21.046875 45.75 16.703125 40.8125 
Q 12.359375 35.890625 12.359375 25.921875 
z
" id="ArialMT-111"/>
      <path d="M 6.59375 0 
L 6.59375 51.859375 
L 14.5 51.859375 
L 14.5 44.484375 
Q 20.21875 53.03125 31 53.03125 
Q 35.6875 53.03125 39.625 51.34375 
Q 43.5625 49.65625 45.515625 46.921875 
Q 47.46875 44.1875 48.25 40.4375 
Q 48.734375 37.984375 48.734375 31.890625 
L 48.734375 0 
L 39.9375 0 
L 39.9375 31.546875 
Q 39.9375 36.921875 38.90625 39.578125 
Q 37.890625 42.234375 35.28125 43.8125 
Q 32.671875 45.40625 29.15625 45.40625 
Q 23.53125 45.40625 19.453125 41.84375 
Q 15.375 38.28125 15.375 28.328125 
L 15.375 0 
z
" id="ArialMT-110"/>
      <path d="M 3.078125 15.484375 
L 11.765625 16.84375 
Q 12.5 11.625 15.84375 8.84375 
Q 19.1875 6.0625 25.203125 6.0625 
Q 31.25 6.0625 34.171875 8.515625 
Q 37.109375 10.984375 37.109375 14.3125 
Q 37.109375 17.28125 34.515625 19 
Q 32.71875 20.171875 25.53125 21.96875 
Q 15.875 24.421875 12.140625 26.203125 
Q 8.40625 27.984375 6.46875 31.125 
Q 4.546875 34.28125 4.546875 38.09375 
Q 4.546875 41.546875 6.125 44.5 
Q 7.71875 47.46875 10.453125 49.421875 
Q 12.5 50.921875 16.03125 51.96875 
Q 19.578125 53.03125 23.640625 53.03125 
Q 29.734375 53.03125 34.34375 51.265625 
Q 38.96875 49.515625 41.15625 46.5 
Q 43.359375 43.5 44.1875 38.484375 
L 35.59375 37.3125 
Q 35.015625 41.3125 32.203125 43.546875 
Q 29.390625 45.796875 24.265625 45.796875 
Q 18.21875 45.796875 15.625 43.796875 
Q 13.03125 41.796875 13.03125 39.109375 
Q 13.03125 37.40625 14.109375 36.03125 
Q 15.1875 34.625 17.484375 33.6875 
Q 18.796875 33.203125 25.25 31.453125 
Q 34.578125 28.953125 38.25 27.359375 
Q 41.9375 25.78125 44.03125 22.75 
Q 46.140625 19.734375 46.140625 15.234375 
Q 46.140625 10.84375 43.578125 6.953125 
Q 41.015625 3.078125 36.171875 0.953125 
Q 31.34375 -1.171875 25.25 -1.171875 
Q 15.140625 -1.171875 9.84375 3.03125 
Q 4.546875 7.234375 3.078125 15.484375 
z
" id="ArialMT-115"/>
     </defs>
     <g style="fill:#262626;" transform="translate(395.330312 601.598438)scale(0.24 -0.24)">
      <use xlink:href="#ArialMT-84"/>
      <use x="60.912109" xlink:href="#ArialMT-97"/>
      <use x="116.527344" xlink:href="#ArialMT-114"/>
      <use x="149.828125" xlink:href="#ArialMT-103"/>
      <use x="205.443359" xlink:href="#ArialMT-101"/>
      <use x="261.058594" xlink:href="#ArialMT-116"/>
      <use x="288.841797" xlink:href="#ArialMT-95"/>
      <use x="344.457031" xlink:href="#ArialMT-80"/>
      <use x="411.15625" xlink:href="#ArialMT-114"/>
      <use x="444.457031" xlink:href="#ArialMT-111"/>
      <use x="500.072266" xlink:href="#ArialMT-116"/>
      <use x="527.855469" xlink:href="#ArialMT-111"/>
      <use x="583.470703" xlink:href="#ArialMT-110"/>
      <use x="639.085938" xlink:href="#ArialMT-115"/>
     </g>
    </g>
   </g>
   <g id="matplotlib.axis_2">
    <g id="ytick_1">
     <g id="text_8">
      <!-- 0.00 -->
      <defs>
       <path d="M 9.078125 0 
L 9.078125 10.015625 
L 19.09375 10.015625 
L 19.09375 0 
z
" id="ArialMT-46"/>
      </defs>
      <g style="fill:#262626;" transform="translate(7.2 558.673594)scale(0.22 -0.22)">
       <use xlink:href="#ArialMT-48"/>
       <use x="55.615234" xlink:href="#ArialMT-46"/>
       <use x="83.398438" xlink:href="#ArialMT-48"/>
       <use x="139.013672" xlink:href="#ArialMT-48"/>
      </g>
     </g>
    </g>
    <g id="ytick_2">
     <g id="text_9">
      <!-- 0.01 -->
      <g style="fill:#262626;" transform="translate(7.2 461.767133)scale(0.22 -0.22)">
       <use xlink:href="#ArialMT-48"/>
       <use x="55.615234" xlink:href="#ArialMT-46"/>
       <use x="83.398438" xlink:href="#ArialMT-48"/>
       <use x="139.013672" xlink:href="#ArialMT-49"/>
      </g>
     </g>
    </g>
    <g id="ytick_3">
     <g id="text_10">
      <!-- 0.02 -->
      <g style="fill:#262626;" transform="translate(7.2 364.860673)scale(0.22 -0.22)">
       <use xlink:href="#ArialMT-48"/>
       <use x="55.615234" xlink:href="#ArialMT-46"/>
       <use x="83.398438" xlink:href="#ArialMT-48"/>
       <use x="139.013672" xlink:href="#ArialMT-50"/>
      </g>
     </g>
    </g>
    <g id="ytick_4">
     <g id="text_11">
      <!-- 0.03 -->
      <defs>
       <path d="M 4.203125 18.890625 
L 12.984375 20.0625 
Q 14.5 12.59375 18.140625 9.296875 
Q 21.78125 6 27 6 
Q 33.203125 6 37.46875 10.296875 
Q 41.75 14.59375 41.75 20.953125 
Q 41.75 27 37.796875 30.921875 
Q 33.84375 34.859375 27.734375 34.859375 
Q 25.25 34.859375 21.53125 33.890625 
L 22.515625 41.609375 
Q 23.390625 41.5 23.921875 41.5 
Q 29.546875 41.5 34.03125 44.421875 
Q 38.53125 47.359375 38.53125 53.46875 
Q 38.53125 58.296875 35.25 61.46875 
Q 31.984375 64.65625 26.8125 64.65625 
Q 21.6875 64.65625 18.265625 61.421875 
Q 14.84375 58.203125 13.875 51.765625 
L 5.078125 53.328125 
Q 6.6875 62.15625 12.390625 67.015625 
Q 18.109375 71.875 26.609375 71.875 
Q 32.46875 71.875 37.390625 69.359375 
Q 42.328125 66.84375 44.9375 62.5 
Q 47.5625 58.15625 47.5625 53.265625 
Q 47.5625 48.640625 45.0625 44.828125 
Q 42.578125 41.015625 37.703125 38.765625 
Q 44.046875 37.3125 47.5625 32.6875 
Q 51.078125 28.078125 51.078125 21.140625 
Q 51.078125 11.765625 44.234375 5.25 
Q 37.40625 -1.265625 26.953125 -1.265625 
Q 17.53125 -1.265625 11.296875 4.34375 
Q 5.078125 9.96875 4.203125 18.890625 
z
" id="ArialMT-51"/>
      </defs>
      <g style="fill:#262626;" transform="translate(7.2 267.954213)scale(0.22 -0.22)">
       <use xlink:href="#ArialMT-48"/>
       <use x="55.615234" xlink:href="#ArialMT-46"/>
       <use x="83.398438" xlink:href="#ArialMT-48"/>
       <use x="139.013672" xlink:href="#ArialMT-51"/>
      </g>
     </g>
    </g>
    <g id="ytick_5">
     <g id="text_12">
      <!-- 0.04 -->
      <g style="fill:#262626;" transform="translate(7.2 171.047753)scale(0.22 -0.22)">
       <use xlink:href="#ArialMT-48"/>
       <use x="55.615234" xlink:href="#ArialMT-46"/>
       <use x="83.398438" xlink:href="#ArialMT-48"/>
       <use x="139.013672" xlink:href="#ArialMT-52"/>
      </g>
     </g>
    </g>
    <g id="ytick_6">
     <g id="text_13">
      <!-- 0.05 -->
      <defs>
       <path d="M 4.15625 18.75 
L 13.375 19.53125 
Q 14.40625 12.796875 18.140625 9.390625 
Q 21.875 6 27.15625 6 
Q 33.5 6 37.890625 10.78125 
Q 42.28125 15.578125 42.28125 23.484375 
Q 42.28125 31 38.0625 35.34375 
Q 33.84375 39.703125 27 39.703125 
Q 22.75 39.703125 19.328125 37.765625 
Q 15.921875 35.84375 13.96875 32.765625 
L 5.71875 33.84375 
L 12.640625 70.609375 
L 48.25 70.609375 
L 48.25 62.203125 
L 19.671875 62.203125 
L 15.828125 42.96875 
Q 22.265625 47.46875 29.34375 47.46875 
Q 38.71875 47.46875 45.15625 40.96875 
Q 51.609375 34.46875 51.609375 24.265625 
Q 51.609375 14.546875 45.953125 7.46875 
Q 39.0625 -1.21875 27.15625 -1.21875 
Q 17.390625 -1.21875 11.203125 4.25 
Q 5.03125 9.71875 4.15625 18.75 
z
" id="ArialMT-53"/>
      </defs>
      <g style="fill:#262626;" transform="translate(7.2 74.141292)scale(0.22 -0.22)">
       <use xlink:href="#ArialMT-48"/>
       <use x="55.615234" xlink:href="#ArialMT-46"/>
       <use x="83.398438" xlink:href="#ArialMT-48"/>
       <use x="139.013672" xlink:href="#ArialMT-53"/>
      </g>
     </g>
    </g>
   </g>
   <g id="PolyCollection_1">
    <defs>
     <path d="M 97.559517 -63.138802 
L 97.559517 -63.049688 
L 103.550927 -63.049688 
L 109.542337 -63.049688 
L 115.533748 -63.049688 
L 121.525158 -63.049688 
L 127.516568 -63.049688 
L 133.507978 -63.049688 
L 139.499388 -63.049688 
L 145.490798 -63.049688 
L 151.482209 -63.049688 
L 157.473619 -63.049688 
L 163.465029 -63.049688 
L 169.456439 -63.049688 
L 175.447849 -63.049688 
L 181.439259 -63.049688 
L 187.43067 -63.049688 
L 193.42208 -63.049688 
L 199.41349 -63.049688 
L 205.4049 -63.049688 
L 211.39631 -63.049688 
L 217.38772 -63.049688 
L 223.379131 -63.049688 
L 229.370541 -63.049688 
L 235.361951 -63.049688 
L 241.353361 -63.049688 
L 247.344771 -63.049688 
L 253.336181 -63.049688 
L 259.327591 -63.049688 
L 265.319002 -63.049688 
L 271.310412 -63.049688 
L 277.301822 -63.049688 
L 283.293232 -63.049688 
L 289.284642 -63.049688 
L 295.276052 -63.049688 
L 301.267463 -63.049688 
L 307.258873 -63.049688 
L 313.250283 -63.049688 
L 319.241693 -63.049688 
L 325.233103 -63.049688 
L 331.224513 -63.049688 
L 337.215924 -63.049688 
L 343.207334 -63.049688 
L 349.198744 -63.049688 
L 355.190154 -63.049688 
L 361.181564 -63.049688 
L 367.172974 -63.049688 
L 373.164385 -63.049688 
L 379.155795 -63.049688 
L 385.147205 -63.049688 
L 391.138615 -63.049688 
L 397.130025 -63.049688 
L 403.121435 -63.049688 
L 409.112846 -63.049688 
L 415.104256 -63.049688 
L 421.095666 -63.049688 
L 427.087076 -63.049688 
L 433.078486 -63.049688 
L 439.069896 -63.049688 
L 445.061307 -63.049688 
L 451.052717 -63.049688 
L 457.044127 -63.049688 
L 463.035537 -63.049688 
L 469.026947 -63.049688 
L 475.018357 -63.049688 
L 481.009768 -63.049688 
L 487.001178 -63.049688 
L 492.992588 -63.049688 
L 498.983998 -63.049688 
L 504.975408 -63.049688 
L 510.966818 -63.049688 
L 516.958229 -63.049688 
L 522.949639 -63.049688 
L 528.941049 -63.049688 
L 534.932459 -63.049688 
L 540.923869 -63.049688 
L 546.915279 -63.049688 
L 552.90669 -63.049688 
L 558.8981 -63.049688 
L 564.88951 -63.049688 
L 570.88092 -63.049688 
L 576.87233 -63.049688 
L 582.86374 -63.049688 
L 588.855151 -63.049688 
L 594.846561 -63.049688 
L 600.837971 -63.049688 
L 606.829381 -63.049688 
L 612.820791 -63.049688 
L 618.812201 -63.049688 
L 624.803612 -63.049688 
L 630.795022 -63.049688 
L 636.786432 -63.049688 
L 642.777842 -63.049688 
L 648.769252 -63.049688 
L 654.760662 -63.049688 
L 660.752073 -63.049688 
L 666.743483 -63.049688 
L 672.734893 -63.049688 
L 678.726303 -63.049688 
L 684.717713 -63.049688 
L 690.709123 -63.049688 
L 696.700534 -63.049688 
L 702.691944 -63.049688 
L 708.683354 -63.049688 
L 714.674764 -63.049688 
L 720.666174 -63.049688 
L 726.657584 -63.049688 
L 732.648994 -63.049688 
L 738.640405 -63.049688 
L 744.631815 -63.049688 
L 750.623225 -63.049688 
L 756.614635 -63.049688 
L 762.606045 -63.049688 
L 768.597455 -63.049688 
L 774.588866 -63.049688 
L 780.580276 -63.049688 
L 786.571686 -63.049688 
L 792.563096 -63.049688 
L 798.554506 -63.049688 
L 804.545916 -63.049688 
L 810.537327 -63.049688 
L 816.528737 -63.049688 
L 822.520147 -63.049688 
L 828.511557 -63.049688 
L 834.502967 -63.049688 
L 840.494377 -63.049688 
L 846.485788 -63.049688 
L 852.477198 -63.049688 
L 858.468608 -63.049688 
L 858.468608 -63.09576 
L 858.468608 -63.09576 
L 852.477198 -63.217777 
L 846.485788 -63.768655 
L 840.494377 -65.524505 
L 834.502967 -69.899463 
L 828.511557 -78.711032 
L 822.520147 -94.166187 
L 816.528737 -120.550064 
L 810.537327 -166.582534 
L 804.545916 -242.508328 
L 798.554506 -348.664853 
L 792.563096 -465.002496 
L 786.571686 -554.737227 
L 780.580276 -580.763973 
L 774.588866 -525.529368 
L 768.597455 -406.832448 
L 762.606045 -272.383956 
L 756.614635 -167.140018 
L 750.623225 -105.996098 
L 744.631815 -78.666622 
L 738.640405 -70.280471 
L 732.648994 -73.429066 
L 726.657584 -88.740731 
L 720.666174 -119.296053 
L 714.674764 -161.64065 
L 708.683354 -199.933094 
L 702.691944 -213.430532 
L 696.700534 -194.465803 
L 690.709123 -156.479139 
L 684.717713 -121.458273 
L 678.726303 -102.740998 
L 672.734893 -100.604577 
L 666.743483 -108.196825 
L 660.752073 -118.253819 
L 654.760662 -126.762988 
L 648.769252 -132.578352 
L 642.777842 -134.541793 
L 636.786432 -130.687208 
L 630.795022 -120.734799 
L 624.803612 -107.852014 
L 618.812201 -96.689297 
L 612.820791 -89.863704 
L 606.829381 -86.905559 
L 600.837971 -86.022295 
L 594.846561 -86.014313 
L 588.855151 -86.958329 
L 582.86374 -89.986309 
L 576.87233 -96.420816 
L 570.88092 -106.541461 
L 564.88951 -118.878996 
L 558.8981 -130.363193 
L 552.90669 -136.719373 
L 546.915279 -134.105973 
L 540.923869 -122.736036 
L 534.932459 -108.247747 
L 528.941049 -97.41944 
L 522.949639 -93.020859 
L 516.958229 -93.663491 
L 510.966818 -97.238016 
L 504.975408 -103.133075 
L 498.983998 -111.434761 
L 492.992588 -120.777779 
L 487.001178 -127.514831 
L 481.009768 -127.607861 
L 475.018357 -120.017473 
L 469.026947 -108.162735 
L 463.035537 -97.233741 
L 457.044127 -90.061881 
L 451.052717 -86.181969 
L 445.061307 -84.270864 
L 439.069896 -84.638889 
L 433.078486 -89.770464 
L 427.087076 -102.636497 
L 421.095666 -123.220526 
L 415.104256 -145.568346 
L 409.112846 -159.672372 
L 403.121435 -159.120939 
L 397.130025 -146.750341 
L 391.138615 -130.809094 
L 385.147205 -117.013479 
L 379.155795 -106.421544 
L 373.164385 -98.843427 
L 367.172974 -95.345272 
L 361.181564 -98.081603 
L 355.190154 -109.961354 
L 349.198744 -134.750375 
L 343.207334 -175.437683 
L 337.215924 -230.46506 
L 331.224513 -291.490724 
L 325.233103 -345.961669 
L 319.241693 -382.039055 
L 313.250283 -391.215229 
L 307.258873 -370.448425 
L 301.267463 -326.470693 
L 295.276052 -274.537392 
L 289.284642 -228.413502 
L 283.293232 -193.989502 
L 277.301822 -171.69428 
L 271.310412 -158.949038 
L 265.319002 -150.548037 
L 259.327591 -142.119319 
L 253.336181 -134.724846 
L 247.344771 -134.270094 
L 241.353361 -145.987202 
L 235.361951 -169.163234 
L 229.370541 -195.260018 
L 223.379131 -211.112853 
L 217.38772 -207.31028 
L 211.39631 -185.446461 
L 205.4049 -156.494288 
L 199.41349 -132.599804 
L 193.42208 -120.9052 
L 187.43067 -122.250756 
L 181.439259 -132.452491 
L 175.447849 -144.727179 
L 169.456439 -152.740223 
L 163.465029 -153.370158 
L 157.473619 -147.342386 
L 151.482209 -136.762726 
L 145.490798 -122.847583 
L 139.499388 -106.867046 
L 133.507978 -91.418266 
L 127.516568 -79.138488 
L 121.525158 -71.009147 
L 115.533748 -66.442412 
L 109.542337 -64.267554 
L 103.550927 -63.408815 
L 97.559517 -63.138802 
z
" id="mcee4e9cd76" style="stroke:#ffffff;stroke-opacity:0.25;"/>
    </defs>
    <g clip-path="url(#p5185882262)">
     <use style="fill:#4c72b0;fill-opacity:0.25;stroke:#ffffff;stroke-opacity:0.25;" x="0" xlink:href="#mcee4e9cd76" y="613.849688"/>
    </g>
   </g>
   <g id="line2d_1">
    <path clip-path="url(#p5185882262)" d="M 97.559517 550.710885 
L 103.550927 550.440872 
L 109.542337 549.582134 
L 115.533748 547.407276 
L 121.525158 542.840541 
L 127.516568 534.7112 
L 133.507978 522.431422 
L 139.499388 506.982641 
L 145.490798 491.002104 
L 151.482209 477.086961 
L 157.473619 466.507301 
L 163.465029 460.479529 
L 169.456439 461.109465 
L 175.447849 469.122508 
L 181.439259 481.397197 
L 187.43067 491.598932 
L 193.42208 492.944487 
L 199.41349 481.249883 
L 205.4049 457.3554 
L 211.39631 428.403227 
L 217.38772 406.539408 
L 223.379131 402.736835 
L 229.370541 418.589669 
L 235.361951 444.686454 
L 241.353361 467.862486 
L 247.344771 479.579593 
L 253.336181 479.124842 
L 259.327591 471.730368 
L 271.310412 454.90065 
L 277.301822 442.155408 
L 283.293232 419.860185 
L 289.284642 385.436185 
L 295.276052 339.312295 
L 301.267463 287.378995 
L 307.258873 243.401263 
L 313.250283 222.634458 
L 319.241693 231.810633 
L 325.233103 267.888019 
L 331.224513 322.358964 
L 337.215924 383.384627 
L 343.207334 438.412005 
L 349.198744 479.099312 
L 355.190154 503.888334 
L 361.181564 515.768085 
L 367.172974 518.504415 
L 373.164385 515.00626 
L 379.155795 507.428143 
L 385.147205 496.836209 
L 391.138615 483.040593 
L 397.130025 467.099346 
L 403.121435 454.728749 
L 409.112846 454.177316 
L 415.104256 468.281341 
L 421.095666 490.629161 
L 427.087076 511.21319 
L 433.078486 524.079224 
L 439.069896 529.210799 
L 445.061307 529.578824 
L 451.052717 527.667719 
L 457.044127 523.787807 
L 463.035537 516.615947 
L 469.026947 505.686953 
L 475.018357 493.832215 
L 481.009768 486.241826 
L 487.001178 486.334857 
L 492.992588 493.071909 
L 498.983998 502.414927 
L 504.975408 510.716612 
L 510.966818 516.611671 
L 516.958229 520.186197 
L 522.949639 520.828829 
L 528.941049 516.430248 
L 534.932459 505.60194 
L 540.923869 491.113651 
L 546.915279 479.743715 
L 552.90669 477.130314 
L 558.8981 483.486494 
L 564.88951 494.970691 
L 570.88092 507.308227 
L 576.87233 517.428872 
L 582.86374 523.863378 
L 588.855151 526.891359 
L 594.846561 527.835375 
L 600.837971 527.827393 
L 606.829381 526.944129 
L 612.820791 523.985983 
L 618.812201 517.160391 
L 624.803612 505.997673 
L 630.795022 493.114888 
L 636.786432 483.162479 
L 642.777842 479.307895 
L 648.769252 481.271336 
L 654.760662 487.086699 
L 660.752073 495.595869 
L 666.743483 505.652862 
L 672.734893 513.24511 
L 678.726303 511.108689 
L 684.717713 492.391414 
L 690.709123 457.370548 
L 696.700534 419.383884 
L 702.691944 400.419156 
L 708.683354 413.916593 
L 714.674764 452.209038 
L 720.666174 494.553634 
L 726.657584 525.108957 
L 732.648994 540.420622 
L 738.640405 543.569216 
L 744.631815 535.183065 
L 750.623225 507.85359 
L 756.614635 446.709669 
L 762.606045 341.465732 
L 768.597455 207.017239 
L 774.588866 88.320319 
L 780.580276 33.085714 
L 786.571686 59.112461 
L 792.563096 148.847192 
L 798.554506 265.184834 
L 804.545916 371.34136 
L 810.537327 447.267154 
L 816.528737 493.299623 
L 822.520147 519.6835 
L 828.511557 535.138656 
L 834.502967 543.950224 
L 840.494377 548.325182 
L 846.485788 550.081032 
L 852.477198 550.63191 
L 858.468608 550.753927 
L 858.468608 550.753927 
" style="fill:none;stroke:#4c72b0;stroke-linecap:round;stroke-width:1.5;"/>
   </g>
   <g id="patch_3">
    <path d="M 59.514063 550.8 
L 59.514063 7.2 
" style="fill:none;stroke:#262626;stroke-linecap:square;stroke-linejoin:miter;stroke-width:1.25;"/>
   </g>
   <g id="patch_4">
    <path d="M 896.514063 550.8 
L 896.514063 7.2 
" style="fill:none;stroke:#262626;stroke-linecap:square;stroke-linejoin:miter;stroke-width:1.25;"/>
   </g>
   <g id="patch_5">
    <path d="M 59.514063 550.8 
L 896.514062 550.8 
" style="fill:none;stroke:#262626;stroke-linecap:square;stroke-linejoin:miter;stroke-width:1.25;"/>
   </g>
   <g id="patch_6">
    <path d="M 59.514063 7.2 
L 896.514062 7.2 
" style="fill:none;stroke:#262626;stroke-linecap:square;stroke-linejoin:miter;stroke-width:1.25;"/>
   </g>
   <g id="legend_1">
    <g id="patch_7">
     <path d="M 74.914063 56.1775 
L 296.900938 56.1775 
Q 301.300938 56.1775 301.300938 51.7775 
L 301.300938 22.6 
Q 301.300938 18.2 296.900938 18.2 
L 74.914063 18.2 
Q 70.514063 18.2 70.514063 22.6 
L 70.514063 51.7775 
Q 70.514063 56.1775 74.914063 56.1775 
z
" style="fill:#ffffff;opacity:0.8;stroke:#cccccc;stroke-linejoin:miter;"/>
    </g>
    <g id="line2d_2">
     <path d="M 79.314063 35.047187 
L 123.314063 35.047187 
" style="fill:none;stroke:#4c72b0;stroke-linecap:round;stroke-width:1.5;"/>
    </g>
    <g id="line2d_3"/>
    <g id="text_14">
     <!-- Target_Protons -->
     <g style="fill:#262626;" transform="translate(140.914063 42.747187)scale(0.22 -0.22)">
      <use xlink:href="#ArialMT-84"/>
      <use x="60.912109" xlink:href="#ArialMT-97"/>
      <use x="116.527344" xlink:href="#ArialMT-114"/>
      <use x="149.828125" xlink:href="#ArialMT-103"/>
      <use x="205.443359" xlink:href="#ArialMT-101"/>
      <use x="261.058594" xlink:href="#ArialMT-116"/>
      <use x="288.841797" xlink:href="#ArialMT-95"/>
      <use x="344.457031" xlink:href="#ArialMT-80"/>
      <use x="411.15625" xlink:href="#ArialMT-114"/>
      <use x="444.457031" xlink:href="#ArialMT-111"/>
      <use x="500.072266" xlink:href="#ArialMT-116"/>
      <use x="527.855469" xlink:href="#ArialMT-111"/>
      <use x="583.470703" xlink:href="#ArialMT-110"/>
      <use x="639.085938" xlink:href="#ArialMT-115"/>
     </g>
    </g>
   </g>
  </g>
 </g>
 <defs>
  <clipPath id="p5185882262">
   <rect height="543.6" width="837" x="59.514063" y="7.2"/>
  </clipPath>
 </defs>
</svg>
