<?xml version="1.0" encoding="utf-8" standalone="no"?>
<!DOCTYPE svg PUBLIC "-//W3C//DTD SVG 1.1//EN"
  "http://www.w3.org/Graphics/SVG/1.1/DTD/svg11.dtd">
<!-- Created with matplotlib (https://matplotlib.org/) -->
<svg height="613.849688pt" version="1.1" viewBox="0 0 915.948125 613.849688" width="915.948125pt" xmlns="http://www.w3.org/2000/svg" xmlns:xlink="http://www.w3.org/1999/xlink">
 <defs>
  <style type="text/css">
*{stroke-linecap:butt;stroke-linejoin:round;}
  </style>
 </defs>
 <g id="figure_1">
  <g id="patch_1">
   <path d="M 0 613.849688 
L 915.948125 613.849688 
L 915.948125 0 
L 0 0 
z
" style="fill:#ffffff;"/>
  </g>
  <g id="axes_1">
   <g id="patch_2">
    <path d="M 71.748125 550.8 
L 908.748125 550.8 
L 908.748125 7.2 
L 71.748125 7.2 
z
" style="fill:#ffffff;"/>
   </g>
   <g id="matplotlib.axis_1">
    <g id="xtick_1">
     <g id="text_1">
      <!-- 0 -->
      <defs>
       <path d="M 4.15625 35.296875 
Q 4.15625 48 6.765625 55.734375 
Q 9.375 63.484375 14.515625 67.671875 
Q 19.671875 71.875 27.484375 71.875 
Q 33.25 71.875 37.59375 69.546875 
Q 41.9375 67.234375 44.765625 62.859375 
Q 47.609375 58.5 49.21875 52.21875 
Q 50.828125 45.953125 50.828125 35.296875 
Q 50.828125 22.703125 48.234375 14.96875 
Q 45.65625 7.234375 40.5 3 
Q 35.359375 -1.21875 27.484375 -1.21875 
Q 17.140625 -1.21875 11.234375 6.203125 
Q 4.15625 15.140625 4.15625 35.296875 
z
M 13.1875 35.296875 
Q 13.1875 17.671875 17.3125 11.828125 
Q 21.4375 6 27.484375 6 
Q 33.546875 6 37.671875 11.859375 
Q 41.796875 17.71875 41.796875 35.296875 
Q 41.796875 52.984375 37.671875 58.78125 
Q 33.546875 64.59375 27.390625 64.59375 
Q 21.34375 64.59375 17.71875 59.46875 
Q 13.1875 52.9375 13.1875 35.296875 
z
" id="ArialMT-48"/>
      </defs>
      <g style="fill:#262626;" transform="translate(139.135567 576.047188)scale(0.22 -0.22)">
       <use xlink:href="#ArialMT-48"/>
      </g>
     </g>
    </g>
    <g id="xtick_2">
     <g id="text_2">
      <!-- 25 -->
      <defs>
       <path d="M 50.34375 8.453125 
L 50.34375 0 
L 3.03125 0 
Q 2.9375 3.171875 4.046875 6.109375 
Q 5.859375 10.9375 9.828125 15.625 
Q 13.8125 20.3125 21.34375 26.46875 
Q 33.015625 36.03125 37.109375 41.625 
Q 41.21875 47.21875 41.21875 52.203125 
Q 41.21875 57.421875 37.46875 61 
Q 33.734375 64.59375 27.734375 64.59375 
Q 21.390625 64.59375 17.578125 60.78125 
Q 13.765625 56.984375 13.71875 50.25 
L 4.6875 51.171875 
Q 5.609375 61.28125 11.65625 66.578125 
Q 17.71875 71.875 27.9375 71.875 
Q 38.234375 71.875 44.234375 66.15625 
Q 50.25 60.453125 50.25 52 
Q 50.25 47.703125 48.484375 43.546875 
Q 46.734375 39.40625 42.65625 34.8125 
Q 38.578125 30.21875 29.109375 22.21875 
Q 21.1875 15.578125 18.9375 13.203125 
Q 16.703125 10.84375 15.234375 8.453125 
z
" id="ArialMT-50"/>
       <path d="M 4.15625 18.75 
L 13.375 19.53125 
Q 14.40625 12.796875 18.140625 9.390625 
Q 21.875 6 27.15625 6 
Q 33.5 6 37.890625 10.78125 
Q 42.28125 15.578125 42.28125 23.484375 
Q 42.28125 31 38.0625 35.34375 
Q 33.84375 39.703125 27 39.703125 
Q 22.75 39.703125 19.328125 37.765625 
Q 15.921875 35.84375 13.96875 32.765625 
L 5.71875 33.84375 
L 12.640625 70.609375 
L 48.25 70.609375 
L 48.25 62.203125 
L 19.671875 62.203125 
L 15.828125 42.96875 
Q 22.265625 47.46875 29.34375 47.46875 
Q 38.71875 47.46875 45.15625 40.96875 
Q 51.609375 34.46875 51.609375 24.265625 
Q 51.609375 14.546875 45.953125 7.46875 
Q 39.0625 -1.21875 27.15625 -1.21875 
Q 17.390625 -1.21875 11.203125 4.25 
Q 5.03125 9.71875 4.15625 18.75 
z
" id="ArialMT-53"/>
      </defs>
      <g style="fill:#262626;" transform="translate(243.594025 576.047188)scale(0.22 -0.22)">
       <use xlink:href="#ArialMT-50"/>
       <use x="55.615234" xlink:href="#ArialMT-53"/>
      </g>
     </g>
    </g>
    <g id="xtick_3">
     <g id="text_3">
      <!-- 50 -->
      <g style="fill:#262626;" transform="translate(354.169514 576.047188)scale(0.22 -0.22)">
       <use xlink:href="#ArialMT-53"/>
       <use x="55.615234" xlink:href="#ArialMT-48"/>
      </g>
     </g>
    </g>
    <g id="xtick_4">
     <g id="text_4">
      <!-- 75 -->
      <defs>
       <path d="M 4.734375 62.203125 
L 4.734375 70.65625 
L 51.078125 70.65625 
L 51.078125 63.8125 
Q 44.234375 56.546875 37.515625 44.484375 
Q 30.8125 32.421875 27.15625 19.671875 
Q 24.515625 10.6875 23.78125 0 
L 14.75 0 
Q 14.890625 8.453125 18.0625 20.40625 
Q 21.234375 32.375 27.171875 43.484375 
Q 33.109375 54.59375 39.796875 62.203125 
z
" id="ArialMT-55"/>
      </defs>
      <g style="fill:#262626;" transform="translate(464.745004 576.047188)scale(0.22 -0.22)">
       <use xlink:href="#ArialMT-55"/>
       <use x="55.615234" xlink:href="#ArialMT-53"/>
      </g>
     </g>
    </g>
    <g id="xtick_5">
     <g id="text_5">
      <!-- 100 -->
      <defs>
       <path d="M 37.25 0 
L 28.46875 0 
L 28.46875 56 
Q 25.296875 52.984375 20.140625 49.953125 
Q 14.984375 46.921875 10.890625 45.40625 
L 10.890625 53.90625 
Q 18.265625 57.375 23.78125 62.296875 
Q 29.296875 67.234375 31.59375 71.875 
L 37.25 71.875 
z
" id="ArialMT-49"/>
      </defs>
      <g style="fill:#262626;" transform="translate(569.203462 576.047188)scale(0.22 -0.22)">
       <use xlink:href="#ArialMT-49"/>
       <use x="55.615234" xlink:href="#ArialMT-48"/>
       <use x="111.230469" xlink:href="#ArialMT-48"/>
      </g>
     </g>
    </g>
    <g id="xtick_6">
     <g id="text_6">
      <!-- 125 -->
      <g style="fill:#262626;" transform="translate(679.778951 576.047188)scale(0.22 -0.22)">
       <use xlink:href="#ArialMT-49"/>
       <use x="55.615234" xlink:href="#ArialMT-50"/>
       <use x="111.230469" xlink:href="#ArialMT-53"/>
      </g>
     </g>
    </g>
    <g id="xtick_7">
     <g id="text_7">
      <!-- 150 -->
      <g style="fill:#262626;" transform="translate(790.354441 576.047188)scale(0.22 -0.22)">
       <use xlink:href="#ArialMT-49"/>
       <use x="55.615234" xlink:href="#ArialMT-53"/>
       <use x="111.230469" xlink:href="#ArialMT-48"/>
      </g>
     </g>
    </g>
    <g id="text_8">
     <!-- Target_Neutrons -->
     <defs>
      <path d="M 25.921875 0 
L 25.921875 63.140625 
L 2.34375 63.140625 
L 2.34375 71.578125 
L 59.078125 71.578125 
L 59.078125 63.140625 
L 35.40625 63.140625 
L 35.40625 0 
z
" id="ArialMT-84"/>
      <path d="M 40.4375 6.390625 
Q 35.546875 2.25 31.03125 0.53125 
Q 26.515625 -1.171875 21.34375 -1.171875 
Q 12.796875 -1.171875 8.203125 3 
Q 3.609375 7.171875 3.609375 13.671875 
Q 3.609375 17.484375 5.34375 20.625 
Q 7.078125 23.78125 9.890625 25.6875 
Q 12.703125 27.59375 16.21875 28.5625 
Q 18.796875 29.25 24.03125 29.890625 
Q 34.671875 31.15625 39.703125 32.90625 
Q 39.75 34.71875 39.75 35.203125 
Q 39.75 40.578125 37.25 42.78125 
Q 33.890625 45.75 27.25 45.75 
Q 21.046875 45.75 18.09375 43.578125 
Q 15.140625 41.40625 13.71875 35.890625 
L 5.125 37.0625 
Q 6.296875 42.578125 8.984375 45.96875 
Q 11.671875 49.359375 16.75 51.1875 
Q 21.828125 53.03125 28.515625 53.03125 
Q 35.15625 53.03125 39.296875 51.46875 
Q 43.453125 49.90625 45.40625 47.53125 
Q 47.359375 45.171875 48.140625 41.546875 
Q 48.578125 39.3125 48.578125 33.453125 
L 48.578125 21.734375 
Q 48.578125 9.46875 49.140625 6.21875 
Q 49.703125 2.984375 51.375 0 
L 42.1875 0 
Q 40.828125 2.734375 40.4375 6.390625 
z
M 39.703125 26.03125 
Q 34.90625 24.078125 25.34375 22.703125 
Q 19.921875 21.921875 17.671875 20.9375 
Q 15.4375 19.96875 14.203125 18.09375 
Q 12.984375 16.21875 12.984375 13.921875 
Q 12.984375 10.40625 15.640625 8.0625 
Q 18.3125 5.71875 23.4375 5.71875 
Q 28.515625 5.71875 32.46875 7.9375 
Q 36.421875 10.15625 38.28125 14.015625 
Q 39.703125 17 39.703125 22.796875 
z
" id="ArialMT-97"/>
      <path d="M 6.5 0 
L 6.5 51.859375 
L 14.40625 51.859375 
L 14.40625 44 
Q 17.4375 49.515625 20 51.265625 
Q 22.5625 53.03125 25.640625 53.03125 
Q 30.078125 53.03125 34.671875 50.203125 
L 31.640625 42.046875 
Q 28.421875 43.953125 25.203125 43.953125 
Q 22.3125 43.953125 20.015625 42.21875 
Q 17.71875 40.484375 16.75 37.40625 
Q 15.28125 32.71875 15.28125 27.15625 
L 15.28125 0 
z
" id="ArialMT-114"/>
      <path d="M 4.984375 -4.296875 
L 13.53125 -5.5625 
Q 14.0625 -9.515625 16.5 -11.328125 
Q 19.78125 -13.765625 25.4375 -13.765625 
Q 31.546875 -13.765625 34.859375 -11.328125 
Q 38.1875 -8.890625 39.359375 -4.5 
Q 40.046875 -1.8125 39.984375 6.78125 
Q 34.234375 0 25.640625 0 
Q 14.9375 0 9.078125 7.71875 
Q 3.21875 15.4375 3.21875 26.21875 
Q 3.21875 33.640625 5.90625 39.90625 
Q 8.59375 46.1875 13.6875 49.609375 
Q 18.796875 53.03125 25.6875 53.03125 
Q 34.859375 53.03125 40.828125 45.609375 
L 40.828125 51.859375 
L 48.921875 51.859375 
L 48.921875 7.03125 
Q 48.921875 -5.078125 46.453125 -10.125 
Q 44 -15.1875 38.640625 -18.109375 
Q 33.296875 -21.046875 25.484375 -21.046875 
Q 16.21875 -21.046875 10.5 -16.875 
Q 4.78125 -12.703125 4.984375 -4.296875 
z
M 12.25 26.859375 
Q 12.25 16.65625 16.296875 11.96875 
Q 20.359375 7.28125 26.46875 7.28125 
Q 32.515625 7.28125 36.609375 11.9375 
Q 40.71875 16.609375 40.71875 26.5625 
Q 40.71875 36.078125 36.5 40.90625 
Q 32.28125 45.75 26.3125 45.75 
Q 20.453125 45.75 16.34375 40.984375 
Q 12.25 36.234375 12.25 26.859375 
z
" id="ArialMT-103"/>
      <path d="M 42.09375 16.703125 
L 51.171875 15.578125 
Q 49.03125 7.625 43.21875 3.21875 
Q 37.40625 -1.171875 28.375 -1.171875 
Q 17 -1.171875 10.328125 5.828125 
Q 3.65625 12.84375 3.65625 25.484375 
Q 3.65625 38.578125 10.390625 45.796875 
Q 17.140625 53.03125 27.875 53.03125 
Q 38.28125 53.03125 44.875 45.953125 
Q 51.46875 38.875 51.46875 26.03125 
Q 51.46875 25.25 51.421875 23.6875 
L 12.75 23.6875 
Q 13.234375 15.140625 17.578125 10.59375 
Q 21.921875 6.0625 28.421875 6.0625 
Q 33.25 6.0625 36.671875 8.59375 
Q 40.09375 11.140625 42.09375 16.703125 
z
M 13.234375 30.90625 
L 42.1875 30.90625 
Q 41.609375 37.453125 38.875 40.71875 
Q 34.671875 45.796875 27.984375 45.796875 
Q 21.921875 45.796875 17.796875 41.75 
Q 13.671875 37.703125 13.234375 30.90625 
z
" id="ArialMT-101"/>
      <path d="M 25.78125 7.859375 
L 27.046875 0.09375 
Q 23.34375 -0.6875 20.40625 -0.6875 
Q 15.625 -0.6875 12.984375 0.828125 
Q 10.359375 2.34375 9.28125 4.8125 
Q 8.203125 7.28125 8.203125 15.1875 
L 8.203125 45.015625 
L 1.765625 45.015625 
L 1.765625 51.859375 
L 8.203125 51.859375 
L 8.203125 64.703125 
L 16.9375 69.96875 
L 16.9375 51.859375 
L 25.78125 51.859375 
L 25.78125 45.015625 
L 16.9375 45.015625 
L 16.9375 14.703125 
Q 16.9375 10.9375 17.40625 9.859375 
Q 17.875 8.796875 18.921875 8.15625 
Q 19.96875 7.515625 21.921875 7.515625 
Q 23.390625 7.515625 25.78125 7.859375 
z
" id="ArialMT-116"/>
      <path d="M -1.515625 -19.875 
L -1.515625 -13.53125 
L 56.734375 -13.53125 
L 56.734375 -19.875 
z
" id="ArialMT-95"/>
      <path d="M 7.625 0 
L 7.625 71.578125 
L 17.328125 71.578125 
L 54.9375 15.375 
L 54.9375 71.578125 
L 64.015625 71.578125 
L 64.015625 0 
L 54.296875 0 
L 16.703125 56.25 
L 16.703125 0 
z
" id="ArialMT-78"/>
      <path d="M 40.578125 0 
L 40.578125 7.625 
Q 34.515625 -1.171875 24.125 -1.171875 
Q 19.53125 -1.171875 15.546875 0.578125 
Q 11.578125 2.34375 9.640625 5 
Q 7.71875 7.671875 6.9375 11.53125 
Q 6.390625 14.109375 6.390625 19.734375 
L 6.390625 51.859375 
L 15.1875 51.859375 
L 15.1875 23.09375 
Q 15.1875 16.21875 15.71875 13.8125 
Q 16.546875 10.359375 19.234375 8.375 
Q 21.921875 6.390625 25.875 6.390625 
Q 29.828125 6.390625 33.296875 8.421875 
Q 36.765625 10.453125 38.203125 13.9375 
Q 39.65625 17.4375 39.65625 24.078125 
L 39.65625 51.859375 
L 48.4375 51.859375 
L 48.4375 0 
z
" id="ArialMT-117"/>
      <path d="M 3.328125 25.921875 
Q 3.328125 40.328125 11.328125 47.265625 
Q 18.015625 53.03125 27.640625 53.03125 
Q 38.328125 53.03125 45.109375 46.015625 
Q 51.90625 39.015625 51.90625 26.65625 
Q 51.90625 16.65625 48.90625 10.90625 
Q 45.90625 5.171875 40.15625 2 
Q 34.421875 -1.171875 27.640625 -1.171875 
Q 16.75 -1.171875 10.03125 5.8125 
Q 3.328125 12.796875 3.328125 25.921875 
z
M 12.359375 25.921875 
Q 12.359375 15.96875 16.703125 11.015625 
Q 21.046875 6.0625 27.640625 6.0625 
Q 34.1875 6.0625 38.53125 11.03125 
Q 42.875 16.015625 42.875 26.21875 
Q 42.875 35.84375 38.5 40.796875 
Q 34.125 45.75 27.640625 45.75 
Q 21.046875 45.75 16.703125 40.8125 
Q 12.359375 35.890625 12.359375 25.921875 
z
" id="ArialMT-111"/>
      <path d="M 6.59375 0 
L 6.59375 51.859375 
L 14.5 51.859375 
L 14.5 44.484375 
Q 20.21875 53.03125 31 53.03125 
Q 35.6875 53.03125 39.625 51.34375 
Q 43.5625 49.65625 45.515625 46.921875 
Q 47.46875 44.1875 48.25 40.4375 
Q 48.734375 37.984375 48.734375 31.890625 
L 48.734375 0 
L 39.9375 0 
L 39.9375 31.546875 
Q 39.9375 36.921875 38.90625 39.578125 
Q 37.890625 42.234375 35.28125 43.8125 
Q 32.671875 45.40625 29.15625 45.40625 
Q 23.53125 45.40625 19.453125 41.84375 
Q 15.375 38.28125 15.375 28.328125 
L 15.375 0 
z
" id="ArialMT-110"/>
      <path d="M 3.078125 15.484375 
L 11.765625 16.84375 
Q 12.5 11.625 15.84375 8.84375 
Q 19.1875 6.0625 25.203125 6.0625 
Q 31.25 6.0625 34.171875 8.515625 
Q 37.109375 10.984375 37.109375 14.3125 
Q 37.109375 17.28125 34.515625 19 
Q 32.71875 20.171875 25.53125 21.96875 
Q 15.875 24.421875 12.140625 26.203125 
Q 8.40625 27.984375 6.46875 31.125 
Q 4.546875 34.28125 4.546875 38.09375 
Q 4.546875 41.546875 6.125 44.5 
Q 7.71875 47.46875 10.453125 49.421875 
Q 12.5 50.921875 16.03125 51.96875 
Q 19.578125 53.03125 23.640625 53.03125 
Q 29.734375 53.03125 34.34375 51.265625 
Q 38.96875 49.515625 41.15625 46.5 
Q 43.359375 43.5 44.1875 38.484375 
L 35.59375 37.3125 
Q 35.015625 41.3125 32.203125 43.546875 
Q 29.390625 45.796875 24.265625 45.796875 
Q 18.21875 45.796875 15.625 43.796875 
Q 13.03125 41.796875 13.03125 39.109375 
Q 13.03125 37.40625 14.109375 36.03125 
Q 15.1875 34.625 17.484375 33.6875 
Q 18.796875 33.203125 25.25 31.453125 
Q 34.578125 28.953125 38.25 27.359375 
Q 41.9375 25.78125 44.03125 22.75 
Q 46.140625 19.734375 46.140625 15.234375 
Q 46.140625 10.84375 43.578125 6.953125 
Q 41.015625 3.078125 36.171875 0.953125 
Q 31.34375 -1.171875 25.25 -1.171875 
Q 15.140625 -1.171875 9.84375 3.03125 
Q 4.546875 7.234375 3.078125 15.484375 
z
" id="ArialMT-115"/>
     </defs>
     <g style="fill:#262626;" transform="translate(400.229375 601.598438)scale(0.24 -0.24)">
      <use xlink:href="#ArialMT-84"/>
      <use x="60.912109" xlink:href="#ArialMT-97"/>
      <use x="116.527344" xlink:href="#ArialMT-114"/>
      <use x="149.828125" xlink:href="#ArialMT-103"/>
      <use x="205.443359" xlink:href="#ArialMT-101"/>
      <use x="261.058594" xlink:href="#ArialMT-116"/>
      <use x="288.841797" xlink:href="#ArialMT-95"/>
      <use x="344.457031" xlink:href="#ArialMT-78"/>
      <use x="416.673828" xlink:href="#ArialMT-101"/>
      <use x="472.289062" xlink:href="#ArialMT-117"/>
      <use x="527.904297" xlink:href="#ArialMT-116"/>
      <use x="555.6875" xlink:href="#ArialMT-114"/>
      <use x="588.988281" xlink:href="#ArialMT-111"/>
      <use x="644.603516" xlink:href="#ArialMT-110"/>
      <use x="700.21875" xlink:href="#ArialMT-115"/>
     </g>
    </g>
   </g>
   <g id="matplotlib.axis_2">
    <g id="ytick_1">
     <g id="text_9">
      <!-- 0.000 -->
      <defs>
       <path d="M 9.078125 0 
L 9.078125 10.015625 
L 19.09375 10.015625 
L 19.09375 0 
z
" id="ArialMT-46"/>
      </defs>
      <g style="fill:#262626;" transform="translate(7.2 558.673594)scale(0.22 -0.22)">
       <use xlink:href="#ArialMT-48"/>
       <use x="55.615234" xlink:href="#ArialMT-46"/>
       <use x="83.398438" xlink:href="#ArialMT-48"/>
       <use x="139.013672" xlink:href="#ArialMT-48"/>
       <use x="194.628906" xlink:href="#ArialMT-48"/>
      </g>
     </g>
    </g>
    <g id="ytick_2">
     <g id="text_10">
      <!-- 0.005 -->
      <g style="fill:#262626;" transform="translate(7.2 477.405588)scale(0.22 -0.22)">
       <use xlink:href="#ArialMT-48"/>
       <use x="55.615234" xlink:href="#ArialMT-46"/>
       <use x="83.398438" xlink:href="#ArialMT-48"/>
       <use x="139.013672" xlink:href="#ArialMT-48"/>
       <use x="194.628906" xlink:href="#ArialMT-53"/>
      </g>
     </g>
    </g>
    <g id="ytick_3">
     <g id="text_11">
      <!-- 0.010 -->
      <g style="fill:#262626;" transform="translate(7.2 396.137582)scale(0.22 -0.22)">
       <use xlink:href="#ArialMT-48"/>
       <use x="55.615234" xlink:href="#ArialMT-46"/>
       <use x="83.398438" xlink:href="#ArialMT-48"/>
       <use x="139.013672" xlink:href="#ArialMT-49"/>
       <use x="194.628906" xlink:href="#ArialMT-48"/>
      </g>
     </g>
    </g>
    <g id="ytick_4">
     <g id="text_12">
      <!-- 0.015 -->
      <g style="fill:#262626;" transform="translate(7.2 314.869577)scale(0.22 -0.22)">
       <use xlink:href="#ArialMT-48"/>
       <use x="55.615234" xlink:href="#ArialMT-46"/>
       <use x="83.398438" xlink:href="#ArialMT-48"/>
       <use x="139.013672" xlink:href="#ArialMT-49"/>
       <use x="194.628906" xlink:href="#ArialMT-53"/>
      </g>
     </g>
    </g>
    <g id="ytick_5">
     <g id="text_13">
      <!-- 0.020 -->
      <g style="fill:#262626;" transform="translate(7.2 233.601571)scale(0.22 -0.22)">
       <use xlink:href="#ArialMT-48"/>
       <use x="55.615234" xlink:href="#ArialMT-46"/>
       <use x="83.398438" xlink:href="#ArialMT-48"/>
       <use x="139.013672" xlink:href="#ArialMT-50"/>
       <use x="194.628906" xlink:href="#ArialMT-48"/>
      </g>
     </g>
    </g>
    <g id="ytick_6">
     <g id="text_14">
      <!-- 0.025 -->
      <g style="fill:#262626;" transform="translate(7.2 152.333566)scale(0.22 -0.22)">
       <use xlink:href="#ArialMT-48"/>
       <use x="55.615234" xlink:href="#ArialMT-46"/>
       <use x="83.398438" xlink:href="#ArialMT-48"/>
       <use x="139.013672" xlink:href="#ArialMT-50"/>
       <use x="194.628906" xlink:href="#ArialMT-53"/>
      </g>
     </g>
    </g>
    <g id="ytick_7">
     <g id="text_15">
      <!-- 0.030 -->
      <defs>
       <path d="M 4.203125 18.890625 
L 12.984375 20.0625 
Q 14.5 12.59375 18.140625 9.296875 
Q 21.78125 6 27 6 
Q 33.203125 6 37.46875 10.296875 
Q 41.75 14.59375 41.75 20.953125 
Q 41.75 27 37.796875 30.921875 
Q 33.84375 34.859375 27.734375 34.859375 
Q 25.25 34.859375 21.53125 33.890625 
L 22.515625 41.609375 
Q 23.390625 41.5 23.921875 41.5 
Q 29.546875 41.5 34.03125 44.421875 
Q 38.53125 47.359375 38.53125 53.46875 
Q 38.53125 58.296875 35.25 61.46875 
Q 31.984375 64.65625 26.8125 64.65625 
Q 21.6875 64.65625 18.265625 61.421875 
Q 14.84375 58.203125 13.875 51.765625 
L 5.078125 53.328125 
Q 6.6875 62.15625 12.390625 67.015625 
Q 18.109375 71.875 26.609375 71.875 
Q 32.46875 71.875 37.390625 69.359375 
Q 42.328125 66.84375 44.9375 62.5 
Q 47.5625 58.15625 47.5625 53.265625 
Q 47.5625 48.640625 45.0625 44.828125 
Q 42.578125 41.015625 37.703125 38.765625 
Q 44.046875 37.3125 47.5625 32.6875 
Q 51.078125 28.078125 51.078125 21.140625 
Q 51.078125 11.765625 44.234375 5.25 
Q 37.40625 -1.265625 26.953125 -1.265625 
Q 17.53125 -1.265625 11.296875 4.34375 
Q 5.078125 9.96875 4.203125 18.890625 
z
" id="ArialMT-51"/>
      </defs>
      <g style="fill:#262626;" transform="translate(7.2 71.06556)scale(0.22 -0.22)">
       <use xlink:href="#ArialMT-48"/>
       <use x="55.615234" xlink:href="#ArialMT-46"/>
       <use x="83.398438" xlink:href="#ArialMT-48"/>
       <use x="139.013672" xlink:href="#ArialMT-51"/>
       <use x="194.628906" xlink:href="#ArialMT-48"/>
      </g>
     </g>
    </g>
   </g>
   <g id="PolyCollection_1">
    <defs>
     <path d="M 109.79358 -63.129008 
L 109.79358 -63.049688 
L 115.78499 -63.049688 
L 121.7764 -63.049688 
L 127.76781 -63.049688 
L 133.75922 -63.049688 
L 139.75063 -63.049688 
L 145.742041 -63.049688 
L 151.733451 -63.049688 
L 157.724861 -63.049688 
L 163.716271 -63.049688 
L 169.707681 -63.049688 
L 175.699091 -63.049688 
L 181.690502 -63.049688 
L 187.681912 -63.049688 
L 193.673322 -63.049688 
L 199.664732 -63.049688 
L 205.656142 -63.049688 
L 211.647552 -63.049688 
L 217.638963 -63.049688 
L 223.630373 -63.049688 
L 229.621783 -63.049688 
L 235.613193 -63.049688 
L 241.604603 -63.049688 
L 247.596013 -63.049688 
L 253.587423 -63.049688 
L 259.578834 -63.049688 
L 265.570244 -63.049688 
L 271.561654 -63.049688 
L 277.553064 -63.049688 
L 283.544474 -63.049688 
L 289.535884 -63.049688 
L 295.527295 -63.049688 
L 301.518705 -63.049688 
L 307.510115 -63.049688 
L 313.501525 -63.049688 
L 319.492935 -63.049688 
L 325.484345 -63.049688 
L 331.475756 -63.049688 
L 337.467166 -63.049688 
L 343.458576 -63.049688 
L 349.449986 -63.049688 
L 355.441396 -63.049688 
L 361.432806 -63.049688 
L 367.424217 -63.049688 
L 373.415627 -63.049688 
L 379.407037 -63.049688 
L 385.398447 -63.049688 
L 391.389857 -63.049688 
L 397.381267 -63.049688 
L 403.372678 -63.049688 
L 409.364088 -63.049688 
L 415.355498 -63.049688 
L 421.346908 -63.049688 
L 427.338318 -63.049688 
L 433.329728 -63.049688 
L 439.321139 -63.049688 
L 445.312549 -63.049688 
L 451.303959 -63.049688 
L 457.295369 -63.049688 
L 463.286779 -63.049688 
L 469.278189 -63.049688 
L 475.2696 -63.049688 
L 481.26101 -63.049688 
L 487.25242 -63.049688 
L 493.24383 -63.049688 
L 499.23524 -63.049688 
L 505.22665 -63.049688 
L 511.218061 -63.049688 
L 517.209471 -63.049688 
L 523.200881 -63.049688 
L 529.192291 -63.049688 
L 535.183701 -63.049688 
L 541.175111 -63.049688 
L 547.166522 -63.049688 
L 553.157932 -63.049688 
L 559.149342 -63.049688 
L 565.140752 -63.049688 
L 571.132162 -63.049688 
L 577.123572 -63.049688 
L 583.114983 -63.049688 
L 589.106393 -63.049688 
L 595.097803 -63.049688 
L 601.089213 -63.049688 
L 607.080623 -63.049688 
L 613.072033 -63.049688 
L 619.063444 -63.049688 
L 625.054854 -63.049688 
L 631.046264 -63.049688 
L 637.037674 -63.049688 
L 643.029084 -63.049688 
L 649.020494 -63.049688 
L 655.011905 -63.049688 
L 661.003315 -63.049688 
L 666.994725 -63.049688 
L 672.986135 -63.049688 
L 678.977545 -63.049688 
L 684.968955 -63.049688 
L 690.960366 -63.049688 
L 696.951776 -63.049688 
L 702.943186 -63.049688 
L 708.934596 -63.049688 
L 714.926006 -63.049688 
L 720.917416 -63.049688 
L 726.908827 -63.049688 
L 732.900237 -63.049688 
L 738.891647 -63.049688 
L 744.883057 -63.049688 
L 750.874467 -63.049688 
L 756.865877 -63.049688 
L 762.857287 -63.049688 
L 768.848698 -63.049688 
L 774.840108 -63.049688 
L 780.831518 -63.049688 
L 786.822928 -63.049688 
L 792.814338 -63.049688 
L 798.805748 -63.049688 
L 804.797159 -63.049688 
L 810.788569 -63.049688 
L 816.779979 -63.049688 
L 822.771389 -63.049688 
L 828.762799 -63.049688 
L 834.754209 -63.049688 
L 840.74562 -63.049688 
L 846.73703 -63.049688 
L 852.72844 -63.049688 
L 858.71985 -63.049688 
L 864.71126 -63.049688 
L 870.70267 -63.049688 
L 870.70267 -63.06729 
L 870.70267 -63.06729 
L 864.71126 -63.069456 
L 858.71985 -63.138497 
L 852.72844 -63.427318 
L 846.73703 -64.410269 
L 840.74562 -67.16766 
L 834.754209 -73.517648 
L 828.762799 -85.754727 
L 822.771389 -106.765999 
L 816.779979 -142.011473 
L 810.788569 -201.416278 
L 804.797159 -293.789097 
L 798.805748 -411.65925 
L 792.814338 -521.924559 
L 786.822928 -580.763973 
L 780.831518 -563.988536 
L 774.840108 -481.952802 
L 768.848698 -367.287951 
L 762.857287 -254.039077 
L 756.865877 -165.174033 
L 750.874467 -108.707883 
L 744.883057 -79.915552 
L 738.891647 -68.572195 
L 732.900237 -66.545631 
L 726.908827 -71.410162 
L 720.917416 -85.891581 
L 714.926006 -113.676991 
L 708.934596 -152.368665 
L 702.943186 -189.238558 
L 696.951776 -207.220393 
L 690.960366 -198.002847 
L 684.968955 -168.494246 
L 678.977545 -134.163759 
L 672.986135 -107.79768 
L 666.994725 -94.259343 
L 661.003315 -92.414453 
L 655.011905 -98.711676 
L 649.020494 -108.862565 
L 643.029084 -118.871355 
L 637.037674 -126.410288 
L 631.046264 -130.814192 
L 625.054854 -131.579868 
L 619.063444 -127.805176 
L 613.072033 -119.366538 
L 607.080623 -108.193012 
L 601.089213 -97.898977 
L 595.097803 -91.518211 
L 589.106393 -89.275429 
L 583.114983 -88.859294 
L 577.123572 -87.962404 
L 571.132162 -86.242013 
L 565.140752 -84.948427 
L 559.149342 -85.494076 
L 553.157932 -88.731689 
L 547.166522 -94.69937 
L 541.175111 -102.341471 
L 535.183701 -110.165925 
L 529.192291 -117.681613 
L 523.200881 -125.220497 
L 517.209471 -131.743254 
L 511.218061 -134.220836 
L 505.22665 -130.800779 
L 499.23524 -123.895937 
L 493.24383 -118.141914 
L 487.25242 -115.420322 
L 481.26101 -113.996805 
L 475.2696 -112.509285 
L 469.278189 -112.062225 
L 463.286779 -113.366151 
L 457.295369 -113.974244 
L 451.303959 -110.2492 
L 445.312549 -101.558831 
L 439.321139 -91.2581 
L 433.329728 -83.595853 
L 427.338318 -80.531877 
L 421.346908 -81.298101 
L 415.355498 -83.843803 
L 409.364088 -86.483287 
L 403.372678 -89.173386 
L 397.381267 -94.234124 
L 391.389857 -105.794896 
L 385.398447 -126.822024 
L 379.407037 -154.32762 
L 373.415627 -177.567183 
L 367.424217 -184.279159 
L 361.432806 -170.967479 
L 355.441396 -145.887034 
L 349.449986 -121.540426 
L 343.458576 -106.033375 
L 337.467166 -101.078869 
L 331.475756 -104.86349 
L 325.484345 -115.23641 
L 319.492935 -131.581591 
L 313.501525 -155.381988 
L 307.510115 -189.996945 
L 301.518705 -239.924777 
L 295.527295 -307.43665 
L 289.535884 -384.638663 
L 283.544474 -447.573502 
L 277.553064 -465.827524 
L 271.561654 -426.606157 
L 265.570244 -348.317183 
L 259.578834 -266.093866 
L 253.587423 -205.758653 
L 247.596013 -172.659392 
L 241.604603 -159.328031 
L 235.613193 -158.176557 
L 229.621783 -167.533768 
L 223.630373 -188.497137 
L 217.638963 -217.196601 
L 211.647552 -241.113158 
L 205.656142 -245.989982 
L 199.664732 -228.89347 
L 193.673322 -202.895503 
L 187.681912 -185.851383 
L 181.690502 -184.415414 
L 175.699091 -189.789788 
L 169.707681 -187.78858 
L 163.716271 -171.554279 
L 157.724861 -145.177963 
L 151.733451 -117.627721 
L 145.742041 -95.406132 
L 139.75063 -80.306477 
L 133.75922 -71.254564 
L 127.76781 -66.44215 
L 121.7764 -64.233594 
L 115.78499 -63.389684 
L 109.79358 -63.129008 
z
" id="m7941f3fa7f" style="stroke:#ffffff;stroke-opacity:0.25;"/>
    </defs>
    <g clip-path="url(#p39f35a34ad)">
     <use style="fill:#4c72b0;fill-opacity:0.25;stroke:#ffffff;stroke-opacity:0.25;" x="0" xlink:href="#m7941f3fa7f" y="613.849688"/>
    </g>
   </g>
   <g id="line2d_1">
    <path clip-path="url(#p39f35a34ad)" d="M 109.79358 550.72068 
L 115.78499 550.460003 
L 121.7764 549.616094 
L 127.76781 547.407537 
L 133.75922 542.595124 
L 139.75063 533.543211 
L 145.742041 518.443555 
L 151.733451 496.221967 
L 157.724861 468.671725 
L 163.716271 442.295409 
L 169.707681 426.061108 
L 175.699091 424.0599 
L 181.690502 429.434273 
L 187.681912 427.998304 
L 193.673322 410.954185 
L 199.664732 384.956217 
L 205.656142 367.859705 
L 211.647552 372.736529 
L 217.638963 396.653087 
L 223.630373 425.35255 
L 229.621783 446.31592 
L 235.613193 455.673131 
L 241.604603 454.521656 
L 247.596013 441.190295 
L 253.587423 408.091035 
L 259.578834 347.755821 
L 265.570244 265.532504 
L 271.561654 187.24353 
L 277.553064 148.022163 
L 283.544474 166.276186 
L 289.535884 229.211025 
L 295.527295 306.413038 
L 301.518705 373.92491 
L 307.510115 423.852743 
L 313.501525 458.4677 
L 319.492935 482.268096 
L 325.484345 498.613277 
L 331.475756 508.986197 
L 337.467166 512.770819 
L 343.458576 507.816312 
L 349.449986 492.309261 
L 355.441396 467.962654 
L 361.432806 442.882209 
L 367.424217 429.570528 
L 373.415627 436.282505 
L 379.407037 459.522068 
L 385.398447 487.027664 
L 391.389857 508.054792 
L 397.381267 519.615563 
L 403.372678 524.676301 
L 415.355498 530.005884 
L 421.346908 532.551587 
L 427.338318 533.31781 
L 433.329728 530.253834 
L 439.321139 522.591587 
L 445.312549 512.290856 
L 451.303959 503.600488 
L 457.295369 499.875444 
L 463.286779 500.483536 
L 469.278189 501.787463 
L 475.2696 501.340403 
L 487.25242 498.429366 
L 493.24383 495.707774 
L 499.23524 489.953751 
L 505.22665 483.048909 
L 511.218061 479.628851 
L 517.209471 482.106433 
L 523.200881 488.62919 
L 535.183701 503.683763 
L 547.166522 519.150318 
L 553.157932 525.117999 
L 559.149342 528.355611 
L 565.140752 528.90126 
L 571.132162 527.607675 
L 577.123572 525.887283 
L 583.114983 524.990394 
L 589.106393 524.574258 
L 595.097803 522.331477 
L 601.089213 515.950711 
L 607.080623 505.656675 
L 613.072033 494.48315 
L 619.063444 486.044511 
L 625.054854 482.269819 
L 631.046264 483.035495 
L 637.037674 487.439399 
L 643.029084 494.978333 
L 655.011905 515.138012 
L 661.003315 521.435234 
L 666.994725 519.590344 
L 672.986135 506.052008 
L 678.977545 479.685928 
L 684.968955 445.355441 
L 690.960366 415.84684 
L 696.951776 406.629294 
L 702.943186 424.61113 
L 708.934596 461.481023 
L 714.926006 500.172696 
L 720.917416 527.958106 
L 726.908827 542.439526 
L 732.900237 547.304057 
L 738.891647 545.277492 
L 744.883057 533.934136 
L 750.874467 505.141805 
L 756.865877 448.675654 
L 762.857287 359.810611 
L 774.840108 131.896885 
L 780.831518 49.861151 
L 786.822928 33.085714 
L 792.814338 91.925129 
L 798.805748 202.190438 
L 804.797159 320.06059 
L 810.788569 412.43341 
L 816.779979 471.838214 
L 822.771389 507.083688 
L 828.762799 528.09496 
L 834.754209 540.332039 
L 840.74562 546.682027 
L 846.73703 549.439419 
L 852.72844 550.42237 
L 858.71985 550.711191 
L 870.70267 550.782398 
L 870.70267 550.782398 
" style="fill:none;stroke:#4c72b0;stroke-linecap:round;stroke-width:1.5;"/>
   </g>
   <g id="patch_3">
    <path d="M 71.748125 550.8 
L 71.748125 7.2 
" style="fill:none;stroke:#262626;stroke-linecap:square;stroke-linejoin:miter;stroke-width:1.25;"/>
   </g>
   <g id="patch_4">
    <path d="M 908.748125 550.8 
L 908.748125 7.2 
" style="fill:none;stroke:#262626;stroke-linecap:square;stroke-linejoin:miter;stroke-width:1.25;"/>
   </g>
   <g id="patch_5">
    <path d="M 71.748125 550.8 
L 908.748125 550.8 
" style="fill:none;stroke:#262626;stroke-linecap:square;stroke-linejoin:miter;stroke-width:1.25;"/>
   </g>
   <g id="patch_6">
    <path d="M 71.748125 7.2 
L 908.748125 7.2 
" style="fill:none;stroke:#262626;stroke-linecap:square;stroke-linejoin:miter;stroke-width:1.25;"/>
   </g>
   <g id="legend_1">
    <g id="patch_7">
     <path d="M 87.148125 56.1775 
L 322.5825 56.1775 
Q 326.9825 56.1775 326.9825 51.7775 
L 326.9825 22.6 
Q 326.9825 18.2 322.5825 18.2 
L 87.148125 18.2 
Q 82.748125 18.2 82.748125 22.6 
L 82.748125 51.7775 
Q 82.748125 56.1775 87.148125 56.1775 
z
" style="fill:#ffffff;opacity:0.8;stroke:#cccccc;stroke-linejoin:miter;"/>
    </g>
    <g id="line2d_2">
     <path d="M 91.548125 35.047187 
L 135.548125 35.047187 
" style="fill:none;stroke:#4c72b0;stroke-linecap:round;stroke-width:1.5;"/>
    </g>
    <g id="line2d_3"/>
    <g id="text_16">
     <!-- Target_Neutrons -->
     <g style="fill:#262626;" transform="translate(153.148125 42.747187)scale(0.22 -0.22)">
      <use xlink:href="#ArialMT-84"/>
      <use x="60.912109" xlink:href="#ArialMT-97"/>
      <use x="116.527344" xlink:href="#ArialMT-114"/>
      <use x="149.828125" xlink:href="#ArialMT-103"/>
      <use x="205.443359" xlink:href="#ArialMT-101"/>
      <use x="261.058594" xlink:href="#ArialMT-116"/>
      <use x="288.841797" xlink:href="#ArialMT-95"/>
      <use x="344.457031" xlink:href="#ArialMT-78"/>
      <use x="416.673828" xlink:href="#ArialMT-101"/>
      <use x="472.289062" xlink:href="#ArialMT-117"/>
      <use x="527.904297" xlink:href="#ArialMT-116"/>
      <use x="555.6875" xlink:href="#ArialMT-114"/>
      <use x="588.988281" xlink:href="#ArialMT-111"/>
      <use x="644.603516" xlink:href="#ArialMT-110"/>
      <use x="700.21875" xlink:href="#ArialMT-115"/>
     </g>
    </g>
   </g>
  </g>
 </g>
 <defs>
  <clipPath id="p39f35a34ad">
   <rect height="543.6" width="837" x="71.748125" y="7.2"/>
  </clipPath>
 </defs>
</svg>
