<?xml version="1.0" encoding="utf-8" standalone="no"?>
<!DOCTYPE svg PUBLIC "-//W3C//DTD SVG 1.1//EN"
  "http://www.w3.org/Graphics/SVG/1.1/DTD/svg11.dtd">
<!-- Created with matplotlib (https://matplotlib.org/) -->
<svg height="648pt" version="1.1" viewBox="0 0 1008 648" width="1008pt" xmlns="http://www.w3.org/2000/svg" xmlns:xlink="http://www.w3.org/1999/xlink">
 <defs>
  <style type="text/css">
*{stroke-linecap:butt;stroke-linejoin:round;}
  </style>
 </defs>
 <g id="figure_1">
  <g id="patch_1">
   <path d="M 0 648 
L 1008 648 
L 1008 0 
L 0 0 
z
" style="fill:#ffffff;"/>
  </g>
  <g id="axes_1">
   <g id="patch_2">
    <path d="M 87.545 565.58 
L 915.08 565.58 
L 915.08 25.92 
L 87.545 25.92 
z
" style="fill:#eaeaf2;"/>
   </g>
   <g id="matplotlib.axis_1">
    <g id="xtick_1">
     <g id="line2d_1">
      <path clip-path="url(#pb2a218fe00)" d="M 186.318077 565.58 
L 186.318077 25.92 
" style="fill:none;stroke:#ffffff;stroke-linecap:round;"/>
     </g>
     <g id="text_1">
      <!-- $\mathdefault{10^{-4}}$ -->
      <defs>
       <path d="M 37.25 0 
L 28.46875 0 
L 28.46875 56 
Q 25.296875 52.984375 20.140625 49.953125 
Q 14.984375 46.921875 10.890625 45.40625 
L 10.890625 53.90625 
Q 18.265625 57.375 23.78125 62.296875 
Q 29.296875 67.234375 31.59375 71.875 
L 37.25 71.875 
z
" id="ArialMT-49"/>
       <path d="M 4.15625 35.296875 
Q 4.15625 48 6.765625 55.734375 
Q 9.375 63.484375 14.515625 67.671875 
Q 19.671875 71.875 27.484375 71.875 
Q 33.25 71.875 37.59375 69.546875 
Q 41.9375 67.234375 44.765625 62.859375 
Q 47.609375 58.5 49.21875 52.21875 
Q 50.828125 45.953125 50.828125 35.296875 
Q 50.828125 22.703125 48.234375 14.96875 
Q 45.65625 7.234375 40.5 3 
Q 35.359375 -1.21875 27.484375 -1.21875 
Q 17.140625 -1.21875 11.234375 6.203125 
Q 4.15625 15.140625 4.15625 35.296875 
z
M 13.1875 35.296875 
Q 13.1875 17.671875 17.3125 11.828125 
Q 21.4375 6 27.484375 6 
Q 33.546875 6 37.671875 11.859375 
Q 41.796875 17.71875 41.796875 35.296875 
Q 41.796875 52.984375 37.671875 58.78125 
Q 33.546875 64.59375 27.390625 64.59375 
Q 21.34375 64.59375 17.71875 59.46875 
Q 13.1875 52.9375 13.1875 35.296875 
z
" id="ArialMT-48"/>
       <path d="M 52.828125 31.203125 
L 5.5625 31.203125 
L 5.5625 39.40625 
L 52.828125 39.40625 
z
" id="ArialMT-8722"/>
       <path d="M 32.328125 0 
L 32.328125 17.140625 
L 1.265625 17.140625 
L 1.265625 25.203125 
L 33.9375 71.578125 
L 41.109375 71.578125 
L 41.109375 25.203125 
L 50.78125 25.203125 
L 50.78125 17.140625 
L 41.109375 17.140625 
L 41.109375 0 
z
M 32.328125 25.203125 
L 32.328125 57.46875 
L 9.90625 25.203125 
z
" id="ArialMT-52"/>
      </defs>
      <g style="fill:#262626;" transform="translate(164.538077 597.5475)scale(0.22 -0.22)">
       <use transform="translate(0 0.201563)" xlink:href="#ArialMT-49"/>
       <use transform="translate(55.615234 0.201563)" xlink:href="#ArialMT-48"/>
       <use transform="translate(112.972813 69.895313)scale(0.7)" xlink:href="#ArialMT-8722"/>
       <use transform="translate(153.851719 69.895313)scale(0.7)" xlink:href="#ArialMT-52"/>
      </g>
     </g>
    </g>
    <g id="xtick_2">
     <g id="line2d_2">
      <path clip-path="url(#pb2a218fe00)" d="M 308.633777 565.58 
L 308.633777 25.92 
" style="fill:none;stroke:#ffffff;stroke-linecap:round;"/>
     </g>
     <g id="text_2">
      <!-- $\mathdefault{10^{-2}}$ -->
      <defs>
       <path d="M 50.34375 8.453125 
L 50.34375 0 
L 3.03125 0 
Q 2.9375 3.171875 4.046875 6.109375 
Q 5.859375 10.9375 9.828125 15.625 
Q 13.8125 20.3125 21.34375 26.46875 
Q 33.015625 36.03125 37.109375 41.625 
Q 41.21875 47.21875 41.21875 52.203125 
Q 41.21875 57.421875 37.46875 61 
Q 33.734375 64.59375 27.734375 64.59375 
Q 21.390625 64.59375 17.578125 60.78125 
Q 13.765625 56.984375 13.71875 50.25 
L 4.6875 51.171875 
Q 5.609375 61.28125 11.65625 66.578125 
Q 17.71875 71.875 27.9375 71.875 
Q 38.234375 71.875 44.234375 66.15625 
Q 50.25 60.453125 50.25 52 
Q 50.25 47.703125 48.484375 43.546875 
Q 46.734375 39.40625 42.65625 34.8125 
Q 38.578125 30.21875 29.109375 22.21875 
Q 21.1875 15.578125 18.9375 13.203125 
Q 16.703125 10.84375 15.234375 8.453125 
z
" id="ArialMT-50"/>
      </defs>
      <g style="fill:#262626;" transform="translate(286.853777 597.7675)scale(0.22 -0.22)">
       <use transform="translate(0 0.99375)" xlink:href="#ArialMT-49"/>
       <use transform="translate(55.615234 0.99375)" xlink:href="#ArialMT-48"/>
       <use transform="translate(112.972813 70.6875)scale(0.7)" xlink:href="#ArialMT-8722"/>
       <use transform="translate(153.851719 70.6875)scale(0.7)" xlink:href="#ArialMT-50"/>
      </g>
     </g>
    </g>
    <g id="xtick_3">
     <g id="line2d_3">
      <path clip-path="url(#pb2a218fe00)" d="M 430.949477 565.58 
L 430.949477 25.92 
" style="fill:none;stroke:#ffffff;stroke-linecap:round;"/>
     </g>
     <g id="text_3">
      <!-- $\mathdefault{10^{0}}$ -->
      <g style="fill:#262626;" transform="translate(413.679477 597.7675)scale(0.22 -0.22)">
       <use transform="translate(0 0.99375)" xlink:href="#ArialMT-49"/>
       <use transform="translate(55.615234 0.99375)" xlink:href="#ArialMT-48"/>
       <use transform="translate(112.972813 70.6875)scale(0.7)" xlink:href="#ArialMT-48"/>
      </g>
     </g>
    </g>
    <g id="xtick_4">
     <g id="line2d_4">
      <path clip-path="url(#pb2a218fe00)" d="M 553.265176 565.58 
L 553.265176 25.92 
" style="fill:none;stroke:#ffffff;stroke-linecap:round;"/>
     </g>
     <g id="text_4">
      <!-- $\mathdefault{10^{2}}$ -->
      <g style="fill:#262626;" transform="translate(535.995176 597.7675)scale(0.22 -0.22)">
       <use transform="translate(0 0.99375)" xlink:href="#ArialMT-49"/>
       <use transform="translate(55.615234 0.99375)" xlink:href="#ArialMT-48"/>
       <use transform="translate(112.972813 70.6875)scale(0.7)" xlink:href="#ArialMT-50"/>
      </g>
     </g>
    </g>
    <g id="xtick_5">
     <g id="line2d_5">
      <path clip-path="url(#pb2a218fe00)" d="M 675.580876 565.58 
L 675.580876 25.92 
" style="fill:none;stroke:#ffffff;stroke-linecap:round;"/>
     </g>
     <g id="text_5">
      <!-- $\mathdefault{10^{4}}$ -->
      <g style="fill:#262626;" transform="translate(658.310876 597.5475)scale(0.22 -0.22)">
       <use transform="translate(0 0.201563)" xlink:href="#ArialMT-49"/>
       <use transform="translate(55.615234 0.201563)" xlink:href="#ArialMT-48"/>
       <use transform="translate(112.972813 69.895313)scale(0.7)" xlink:href="#ArialMT-52"/>
      </g>
     </g>
    </g>
    <g id="xtick_6">
     <g id="line2d_6">
      <path clip-path="url(#pb2a218fe00)" d="M 797.896576 565.58 
L 797.896576 25.92 
" style="fill:none;stroke:#ffffff;stroke-linecap:round;"/>
     </g>
     <g id="text_6">
      <!-- $\mathdefault{10^{6}}$ -->
      <defs>
       <path d="M 49.75 54.046875 
L 41.015625 53.375 
Q 39.84375 58.546875 37.703125 60.890625 
Q 34.125 64.65625 28.90625 64.65625 
Q 24.703125 64.65625 21.53125 62.3125 
Q 17.390625 59.28125 14.984375 53.46875 
Q 12.59375 47.65625 12.5 36.921875 
Q 15.671875 41.75 20.265625 44.09375 
Q 24.859375 46.4375 29.890625 46.4375 
Q 38.671875 46.4375 44.84375 39.96875 
Q 51.03125 33.5 51.03125 23.25 
Q 51.03125 16.5 48.125 10.71875 
Q 45.21875 4.9375 40.140625 1.859375 
Q 35.0625 -1.21875 28.609375 -1.21875 
Q 17.625 -1.21875 10.6875 6.859375 
Q 3.765625 14.9375 3.765625 33.5 
Q 3.765625 54.25 11.421875 63.671875 
Q 18.109375 71.875 29.4375 71.875 
Q 37.890625 71.875 43.28125 67.140625 
Q 48.6875 62.40625 49.75 54.046875 
z
M 13.875 23.1875 
Q 13.875 18.65625 15.796875 14.5 
Q 17.71875 10.359375 21.1875 8.171875 
Q 24.65625 6 28.46875 6 
Q 34.03125 6 38.03125 10.484375 
Q 42.046875 14.984375 42.046875 22.703125 
Q 42.046875 30.125 38.078125 34.390625 
Q 34.125 38.671875 28.125 38.671875 
Q 22.171875 38.671875 18.015625 34.390625 
Q 13.875 30.125 13.875 23.1875 
z
" id="ArialMT-54"/>
      </defs>
      <g style="fill:#262626;" transform="translate(780.626576 597.7675)scale(0.22 -0.22)">
       <use transform="translate(0 0.99375)" xlink:href="#ArialMT-49"/>
       <use transform="translate(55.615234 0.99375)" xlink:href="#ArialMT-48"/>
       <use transform="translate(112.972813 70.6875)scale(0.7)" xlink:href="#ArialMT-54"/>
      </g>
     </g>
    </g>
    <g id="text_7">
     <!-- Energy (eV) -->
     <defs>
      <path d="M 7.90625 0 
L 7.90625 71.578125 
L 59.671875 71.578125 
L 59.671875 63.140625 
L 17.390625 63.140625 
L 17.390625 41.21875 
L 56.984375 41.21875 
L 56.984375 32.8125 
L 17.390625 32.8125 
L 17.390625 8.453125 
L 61.328125 8.453125 
L 61.328125 0 
z
" id="ArialMT-69"/>
      <path d="M 6.59375 0 
L 6.59375 51.859375 
L 14.5 51.859375 
L 14.5 44.484375 
Q 20.21875 53.03125 31 53.03125 
Q 35.6875 53.03125 39.625 51.34375 
Q 43.5625 49.65625 45.515625 46.921875 
Q 47.46875 44.1875 48.25 40.4375 
Q 48.734375 37.984375 48.734375 31.890625 
L 48.734375 0 
L 39.9375 0 
L 39.9375 31.546875 
Q 39.9375 36.921875 38.90625 39.578125 
Q 37.890625 42.234375 35.28125 43.8125 
Q 32.671875 45.40625 29.15625 45.40625 
Q 23.53125 45.40625 19.453125 41.84375 
Q 15.375 38.28125 15.375 28.328125 
L 15.375 0 
z
" id="ArialMT-110"/>
      <path d="M 42.09375 16.703125 
L 51.171875 15.578125 
Q 49.03125 7.625 43.21875 3.21875 
Q 37.40625 -1.171875 28.375 -1.171875 
Q 17 -1.171875 10.328125 5.828125 
Q 3.65625 12.84375 3.65625 25.484375 
Q 3.65625 38.578125 10.390625 45.796875 
Q 17.140625 53.03125 27.875 53.03125 
Q 38.28125 53.03125 44.875 45.953125 
Q 51.46875 38.875 51.46875 26.03125 
Q 51.46875 25.25 51.421875 23.6875 
L 12.75 23.6875 
Q 13.234375 15.140625 17.578125 10.59375 
Q 21.921875 6.0625 28.421875 6.0625 
Q 33.25 6.0625 36.671875 8.59375 
Q 40.09375 11.140625 42.09375 16.703125 
z
M 13.234375 30.90625 
L 42.1875 30.90625 
Q 41.609375 37.453125 38.875 40.71875 
Q 34.671875 45.796875 27.984375 45.796875 
Q 21.921875 45.796875 17.796875 41.75 
Q 13.671875 37.703125 13.234375 30.90625 
z
" id="ArialMT-101"/>
      <path d="M 6.5 0 
L 6.5 51.859375 
L 14.40625 51.859375 
L 14.40625 44 
Q 17.4375 49.515625 20 51.265625 
Q 22.5625 53.03125 25.640625 53.03125 
Q 30.078125 53.03125 34.671875 50.203125 
L 31.640625 42.046875 
Q 28.421875 43.953125 25.203125 43.953125 
Q 22.3125 43.953125 20.015625 42.21875 
Q 17.71875 40.484375 16.75 37.40625 
Q 15.28125 32.71875 15.28125 27.15625 
L 15.28125 0 
z
" id="ArialMT-114"/>
      <path d="M 4.984375 -4.296875 
L 13.53125 -5.5625 
Q 14.0625 -9.515625 16.5 -11.328125 
Q 19.78125 -13.765625 25.4375 -13.765625 
Q 31.546875 -13.765625 34.859375 -11.328125 
Q 38.1875 -8.890625 39.359375 -4.5 
Q 40.046875 -1.8125 39.984375 6.78125 
Q 34.234375 0 25.640625 0 
Q 14.9375 0 9.078125 7.71875 
Q 3.21875 15.4375 3.21875 26.21875 
Q 3.21875 33.640625 5.90625 39.90625 
Q 8.59375 46.1875 13.6875 49.609375 
Q 18.796875 53.03125 25.6875 53.03125 
Q 34.859375 53.03125 40.828125 45.609375 
L 40.828125 51.859375 
L 48.921875 51.859375 
L 48.921875 7.03125 
Q 48.921875 -5.078125 46.453125 -10.125 
Q 44 -15.1875 38.640625 -18.109375 
Q 33.296875 -21.046875 25.484375 -21.046875 
Q 16.21875 -21.046875 10.5 -16.875 
Q 4.78125 -12.703125 4.984375 -4.296875 
z
M 12.25 26.859375 
Q 12.25 16.65625 16.296875 11.96875 
Q 20.359375 7.28125 26.46875 7.28125 
Q 32.515625 7.28125 36.609375 11.9375 
Q 40.71875 16.609375 40.71875 26.5625 
Q 40.71875 36.078125 36.5 40.90625 
Q 32.28125 45.75 26.3125 45.75 
Q 20.453125 45.75 16.34375 40.984375 
Q 12.25 36.234375 12.25 26.859375 
z
" id="ArialMT-103"/>
      <path d="M 6.203125 -19.96875 
L 5.21875 -11.71875 
Q 8.109375 -12.5 10.25 -12.5 
Q 13.1875 -12.5 14.9375 -11.515625 
Q 16.703125 -10.546875 17.828125 -8.796875 
Q 18.65625 -7.46875 20.515625 -2.25 
Q 20.75 -1.515625 21.296875 -0.09375 
L 1.609375 51.859375 
L 11.078125 51.859375 
L 21.875 21.828125 
Q 23.96875 16.109375 25.640625 9.8125 
Q 27.15625 15.875 29.25 21.625 
L 40.328125 51.859375 
L 49.125 51.859375 
L 29.390625 -0.875 
Q 26.21875 -9.421875 24.46875 -12.640625 
Q 22.125 -17 19.09375 -19.015625 
Q 16.0625 -21.046875 11.859375 -21.046875 
Q 9.328125 -21.046875 6.203125 -19.96875 
z
" id="ArialMT-121"/>
      <path id="ArialMT-32"/>
      <path d="M 23.390625 -21.046875 
Q 16.109375 -11.859375 11.078125 0.4375 
Q 6.0625 12.75 6.0625 25.921875 
Q 6.0625 37.546875 9.8125 48.1875 
Q 14.203125 60.546875 23.390625 72.796875 
L 29.6875 72.796875 
Q 23.78125 62.640625 21.875 58.296875 
Q 18.890625 51.5625 17.1875 44.234375 
Q 15.09375 35.109375 15.09375 25.875 
Q 15.09375 2.390625 29.6875 -21.046875 
z
" id="ArialMT-40"/>
      <path d="M 28.171875 0 
L 0.4375 71.578125 
L 10.6875 71.578125 
L 29.296875 19.578125 
Q 31.546875 13.328125 33.0625 7.859375 
Q 34.71875 13.71875 36.921875 19.578125 
L 56.25 71.578125 
L 65.921875 71.578125 
L 37.890625 0 
z
" id="ArialMT-86"/>
      <path d="M 12.359375 -21.046875 
L 6.0625 -21.046875 
Q 20.65625 2.390625 20.65625 25.875 
Q 20.65625 35.0625 18.5625 44.09375 
Q 16.890625 51.421875 13.921875 58.15625 
Q 12.015625 62.546875 6.0625 72.796875 
L 12.359375 72.796875 
Q 21.53125 60.546875 25.921875 48.1875 
Q 29.6875 37.546875 29.6875 25.921875 
Q 29.6875 12.75 24.625 0.4375 
Q 19.578125 -11.859375 12.359375 -21.046875 
z
" id="ArialMT-41"/>
     </defs>
     <g style="fill:#262626;" transform="translate(437.290625 623.61125)scale(0.24 -0.24)">
      <use xlink:href="#ArialMT-69"/>
      <use x="66.699219" xlink:href="#ArialMT-110"/>
      <use x="122.314453" xlink:href="#ArialMT-101"/>
      <use x="177.929688" xlink:href="#ArialMT-114"/>
      <use x="211.230469" xlink:href="#ArialMT-103"/>
      <use x="266.845703" xlink:href="#ArialMT-121"/>
      <use x="316.845703" xlink:href="#ArialMT-32"/>
      <use x="344.628906" xlink:href="#ArialMT-40"/>
      <use x="377.929688" xlink:href="#ArialMT-101"/>
      <use x="433.544922" xlink:href="#ArialMT-86"/>
      <use x="500.244141" xlink:href="#ArialMT-41"/>
     </g>
    </g>
   </g>
   <g id="matplotlib.axis_2">
    <g id="ytick_1">
     <g id="line2d_7">
      <path clip-path="url(#pb2a218fe00)" d="M 87.545 540.555694 
L 915.08 540.555694 
" style="fill:none;stroke:#ffffff;stroke-linecap:round;"/>
     </g>
     <g id="line2d_8">
      <defs>
       <path d="M 0 0 
L -6 0 
" id="mbc66bea4bb" style="stroke:#262626;stroke-width:1.25;"/>
      </defs>
      <g>
       <use style="fill:#262626;stroke:#262626;stroke-width:1.25;" x="87.545" xlink:href="#mbc66bea4bb" y="540.555694"/>
      </g>
     </g>
     <g id="text_8">
      <!-- −6 -->
      <g style="fill:#d62728;" transform="translate(52.961562 548.429287)scale(0.22 -0.22)">
       <use xlink:href="#ArialMT-8722"/>
       <use x="58.398438" xlink:href="#ArialMT-54"/>
      </g>
     </g>
    </g>
    <g id="ytick_2">
     <g id="line2d_9">
      <path clip-path="url(#pb2a218fe00)" d="M 87.545 475.581826 
L 915.08 475.581826 
" style="fill:none;stroke:#ffffff;stroke-linecap:round;"/>
     </g>
     <g id="line2d_10">
      <g>
       <use style="fill:#262626;stroke:#262626;stroke-width:1.25;" x="87.545" xlink:href="#mbc66bea4bb" y="475.581826"/>
      </g>
     </g>
     <g id="text_9">
      <!-- −5 -->
      <defs>
       <path d="M 4.15625 18.75 
L 13.375 19.53125 
Q 14.40625 12.796875 18.140625 9.390625 
Q 21.875 6 27.15625 6 
Q 33.5 6 37.890625 10.78125 
Q 42.28125 15.578125 42.28125 23.484375 
Q 42.28125 31 38.0625 35.34375 
Q 33.84375 39.703125 27 39.703125 
Q 22.75 39.703125 19.328125 37.765625 
Q 15.921875 35.84375 13.96875 32.765625 
L 5.71875 33.84375 
L 12.640625 70.609375 
L 48.25 70.609375 
L 48.25 62.203125 
L 19.671875 62.203125 
L 15.828125 42.96875 
Q 22.265625 47.46875 29.34375 47.46875 
Q 38.71875 47.46875 45.15625 40.96875 
Q 51.609375 34.46875 51.609375 24.265625 
Q 51.609375 14.546875 45.953125 7.46875 
Q 39.0625 -1.21875 27.15625 -1.21875 
Q 17.390625 -1.21875 11.203125 4.25 
Q 5.03125 9.71875 4.15625 18.75 
z
" id="ArialMT-53"/>
      </defs>
      <g style="fill:#d62728;" transform="translate(52.961562 483.45542)scale(0.22 -0.22)">
       <use xlink:href="#ArialMT-8722"/>
       <use x="58.398438" xlink:href="#ArialMT-53"/>
      </g>
     </g>
    </g>
    <g id="ytick_3">
     <g id="line2d_11">
      <path clip-path="url(#pb2a218fe00)" d="M 87.545 410.607959 
L 915.08 410.607959 
" style="fill:none;stroke:#ffffff;stroke-linecap:round;"/>
     </g>
     <g id="line2d_12">
      <g>
       <use style="fill:#262626;stroke:#262626;stroke-width:1.25;" x="87.545" xlink:href="#mbc66bea4bb" y="410.607959"/>
      </g>
     </g>
     <g id="text_10">
      <!-- −4 -->
      <g style="fill:#d62728;" transform="translate(52.961562 418.481553)scale(0.22 -0.22)">
       <use xlink:href="#ArialMT-8722"/>
       <use x="58.398438" xlink:href="#ArialMT-52"/>
      </g>
     </g>
    </g>
    <g id="ytick_4">
     <g id="line2d_13">
      <path clip-path="url(#pb2a218fe00)" d="M 87.545 345.634092 
L 915.08 345.634092 
" style="fill:none;stroke:#ffffff;stroke-linecap:round;"/>
     </g>
     <g id="line2d_14">
      <g>
       <use style="fill:#262626;stroke:#262626;stroke-width:1.25;" x="87.545" xlink:href="#mbc66bea4bb" y="345.634092"/>
      </g>
     </g>
     <g id="text_11">
      <!-- −3 -->
      <defs>
       <path d="M 4.203125 18.890625 
L 12.984375 20.0625 
Q 14.5 12.59375 18.140625 9.296875 
Q 21.78125 6 27 6 
Q 33.203125 6 37.46875 10.296875 
Q 41.75 14.59375 41.75 20.953125 
Q 41.75 27 37.796875 30.921875 
Q 33.84375 34.859375 27.734375 34.859375 
Q 25.25 34.859375 21.53125 33.890625 
L 22.515625 41.609375 
Q 23.390625 41.5 23.921875 41.5 
Q 29.546875 41.5 34.03125 44.421875 
Q 38.53125 47.359375 38.53125 53.46875 
Q 38.53125 58.296875 35.25 61.46875 
Q 31.984375 64.65625 26.8125 64.65625 
Q 21.6875 64.65625 18.265625 61.421875 
Q 14.84375 58.203125 13.875 51.765625 
L 5.078125 53.328125 
Q 6.6875 62.15625 12.390625 67.015625 
Q 18.109375 71.875 26.609375 71.875 
Q 32.46875 71.875 37.390625 69.359375 
Q 42.328125 66.84375 44.9375 62.5 
Q 47.5625 58.15625 47.5625 53.265625 
Q 47.5625 48.640625 45.0625 44.828125 
Q 42.578125 41.015625 37.703125 38.765625 
Q 44.046875 37.3125 47.5625 32.6875 
Q 51.078125 28.078125 51.078125 21.140625 
Q 51.078125 11.765625 44.234375 5.25 
Q 37.40625 -1.265625 26.953125 -1.265625 
Q 17.53125 -1.265625 11.296875 4.34375 
Q 5.078125 9.96875 4.203125 18.890625 
z
" id="ArialMT-51"/>
      </defs>
      <g style="fill:#d62728;" transform="translate(52.961562 353.507686)scale(0.22 -0.22)">
       <use xlink:href="#ArialMT-8722"/>
       <use x="58.398438" xlink:href="#ArialMT-51"/>
      </g>
     </g>
    </g>
    <g id="ytick_5">
     <g id="line2d_15">
      <path clip-path="url(#pb2a218fe00)" d="M 87.545 280.660225 
L 915.08 280.660225 
" style="fill:none;stroke:#ffffff;stroke-linecap:round;"/>
     </g>
     <g id="line2d_16">
      <g>
       <use style="fill:#262626;stroke:#262626;stroke-width:1.25;" x="87.545" xlink:href="#mbc66bea4bb" y="280.660225"/>
      </g>
     </g>
     <g id="text_12">
      <!-- −2 -->
      <g style="fill:#d62728;" transform="translate(52.961562 288.533818)scale(0.22 -0.22)">
       <use xlink:href="#ArialMT-8722"/>
       <use x="58.398438" xlink:href="#ArialMT-50"/>
      </g>
     </g>
    </g>
    <g id="ytick_6">
     <g id="line2d_17">
      <path clip-path="url(#pb2a218fe00)" d="M 87.545 215.686357 
L 915.08 215.686357 
" style="fill:none;stroke:#ffffff;stroke-linecap:round;"/>
     </g>
     <g id="line2d_18">
      <g>
       <use style="fill:#262626;stroke:#262626;stroke-width:1.25;" x="87.545" xlink:href="#mbc66bea4bb" y="215.686357"/>
      </g>
     </g>
     <g id="text_13">
      <!-- −1 -->
      <g style="fill:#d62728;" transform="translate(52.961562 223.559951)scale(0.22 -0.22)">
       <use xlink:href="#ArialMT-8722"/>
       <use x="58.398438" xlink:href="#ArialMT-49"/>
      </g>
     </g>
    </g>
    <g id="ytick_7">
     <g id="line2d_19">
      <path clip-path="url(#pb2a218fe00)" d="M 87.545 150.71249 
L 915.08 150.71249 
" style="fill:none;stroke:#ffffff;stroke-linecap:round;"/>
     </g>
     <g id="line2d_20">
      <g>
       <use style="fill:#262626;stroke:#262626;stroke-width:1.25;" x="87.545" xlink:href="#mbc66bea4bb" y="150.71249"/>
      </g>
     </g>
     <g id="text_14">
      <!-- 0 -->
      <g style="fill:#d62728;" transform="translate(65.810937 158.586084)scale(0.22 -0.22)">
       <use xlink:href="#ArialMT-48"/>
      </g>
     </g>
    </g>
    <g id="ytick_8">
     <g id="line2d_21">
      <path clip-path="url(#pb2a218fe00)" d="M 87.545 85.738623 
L 915.08 85.738623 
" style="fill:none;stroke:#ffffff;stroke-linecap:round;"/>
     </g>
     <g id="line2d_22">
      <g>
       <use style="fill:#262626;stroke:#262626;stroke-width:1.25;" x="87.545" xlink:href="#mbc66bea4bb" y="85.738623"/>
      </g>
     </g>
     <g id="text_15">
      <!-- 1 -->
      <g style="fill:#d62728;" transform="translate(65.810937 93.612217)scale(0.22 -0.22)">
       <use xlink:href="#ArialMT-49"/>
      </g>
     </g>
    </g>
    <g id="text_16">
     <!-- Cross Section (b) -->
     <defs>
      <path d="M 58.796875 25.09375 
L 68.265625 22.703125 
Q 65.28125 11.03125 57.546875 4.90625 
Q 49.8125 -1.21875 38.625 -1.21875 
Q 27.046875 -1.21875 19.796875 3.484375 
Q 12.546875 8.203125 8.765625 17.140625 
Q 4.984375 26.078125 4.984375 36.328125 
Q 4.984375 47.515625 9.25 55.828125 
Q 13.53125 64.15625 21.40625 68.46875 
Q 29.296875 72.796875 38.765625 72.796875 
Q 49.515625 72.796875 56.828125 67.328125 
Q 64.15625 61.859375 67.046875 51.953125 
L 57.71875 49.75 
Q 55.21875 57.5625 50.484375 61.125 
Q 45.75 64.703125 38.578125 64.703125 
Q 30.328125 64.703125 24.78125 60.734375 
Q 19.234375 56.78125 16.984375 50.109375 
Q 14.75 43.453125 14.75 36.375 
Q 14.75 27.25 17.40625 20.4375 
Q 20.0625 13.625 25.671875 10.25 
Q 31.296875 6.890625 37.84375 6.890625 
Q 45.796875 6.890625 51.3125 11.46875 
Q 56.84375 16.0625 58.796875 25.09375 
z
" id="ArialMT-67"/>
      <path d="M 3.328125 25.921875 
Q 3.328125 40.328125 11.328125 47.265625 
Q 18.015625 53.03125 27.640625 53.03125 
Q 38.328125 53.03125 45.109375 46.015625 
Q 51.90625 39.015625 51.90625 26.65625 
Q 51.90625 16.65625 48.90625 10.90625 
Q 45.90625 5.171875 40.15625 2 
Q 34.421875 -1.171875 27.640625 -1.171875 
Q 16.75 -1.171875 10.03125 5.8125 
Q 3.328125 12.796875 3.328125 25.921875 
z
M 12.359375 25.921875 
Q 12.359375 15.96875 16.703125 11.015625 
Q 21.046875 6.0625 27.640625 6.0625 
Q 34.1875 6.0625 38.53125 11.03125 
Q 42.875 16.015625 42.875 26.21875 
Q 42.875 35.84375 38.5 40.796875 
Q 34.125 45.75 27.640625 45.75 
Q 21.046875 45.75 16.703125 40.8125 
Q 12.359375 35.890625 12.359375 25.921875 
z
" id="ArialMT-111"/>
      <path d="M 3.078125 15.484375 
L 11.765625 16.84375 
Q 12.5 11.625 15.84375 8.84375 
Q 19.1875 6.0625 25.203125 6.0625 
Q 31.25 6.0625 34.171875 8.515625 
Q 37.109375 10.984375 37.109375 14.3125 
Q 37.109375 17.28125 34.515625 19 
Q 32.71875 20.171875 25.53125 21.96875 
Q 15.875 24.421875 12.140625 26.203125 
Q 8.40625 27.984375 6.46875 31.125 
Q 4.546875 34.28125 4.546875 38.09375 
Q 4.546875 41.546875 6.125 44.5 
Q 7.71875 47.46875 10.453125 49.421875 
Q 12.5 50.921875 16.03125 51.96875 
Q 19.578125 53.03125 23.640625 53.03125 
Q 29.734375 53.03125 34.34375 51.265625 
Q 38.96875 49.515625 41.15625 46.5 
Q 43.359375 43.5 44.1875 38.484375 
L 35.59375 37.3125 
Q 35.015625 41.3125 32.203125 43.546875 
Q 29.390625 45.796875 24.265625 45.796875 
Q 18.21875 45.796875 15.625 43.796875 
Q 13.03125 41.796875 13.03125 39.109375 
Q 13.03125 37.40625 14.109375 36.03125 
Q 15.1875 34.625 17.484375 33.6875 
Q 18.796875 33.203125 25.25 31.453125 
Q 34.578125 28.953125 38.25 27.359375 
Q 41.9375 25.78125 44.03125 22.75 
Q 46.140625 19.734375 46.140625 15.234375 
Q 46.140625 10.84375 43.578125 6.953125 
Q 41.015625 3.078125 36.171875 0.953125 
Q 31.34375 -1.171875 25.25 -1.171875 
Q 15.140625 -1.171875 9.84375 3.03125 
Q 4.546875 7.234375 3.078125 15.484375 
z
" id="ArialMT-115"/>
      <path d="M 4.5 23 
L 13.421875 23.78125 
Q 14.0625 18.40625 16.375 14.96875 
Q 18.703125 11.53125 23.578125 9.40625 
Q 28.46875 7.28125 34.578125 7.28125 
Q 39.984375 7.28125 44.140625 8.890625 
Q 48.296875 10.5 50.3125 13.296875 
Q 52.34375 16.109375 52.34375 19.4375 
Q 52.34375 22.796875 50.390625 25.3125 
Q 48.4375 27.828125 43.953125 29.546875 
Q 41.0625 30.671875 31.203125 33.03125 
Q 21.34375 35.40625 17.390625 37.5 
Q 12.25 40.1875 9.734375 44.15625 
Q 7.234375 48.140625 7.234375 53.078125 
Q 7.234375 58.5 10.296875 63.203125 
Q 13.375 67.921875 19.28125 70.359375 
Q 25.203125 72.796875 32.421875 72.796875 
Q 40.375 72.796875 46.453125 70.234375 
Q 52.546875 67.671875 55.8125 62.6875 
Q 59.078125 57.71875 59.328125 51.421875 
L 50.25 50.734375 
Q 49.515625 57.515625 45.28125 60.984375 
Q 41.0625 64.453125 32.8125 64.453125 
Q 24.21875 64.453125 20.28125 61.296875 
Q 16.359375 58.15625 16.359375 53.71875 
Q 16.359375 49.859375 19.140625 47.359375 
Q 21.875 44.875 33.421875 42.265625 
Q 44.96875 39.65625 49.265625 37.703125 
Q 55.515625 34.8125 58.484375 30.390625 
Q 61.46875 25.984375 61.46875 20.21875 
Q 61.46875 14.5 58.203125 9.4375 
Q 54.9375 4.390625 48.796875 1.578125 
Q 42.671875 -1.21875 35.015625 -1.21875 
Q 25.296875 -1.21875 18.71875 1.609375 
Q 12.15625 4.4375 8.421875 10.125 
Q 4.6875 15.828125 4.5 23 
z
" id="ArialMT-83"/>
      <path d="M 40.4375 19 
L 49.078125 17.875 
Q 47.65625 8.9375 41.8125 3.875 
Q 35.984375 -1.171875 27.484375 -1.171875 
Q 16.84375 -1.171875 10.375 5.78125 
Q 3.90625 12.75 3.90625 25.734375 
Q 3.90625 34.125 6.6875 40.421875 
Q 9.46875 46.734375 15.15625 49.875 
Q 20.84375 53.03125 27.546875 53.03125 
Q 35.984375 53.03125 41.359375 48.75 
Q 46.734375 44.484375 48.25 36.625 
L 39.703125 35.296875 
Q 38.484375 40.53125 35.375 43.15625 
Q 32.28125 45.796875 27.875 45.796875 
Q 21.234375 45.796875 17.078125 41.03125 
Q 12.9375 36.28125 12.9375 25.984375 
Q 12.9375 15.53125 16.9375 10.796875 
Q 20.953125 6.0625 27.390625 6.0625 
Q 32.5625 6.0625 36.03125 9.234375 
Q 39.5 12.40625 40.4375 19 
z
" id="ArialMT-99"/>
      <path d="M 25.78125 7.859375 
L 27.046875 0.09375 
Q 23.34375 -0.6875 20.40625 -0.6875 
Q 15.625 -0.6875 12.984375 0.828125 
Q 10.359375 2.34375 9.28125 4.8125 
Q 8.203125 7.28125 8.203125 15.1875 
L 8.203125 45.015625 
L 1.765625 45.015625 
L 1.765625 51.859375 
L 8.203125 51.859375 
L 8.203125 64.703125 
L 16.9375 69.96875 
L 16.9375 51.859375 
L 25.78125 51.859375 
L 25.78125 45.015625 
L 16.9375 45.015625 
L 16.9375 14.703125 
Q 16.9375 10.9375 17.40625 9.859375 
Q 17.875 8.796875 18.921875 8.15625 
Q 19.96875 7.515625 21.921875 7.515625 
Q 23.390625 7.515625 25.78125 7.859375 
z
" id="ArialMT-116"/>
      <path d="M 6.640625 61.46875 
L 6.640625 71.578125 
L 15.4375 71.578125 
L 15.4375 61.46875 
z
M 6.640625 0 
L 6.640625 51.859375 
L 15.4375 51.859375 
L 15.4375 0 
z
" id="ArialMT-105"/>
      <path d="M 14.703125 0 
L 6.546875 0 
L 6.546875 71.578125 
L 15.328125 71.578125 
L 15.328125 46.046875 
Q 20.90625 53.03125 29.546875 53.03125 
Q 34.328125 53.03125 38.59375 51.09375 
Q 42.875 49.171875 45.625 45.671875 
Q 48.390625 42.1875 49.953125 37.25 
Q 51.515625 32.328125 51.515625 26.703125 
Q 51.515625 13.375 44.921875 6.09375 
Q 38.328125 -1.171875 29.109375 -1.171875 
Q 19.921875 -1.171875 14.703125 6.5 
z
M 14.59375 26.3125 
Q 14.59375 17 17.140625 12.84375 
Q 21.296875 6.0625 28.375 6.0625 
Q 34.125 6.0625 38.328125 11.0625 
Q 42.53125 16.0625 42.53125 25.984375 
Q 42.53125 36.140625 38.5 40.96875 
Q 34.46875 45.796875 28.765625 45.796875 
Q 23 45.796875 18.796875 40.796875 
Q 14.59375 35.796875 14.59375 26.3125 
z
" id="ArialMT-98"/>
     </defs>
     <g style="fill:#d62728;" transform="translate(43.910312 388.440625)rotate(-90)scale(0.24 -0.24)">
      <use xlink:href="#ArialMT-67"/>
      <use x="72.216797" xlink:href="#ArialMT-114"/>
      <use x="105.517578" xlink:href="#ArialMT-111"/>
      <use x="161.132812" xlink:href="#ArialMT-115"/>
      <use x="211.132812" xlink:href="#ArialMT-115"/>
      <use x="261.132812" xlink:href="#ArialMT-32"/>
      <use x="288.916016" xlink:href="#ArialMT-83"/>
      <use x="355.615234" xlink:href="#ArialMT-101"/>
      <use x="411.230469" xlink:href="#ArialMT-99"/>
      <use x="461.230469" xlink:href="#ArialMT-116"/>
      <use x="489.013672" xlink:href="#ArialMT-105"/>
      <use x="511.230469" xlink:href="#ArialMT-111"/>
      <use x="566.845703" xlink:href="#ArialMT-110"/>
      <use x="622.460938" xlink:href="#ArialMT-32"/>
      <use x="650.244141" xlink:href="#ArialMT-40"/>
      <use x="683.544922" xlink:href="#ArialMT-98"/>
      <use x="739.160156" xlink:href="#ArialMT-41"/>
     </g>
    </g>
   </g>
   <g id="PathCollection_1">
    <defs>
     <path d="M 0 3 
C 0.795609 3 1.55874 2.683901 2.12132 2.12132 
C 2.683901 1.55874 3 0.795609 3 0 
C 3 -0.795609 2.683901 -1.55874 2.12132 -2.12132 
C 1.55874 -2.683901 0.795609 -3 0 -3 
C -0.795609 -3 -1.55874 -2.683901 -2.12132 -2.12132 
C -2.683901 -1.55874 -3 -0.795609 -3 0 
C -3 0.795609 -2.683901 1.55874 -2.12132 2.12132 
C -1.55874 2.683901 -0.795609 3 0 3 
z
" id="m28e0e14556" style="stroke:#d62728;stroke-opacity:0.7;"/>
    </defs>
    <g clip-path="url(#pb2a218fe00)">
     <use style="fill:#d62728;fill-opacity:0.7;stroke:#d62728;stroke-opacity:0.7;" x="333.287761" xlink:href="#m28e0e14556" y="170.899295"/>
     <use style="fill:#d62728;fill-opacity:0.7;stroke:#d62728;stroke-opacity:0.7;" x="333.287761" xlink:href="#m28e0e14556" y="170.899295"/>
     <use style="fill:#d62728;fill-opacity:0.7;stroke:#d62728;stroke-opacity:0.7;" x="335.50242" xlink:href="#m28e0e14556" y="171.802248"/>
     <use style="fill:#d62728;fill-opacity:0.7;stroke:#d62728;stroke-opacity:0.7;" x="338.940203" xlink:href="#m28e0e14556" y="174.123506"/>
     <use style="fill:#d62728;fill-opacity:0.7;stroke:#d62728;stroke-opacity:0.7;" x="342.359273" xlink:href="#m28e0e14556" y="174.857499"/>
     <use style="fill:#d62728;fill-opacity:0.7;stroke:#d62728;stroke-opacity:0.7;" x="345.718757" xlink:href="#m28e0e14556" y="177.32605"/>
     <use style="fill:#d62728;fill-opacity:0.7;stroke:#d62728;stroke-opacity:0.7;" x="349.166621" xlink:href="#m28e0e14556" y="179.651182"/>
     <use style="fill:#d62728;fill-opacity:0.7;stroke:#d62728;stroke-opacity:0.7;" x="352.575795" xlink:href="#m28e0e14556" y="181.0878"/>
     <use style="fill:#d62728;fill-opacity:0.7;stroke:#d62728;stroke-opacity:0.7;" x="355.956892" xlink:href="#m28e0e14556" y="182.488158"/>
     <use style="fill:#d62728;fill-opacity:0.7;stroke:#d62728;stroke-opacity:0.7;" x="359.352212" xlink:href="#m28e0e14556" y="184.770725"/>
     <use style="fill:#d62728;fill-opacity:0.7;stroke:#d62728;stroke-opacity:0.7;" x="362.780565" xlink:href="#m28e0e14556" y="187.41963"/>
     <use style="fill:#d62728;fill-opacity:0.7;stroke:#d62728;stroke-opacity:0.7;" x="366.184185" xlink:href="#m28e0e14556" y="188.271751"/>
     <use style="fill:#d62728;fill-opacity:0.7;stroke:#d62728;stroke-opacity:0.7;" x="369.578288" xlink:href="#m28e0e14556" y="190.48147"/>
     <use style="fill:#d62728;fill-opacity:0.7;stroke:#d62728;stroke-opacity:0.7;" x="372.990739" xlink:href="#m28e0e14556" y="192.122225"/>
     <use style="fill:#d62728;fill-opacity:0.7;stroke:#d62728;stroke-opacity:0.7;" x="376.389826" xlink:href="#m28e0e14556" y="194.099673"/>
     <use style="fill:#d62728;fill-opacity:0.7;stroke:#d62728;stroke-opacity:0.7;" x="379.806685" xlink:href="#m28e0e14556" y="195.238452"/>
     <use style="fill:#d62728;fill-opacity:0.7;stroke:#d62728;stroke-opacity:0.7;" x="383.20492" xlink:href="#m28e0e14556" y="197.589513"/>
     <use style="fill:#d62728;fill-opacity:0.7;stroke:#d62728;stroke-opacity:0.7;" x="386.614983" xlink:href="#m28e0e14556" y="198.866142"/>
     <use style="fill:#d62728;fill-opacity:0.7;stroke:#d62728;stroke-opacity:0.7;" x="390.011431" xlink:href="#m28e0e14556" y="201.063943"/>
     <use style="fill:#d62728;fill-opacity:0.7;stroke:#d62728;stroke-opacity:0.7;" x="393.418162" xlink:href="#m28e0e14556" y="202.957999"/>
     <use style="fill:#d62728;fill-opacity:0.7;stroke:#d62728;stroke-opacity:0.7;" x="396.823956" xlink:href="#m28e0e14556" y="204.433776"/>
     <use style="fill:#d62728;fill-opacity:0.7;stroke:#d62728;stroke-opacity:0.7;" x="400.23348" xlink:href="#m28e0e14556" y="207.554499"/>
     <use style="fill:#d62728;fill-opacity:0.7;stroke:#d62728;stroke-opacity:0.7;" x="403.636228" xlink:href="#m28e0e14556" y="207.448933"/>
     <use style="fill:#d62728;fill-opacity:0.7;stroke:#d62728;stroke-opacity:0.7;" x="407.04046" xlink:href="#m28e0e14556" y="211.693552"/>
     <use style="fill:#d62728;fill-opacity:0.7;stroke:#d62728;stroke-opacity:0.7;" x="410.445449" xlink:href="#m28e0e14556" y="212.088213"/>
     <use style="fill:#d62728;fill-opacity:0.7;stroke:#d62728;stroke-opacity:0.7;" x="413.85525" xlink:href="#m28e0e14556" y="213.77718"/>
     <use style="fill:#d62728;fill-opacity:0.7;stroke:#d62728;stroke-opacity:0.7;" x="417.257445" xlink:href="#m28e0e14556" y="216.429726"/>
     <use style="fill:#d62728;fill-opacity:0.7;stroke:#d62728;stroke-opacity:0.7;" x="420.663081" xlink:href="#m28e0e14556" y="217.673524"/>
     <use style="fill:#d62728;fill-opacity:0.7;stroke:#d62728;stroke-opacity:0.7;" x="424.06951" xlink:href="#m28e0e14556" y="219.325617"/>
     <use style="fill:#d62728;fill-opacity:0.7;stroke:#d62728;stroke-opacity:0.7;" x="427.475566" xlink:href="#m28e0e14556" y="220.472174"/>
     <use style="fill:#d62728;fill-opacity:0.7;stroke:#d62728;stroke-opacity:0.7;" x="430.880329" xlink:href="#m28e0e14556" y="224.489596"/>
     <use style="fill:#d62728;fill-opacity:0.7;stroke:#d62728;stroke-opacity:0.7;" x="434.284809" xlink:href="#m28e0e14556" y="223.80411"/>
     <use style="fill:#d62728;fill-opacity:0.7;stroke:#d62728;stroke-opacity:0.7;" x="437.690247" xlink:href="#m28e0e14556" y="227.798722"/>
     <use style="fill:#d62728;fill-opacity:0.7;stroke:#d62728;stroke-opacity:0.7;" x="441.095375" xlink:href="#m28e0e14556" y="228.994007"/>
     <use style="fill:#d62728;fill-opacity:0.7;stroke:#d62728;stroke-opacity:0.7;" x="444.501859" xlink:href="#m28e0e14556" y="231.106049"/>
     <use style="fill:#d62728;fill-opacity:0.7;stroke:#d62728;stroke-opacity:0.7;" x="447.913439" xlink:href="#m28e0e14556" y="230.574988"/>
     <use style="fill:#d62728;fill-opacity:0.7;stroke:#d62728;stroke-opacity:0.7;" x="451.317733" xlink:href="#m28e0e14556" y="234.411356"/>
     <use style="fill:#d62728;fill-opacity:0.7;stroke:#d62728;stroke-opacity:0.7;" x="454.717494" xlink:href="#m28e0e14556" y="235.815516"/>
     <use style="fill:#d62728;fill-opacity:0.7;stroke:#d62728;stroke-opacity:0.7;" x="458.125403" xlink:href="#m28e0e14556" y="240.435337"/>
     <use style="fill:#d62728;fill-opacity:0.7;stroke:#d62728;stroke-opacity:0.7;" x="461.526069" xlink:href="#m28e0e14556" y="240.098203"/>
     <use style="fill:#d62728;fill-opacity:0.7;stroke:#d62728;stroke-opacity:0.7;" x="464.934826" xlink:href="#m28e0e14556" y="243.063797"/>
     <use style="fill:#d62728;fill-opacity:0.7;stroke:#d62728;stroke-opacity:0.7;" x="468.34167" xlink:href="#m28e0e14556" y="242.989442"/>
     <use style="fill:#d62728;fill-opacity:0.7;stroke:#d62728;stroke-opacity:0.7;" x="471.746606" xlink:href="#m28e0e14556" y="247.228067"/>
     <use style="fill:#d62728;fill-opacity:0.7;stroke:#d62728;stroke-opacity:0.7;" x="475.149243" xlink:href="#m28e0e14556" y="247.141906"/>
     <use style="fill:#d62728;fill-opacity:0.7;stroke:#d62728;stroke-opacity:0.7;" x="478.552811" xlink:href="#m28e0e14556" y="251.808917"/>
     <use style="fill:#d62728;fill-opacity:0.7;stroke:#d62728;stroke-opacity:0.7;" x="481.961401" xlink:href="#m28e0e14556" y="252.948139"/>
     <use style="fill:#d62728;fill-opacity:0.7;stroke:#d62728;stroke-opacity:0.7;" x="485.36466" xlink:href="#m28e0e14556" y="254.691877"/>
     <use style="fill:#d62728;fill-opacity:0.7;stroke:#d62728;stroke-opacity:0.7;" x="488.769291" xlink:href="#m28e0e14556" y="257.157368"/>
     <use style="fill:#d62728;fill-opacity:0.7;stroke:#d62728;stroke-opacity:0.7;" x="492.176294" xlink:href="#m28e0e14556" y="257.903256"/>
     <use style="fill:#d62728;fill-opacity:0.7;stroke:#d62728;stroke-opacity:0.7;" x="495.580514" xlink:href="#m28e0e14556" y="261.242585"/>
     <use style="fill:#d62728;fill-opacity:0.7;stroke:#d62728;stroke-opacity:0.7;" x="498.985807" xlink:href="#m28e0e14556" y="262.106462"/>
     <use style="fill:#d62728;fill-opacity:0.7;stroke:#d62728;stroke-opacity:0.7;" x="502.392441" xlink:href="#m28e0e14556" y="264.869103"/>
     <use style="fill:#d62728;fill-opacity:0.7;stroke:#d62728;stroke-opacity:0.7;" x="505.791729" xlink:href="#m28e0e14556" y="268.660108"/>
     <use style="fill:#d62728;fill-opacity:0.7;stroke:#d62728;stroke-opacity:0.7;" x="509.197202" xlink:href="#m28e0e14556" y="272.783348"/>
     <use style="fill:#d62728;fill-opacity:0.7;stroke:#d62728;stroke-opacity:0.7;" x="512.610939" xlink:href="#m28e0e14556" y="268.660108"/>
     <use style="fill:#d62728;fill-opacity:0.7;stroke:#d62728;stroke-opacity:0.7;" x="516.016077" xlink:href="#m28e0e14556" y="278.150923"/>
     <use style="fill:#d62728;fill-opacity:0.7;stroke:#d62728;stroke-opacity:0.7;" x="517.486204" xlink:href="#m28e0e14556" y="300.219308"/>
     <use style="fill:#d62728;fill-opacity:0.7;stroke:#d62728;stroke-opacity:0.7;" x="519.416579" xlink:href="#m28e0e14556" y="275.989773"/>
     <use style="fill:#d62728;fill-opacity:0.7;stroke:#d62728;stroke-opacity:0.7;" x="522.826335" xlink:href="#m28e0e14556" y="278.25438"/>
     <use style="fill:#d62728;fill-opacity:0.7;stroke:#d62728;stroke-opacity:0.7;" x="526.129591" xlink:href="#m28e0e14556" y="306.515926"/>
     <use style="fill:#d62728;fill-opacity:0.7;stroke:#d62728;stroke-opacity:0.7;" x="526.232682" xlink:href="#m28e0e14556" y="286.536719"/>
     <use style="fill:#d62728;fill-opacity:0.7;stroke:#d62728;stroke-opacity:0.7;" x="529.635644" xlink:href="#m28e0e14556" y="287.526919"/>
     <use style="fill:#d62728;fill-opacity:0.7;stroke:#d62728;stroke-opacity:0.7;" x="533.041308" xlink:href="#m28e0e14556" y="293.209405"/>
     <use style="fill:#d62728;fill-opacity:0.7;stroke:#d62728;stroke-opacity:0.7;" x="536.402481" xlink:href="#m28e0e14556" y="316.580505"/>
     <use style="fill:#d62728;fill-opacity:0.7;stroke:#d62728;stroke-opacity:0.7;" x="536.447546" xlink:href="#m28e0e14556" y="291.542768"/>
     <use style="fill:#d62728;fill-opacity:0.7;stroke:#d62728;stroke-opacity:0.7;" x="539.85187" xlink:href="#m28e0e14556" y="293.209405"/>
     <use style="fill:#d62728;fill-opacity:0.7;stroke:#d62728;stroke-opacity:0.7;" x="543.255111" xlink:href="#m28e0e14556" y="300.789383"/>
     <use style="fill:#d62728;fill-opacity:0.7;stroke:#d62728;stroke-opacity:0.7;" x="544.539938" xlink:href="#m28e0e14556" y="319.778391"/>
     <use style="fill:#d62728;fill-opacity:0.7;stroke:#d62728;stroke-opacity:0.7;" x="546.662509" xlink:href="#m28e0e14556" y="301.548129"/>
     <use style="fill:#d62728;fill-opacity:0.7;stroke:#d62728;stroke-opacity:0.7;" x="550.068316" xlink:href="#m28e0e14556" y="303.318041"/>
     <use style="fill:#d62728;fill-opacity:0.7;stroke:#d62728;stroke-opacity:0.7;" x="550.466746" xlink:href="#m28e0e14556" y="324.698258"/>
     <use style="fill:#d62728;fill-opacity:0.7;stroke:#d62728;stroke-opacity:0.7;" x="553.471544" xlink:href="#m28e0e14556" y="308.715829"/>
     <use style="fill:#d62728;fill-opacity:0.7;stroke:#d62728;stroke-opacity:0.7;" x="556.877826" xlink:href="#m28e0e14556" y="312.201935"/>
     <use style="fill:#d62728;fill-opacity:0.7;stroke:#d62728;stroke-opacity:0.7;" x="558.107731" xlink:href="#m28e0e14556" y="329.04805"/>
     <use style="fill:#d62728;fill-opacity:0.7;stroke:#d62728;stroke-opacity:0.7;" x="560.233707" xlink:href="#m28e0e14556" y="334.192762"/>
     <use style="fill:#d62728;fill-opacity:0.7;stroke:#d62728;stroke-opacity:0.7;" x="560.274538" xlink:href="#m28e0e14556" y="308.945554"/>
     <use style="fill:#d62728;fill-opacity:0.7;stroke:#d62728;stroke-opacity:0.7;" x="563.695957" xlink:href="#m28e0e14556" y="323.903338"/>
     <use style="fill:#d62728;fill-opacity:0.7;stroke:#d62728;stroke-opacity:0.7;" x="567.091995" xlink:href="#m28e0e14556" y="320.348466"/>
     <use style="fill:#d62728;fill-opacity:0.7;stroke:#d62728;stroke-opacity:0.7;" x="567.358937" xlink:href="#m28e0e14556" y="336.139588"/>
     <use style="fill:#d62728;fill-opacity:0.7;stroke:#d62728;stroke-opacity:0.7;" x="570.494258" xlink:href="#m28e0e14556" y="328.274912"/>
     <use style="fill:#d62728;fill-opacity:0.7;stroke:#d62728;stroke-opacity:0.7;" x="573.903459" xlink:href="#m28e0e14556" y="326.789422"/>
     <use style="fill:#d62728;fill-opacity:0.7;stroke:#d62728;stroke-opacity:0.7;" x="574.207011" xlink:href="#m28e0e14556" y="341.690319"/>
     <use style="fill:#d62728;fill-opacity:0.7;stroke:#d62728;stroke-opacity:0.7;" x="576.518078" xlink:href="#m28e0e14556" y="332.371627"/>
     <use style="fill:#d62728;fill-opacity:0.7;stroke:#d62728;stroke-opacity:0.7;" x="577.313918" xlink:href="#m28e0e14556" y="332.726573"/>
     <use style="fill:#d62728;fill-opacity:0.7;stroke:#d62728;stroke-opacity:0.7;" x="577.602332" xlink:href="#m28e0e14556" y="312.812544"/>
     <use style="fill:#d62728;fill-opacity:0.7;stroke:#d62728;stroke-opacity:0.7;" x="578.948767" xlink:href="#m28e0e14556" y="280.660225"/>
     <use style="fill:#d62728;fill-opacity:0.7;stroke:#d62728;stroke-opacity:0.7;" x="580.71654" xlink:href="#m28e0e14556" y="326.216452"/>
     <use style="fill:#d62728;fill-opacity:0.7;stroke:#d62728;stroke-opacity:0.7;" x="581.544444" xlink:href="#m28e0e14556" y="247.838677"/>
     <use style="fill:#d62728;fill-opacity:0.7;stroke:#d62728;stroke-opacity:0.7;" x="582.603773" xlink:href="#m28e0e14556" y="346.785999"/>
     <use style="fill:#d62728;fill-opacity:0.7;stroke:#d62728;stroke-opacity:0.7;" x="582.840336" xlink:href="#m28e0e14556" y="296.521979"/>
     <use style="fill:#d62728;fill-opacity:0.7;stroke:#d62728;stroke-opacity:0.7;" x="583.074809" xlink:href="#m28e0e14556" y="314.633679"/>
     <use style="fill:#d62728;fill-opacity:0.7;stroke:#d62728;stroke-opacity:0.7;" x="583.307232" xlink:href="#m28e0e14556" y="293.697845"/>
     <use style="fill:#d62728;fill-opacity:0.7;stroke:#d62728;stroke-opacity:0.7;" x="583.315801" xlink:href="#m28e0e14556" y="228.279594"/>
     <use style="fill:#d62728;fill-opacity:0.7;stroke:#d62728;stroke-opacity:0.7;" x="583.546133" xlink:href="#m28e0e14556" y="305.819155"/>
     <use style="fill:#d62728;fill-opacity:0.7;stroke:#d62728;stroke-opacity:0.7;" x="583.791322" xlink:href="#m28e0e14556" y="305.819155"/>
     <use style="fill:#d62728;fill-opacity:0.7;stroke:#d62728;stroke-opacity:0.7;" x="584.025927" xlink:href="#m28e0e14556" y="293.697845"/>
     <use style="fill:#d62728;fill-opacity:0.7;stroke:#d62728;stroke-opacity:0.7;" x="584.266746" xlink:href="#m28e0e14556" y="292.385153"/>
     <use style="fill:#d62728;fill-opacity:0.7;stroke:#d62728;stroke-opacity:0.7;" x="584.513593" xlink:href="#m28e0e14556" y="323.385566"/>
     <use style="fill:#d62728;fill-opacity:0.7;stroke:#d62728;stroke-opacity:0.7;" x="584.758167" xlink:href="#m28e0e14556" y="269.218895"/>
     <use style="fill:#d62728;fill-opacity:0.7;stroke:#d62728;stroke-opacity:0.7;" x="585.000509" xlink:href="#m28e0e14556" y="272.613105"/>
     <use style="fill:#d62728;fill-opacity:0.7;stroke:#d62728;stroke-opacity:0.7;" x="585.248628" xlink:href="#m28e0e14556" y="275.281339"/>
     <use style="fill:#d62728;fill-opacity:0.7;stroke:#d62728;stroke-opacity:0.7;" x="585.49445" xlink:href="#m28e0e14556" y="279.826141"/>
     <use style="fill:#d62728;fill-opacity:0.7;stroke:#d62728;stroke-opacity:0.7;" x="585.745838" xlink:href="#m28e0e14556" y="266.021009"/>
     <use style="fill:#d62728;fill-opacity:0.7;stroke:#d62728;stroke-opacity:0.7;" x="585.769284" xlink:href="#m28e0e14556" y="210.541646"/>
     <use style="fill:#d62728;fill-opacity:0.7;stroke:#d62728;stroke-opacity:0.7;" x="585.994869" xlink:href="#m28e0e14556" y="257.527848"/>
     <use style="fill:#d62728;fill-opacity:0.7;stroke:#d62728;stroke-opacity:0.7;" x="586.241587" xlink:href="#m28e0e14556" y="254.917621"/>
     <use style="fill:#d62728;fill-opacity:0.7;stroke:#d62728;stroke-opacity:0.7;" x="586.493637" xlink:href="#m28e0e14556" y="251.910603"/>
     <use style="fill:#d62728;fill-opacity:0.7;stroke:#d62728;stroke-opacity:0.7;" x="586.750847" xlink:href="#m28e0e14556" y="239.698888"/>
     <use style="fill:#d62728;fill-opacity:0.7;stroke:#d62728;stroke-opacity:0.7;" x="587.00559" xlink:href="#m28e0e14556" y="231.399987"/>
     <use style="fill:#d62728;fill-opacity:0.7;stroke:#d62728;stroke-opacity:0.7;" x="587.257913" xlink:href="#m28e0e14556" y="225.953216"/>
     <use style="fill:#d62728;fill-opacity:0.7;stroke:#d62728;stroke-opacity:0.7;" x="587.515177" xlink:href="#m28e0e14556" y="214.309607"/>
     <use style="fill:#d62728;fill-opacity:0.7;stroke:#d62728;stroke-opacity:0.7;" x="587.777218" xlink:href="#m28e0e14556" y="210.075225"/>
     <use style="fill:#d62728;fill-opacity:0.7;stroke:#d62728;stroke-opacity:0.7;" x="588.036699" xlink:href="#m28e0e14556" y="192.183501"/>
     <use style="fill:#d62728;fill-opacity:0.7;stroke:#d62728;stroke-opacity:0.7;" x="588.293669" xlink:href="#m28e0e14556" y="184.780161"/>
     <use style="fill:#d62728;fill-opacity:0.7;stroke:#d62728;stroke-opacity:0.7;" x="588.555212" xlink:href="#m28e0e14556" y="172.077662"/>
     <use style="fill:#d62728;fill-opacity:0.7;stroke:#d62728;stroke-opacity:0.7;" x="588.723494" xlink:href="#m28e0e14556" y="204.245027"/>
     <use style="fill:#d62728;fill-opacity:0.7;stroke:#d62728;stroke-opacity:0.7;" x="588.821169" xlink:href="#m28e0e14556" y="161.512162"/>
     <use style="fill:#d62728;fill-opacity:0.7;stroke:#d62728;stroke-opacity:0.7;" x="589.08449" xlink:href="#m28e0e14556" y="150.825588"/>
     <use style="fill:#d62728;fill-opacity:0.7;stroke:#d62728;stroke-opacity:0.7;" x="589.352052" xlink:href="#m28e0e14556" y="136.24174"/>
     <use style="fill:#d62728;fill-opacity:0.7;stroke:#d62728;stroke-opacity:0.7;" x="589.616947" xlink:href="#m28e0e14556" y="112.453816"/>
     <use style="fill:#d62728;fill-opacity:0.7;stroke:#d62728;stroke-opacity:0.7;" x="589.885916" xlink:href="#m28e0e14556" y="89.571156"/>
     <use style="fill:#d62728;fill-opacity:0.7;stroke:#d62728;stroke-opacity:0.7;" x="590.158812" xlink:href="#m28e0e14556" y="96.086801"/>
     <use style="fill:#d62728;fill-opacity:0.7;stroke:#d62728;stroke-opacity:0.7;" x="590.428932" xlink:href="#m28e0e14556" y="146.161859"/>
     <use style="fill:#d62728;fill-opacity:0.7;stroke:#d62728;stroke-opacity:0.7;" x="590.702822" xlink:href="#m28e0e14556" y="202.423893"/>
     <use style="fill:#d62728;fill-opacity:0.7;stroke:#d62728;stroke-opacity:0.7;" x="590.973916" xlink:href="#m28e0e14556" y="224.799685"/>
     <use style="fill:#d62728;fill-opacity:0.7;stroke:#d62728;stroke-opacity:0.7;" x="591.248627" xlink:href="#m28e0e14556" y="244.5151"/>
     <use style="fill:#d62728;fill-opacity:0.7;stroke:#d62728;stroke-opacity:0.7;" x="591.526816" xlink:href="#m28e0e14556" y="253.374076"/>
     <use style="fill:#d62728;fill-opacity:0.7;stroke:#d62728;stroke-opacity:0.7;" x="591.808346" xlink:href="#m28e0e14556" y="257.157368"/>
     <use style="fill:#d62728;fill-opacity:0.7;stroke:#d62728;stroke-opacity:0.7;" x="592.086923" xlink:href="#m28e0e14556" y="275.989773"/>
     <use style="fill:#d62728;fill-opacity:0.7;stroke:#d62728;stroke-opacity:0.7;" x="592.368702" xlink:href="#m28e0e14556" y="264.231385"/>
     <use style="fill:#d62728;fill-opacity:0.7;stroke:#d62728;stroke-opacity:0.7;" x="592.647524" xlink:href="#m28e0e14556" y="272.82607"/>
     <use style="fill:#d62728;fill-opacity:0.7;stroke:#d62728;stroke-opacity:0.7;" x="592.93538" xlink:href="#m28e0e14556" y="280.101438"/>
     <use style="fill:#d62728;fill-opacity:0.7;stroke:#d62728;stroke-opacity:0.7;" x="593.220151" xlink:href="#m28e0e14556" y="301.965295"/>
     <use style="fill:#d62728;fill-opacity:0.7;stroke:#d62728;stroke-opacity:0.7;" x="594.369236" xlink:href="#m28e0e14556" y="208.283017"/>
     <use style="fill:#d62728;fill-opacity:0.7;stroke:#d62728;stroke-opacity:0.7;" x="595.906224" xlink:href="#m28e0e14556" y="315.687777"/>
     <use style="fill:#d62728;fill-opacity:0.7;stroke:#d62728;stroke-opacity:0.7;" x="597.054401" xlink:href="#m28e0e14556" y="220.606225"/>
     <use style="fill:#d62728;fill-opacity:0.7;stroke:#d62728;stroke-opacity:0.7;" x="599.492857" xlink:href="#m28e0e14556" y="237.598285"/>
     <use style="fill:#d62728;fill-opacity:0.7;stroke:#d62728;stroke-opacity:0.7;" x="601.428898" xlink:href="#m28e0e14556" y="345.634092"/>
     <use style="fill:#d62728;fill-opacity:0.7;stroke:#d62728;stroke-opacity:0.7;" x="602.151126" xlink:href="#m28e0e14556" y="249.659812"/>
     <use style="fill:#d62728;fill-opacity:0.7;stroke:#d62728;stroke-opacity:0.7;" x="606.064146" xlink:href="#m28e0e14556" y="271.165721"/>
     <use style="fill:#d62728;fill-opacity:0.7;stroke:#d62728;stroke-opacity:0.7;" x="606.958524" xlink:href="#m28e0e14556" y="363.548955"/>
     <use style="fill:#d62728;fill-opacity:0.7;stroke:#d62728;stroke-opacity:0.7;" x="608.496218" xlink:href="#m28e0e14556" y="285.24615"/>
     <use style="fill:#d62728;fill-opacity:0.7;stroke:#d62728;stroke-opacity:0.7;" x="610.724154" xlink:href="#m28e0e14556" y="293.697845"/>
     <use style="fill:#d62728;fill-opacity:0.7;stroke:#d62728;stroke-opacity:0.7;" x="612.466936" xlink:href="#m28e0e14556" y="367.54602"/>
     <use style="fill:#d62728;fill-opacity:0.7;stroke:#d62728;stroke-opacity:0.7;" x="613.06065" xlink:href="#m28e0e14556" y="298.047637"/>
     <use style="fill:#d62728;fill-opacity:0.7;stroke:#d62728;stroke-opacity:0.7;" x="614.423026" xlink:href="#m28e0e14556" y="298.047637"/>
     <use style="fill:#d62728;fill-opacity:0.7;stroke:#d62728;stroke-opacity:0.7;" x="617.996236" xlink:href="#m28e0e14556" y="363.548955"/>
     <use style="fill:#d62728;fill-opacity:0.7;stroke:#d62728;stroke-opacity:0.7;" x="618.135175" xlink:href="#m28e0e14556" y="300.789383"/>
     <use style="fill:#d62728;fill-opacity:0.7;stroke:#d62728;stroke-opacity:0.7;" x="620.349834" xlink:href="#m28e0e14556" y="305.819155"/>
     <use style="fill:#d62728;fill-opacity:0.7;stroke:#d62728;stroke-opacity:0.7;" x="621.391556" xlink:href="#m28e0e14556" y="303.192349"/>
     <use style="fill:#d62728;fill-opacity:0.7;stroke:#d62728;stroke-opacity:0.7;" x="622.393959" xlink:href="#m28e0e14556" y="307.96331"/>
     <use style="fill:#d62728;fill-opacity:0.7;stroke:#d62728;stroke-opacity:0.7;" x="623.511245" xlink:href="#m28e0e14556" y="379.607546"/>
     <use style="fill:#d62728;fill-opacity:0.7;stroke:#d62728;stroke-opacity:0.7;" x="624.291946" xlink:href="#m28e0e14556" y="324.698258"/>
     <use style="fill:#d62728;fill-opacity:0.7;stroke:#d62728;stroke-opacity:0.7;" x="625.192389" xlink:href="#m28e0e14556" y="324.698258"/>
     <use style="fill:#d62728;fill-opacity:0.7;stroke:#d62728;stroke-opacity:0.7;" x="627.723876" xlink:href="#m28e0e14556" y="323.385566"/>
     <use style="fill:#d62728;fill-opacity:0.7;stroke:#d62728;stroke-opacity:0.7;" x="629.042755" xlink:href="#m28e0e14556" y="375.257754"/>
     <use style="fill:#d62728;fill-opacity:0.7;stroke:#d62728;stroke-opacity:0.7;" x="629.286711" xlink:href="#m28e0e14556" y="320.930297"/>
     <use style="fill:#d62728;fill-opacity:0.7;stroke:#d62728;stroke-opacity:0.7;" x="632.833373" xlink:href="#m28e0e14556" y="329.04805"/>
     <use style="fill:#d62728;fill-opacity:0.7;stroke:#d62728;stroke-opacity:0.7;" x="634.129265" xlink:href="#m28e0e14556" y="329.84297"/>
     <use style="fill:#d62728;fill-opacity:0.7;stroke:#d62728;stroke-opacity:0.7;" x="634.568292" xlink:href="#m28e0e14556" y="385.904164"/>
     <use style="fill:#d62728;fill-opacity:0.7;stroke:#d62728;stroke-opacity:0.7;" x="636.545523" xlink:href="#m28e0e14556" y="330.660934"/>
     <use style="fill:#d62728;fill-opacity:0.7;stroke:#d62728;stroke-opacity:0.7;" x="640.086411" xlink:href="#m28e0e14556" y="391.332475"/>
     <use style="fill:#d62728;fill-opacity:0.7;stroke:#d62728;stroke-opacity:0.7;" x="642.702293" xlink:href="#m28e0e14556" y="326.075009"/>
     <use style="fill:#d62728;fill-opacity:0.7;stroke:#d62728;stroke-opacity:0.7;" x="645.61405" xlink:href="#m28e0e14556" y="377.786412"/>
     <use style="fill:#d62728;fill-opacity:0.7;stroke:#d62728;stroke-opacity:0.7;" x="646.134224" xlink:href="#m28e0e14556" y="308.715829"/>
     <use style="fill:#d62728;fill-opacity:0.7;stroke:#d62728;stroke-opacity:0.7;" x="648.592441" xlink:href="#m28e0e14556" y="344.257341"/>
     <use style="fill:#d62728;fill-opacity:0.7;stroke:#d62728;stroke-opacity:0.7;" x="649.458621" xlink:href="#m28e0e14556" y="330.004677"/>
     <use style="fill:#d62728;fill-opacity:0.7;stroke:#d62728;stroke-opacity:0.7;" x="649.881344" xlink:href="#m28e0e14556" y="300.219308"/>
     <use style="fill:#d62728;fill-opacity:0.7;stroke:#d62728;stroke-opacity:0.7;" x="650.297444" xlink:href="#m28e0e14556" y="303.192349"/>
     <use style="fill:#d62728;fill-opacity:0.7;stroke:#d62728;stroke-opacity:0.7;" x="651.110585" xlink:href="#m28e0e14556" y="274.138762"/>
     <use style="fill:#d62728;fill-opacity:0.7;stroke:#d62728;stroke-opacity:0.7;" x="651.964272" xlink:href="#m28e0e14556" y="239.370388"/>
     <use style="fill:#d62728;fill-opacity:0.7;stroke:#d62728;stroke-opacity:0.7;" x="652.853942" xlink:href="#m28e0e14556" y="206.394133"/>
     <use style="fill:#d62728;fill-opacity:0.7;stroke:#d62728;stroke-opacity:0.7;" x="653.714775" xlink:href="#m28e0e14556" y="243.363193"/>
     <use style="fill:#d62728;fill-opacity:0.7;stroke:#d62728;stroke-opacity:0.7;" x="654.372099" xlink:href="#m28e0e14556" y="299.660521"/>
     <use style="fill:#d62728;fill-opacity:0.7;stroke:#d62728;stroke-opacity:0.7;" x="654.665588" xlink:href="#m28e0e14556" y="365.193175"/>
     <use style="fill:#d62728;fill-opacity:0.7;stroke:#d62728;stroke-opacity:0.7;" x="655.583538" xlink:href="#m28e0e14556" y="385.904164"/>
     <use style="fill:#d62728;fill-opacity:0.7;stroke:#d62728;stroke-opacity:0.7;" x="656.525302" xlink:href="#m28e0e14556" y="388.359433"/>
     <use style="fill:#d62728;fill-opacity:0.7;stroke:#d62728;stroke-opacity:0.7;" x="657.696497" xlink:href="#m28e0e14556" y="305.139175"/>
     <use style="fill:#d62728;fill-opacity:0.7;stroke:#d62728;stroke-opacity:0.7;" x="657.955626" xlink:href="#m28e0e14556" y="403.642113"/>
     <use style="fill:#d62728;fill-opacity:0.7;stroke:#d62728;stroke-opacity:0.7;" x="662.013083" xlink:href="#m28e0e14556" y="316.580505"/>
     <use style="fill:#d62728;fill-opacity:0.7;stroke:#d62728;stroke-opacity:0.7;" x="662.926803" xlink:href="#m28e0e14556" y="405.937507"/>
     <use style="fill:#d62728;fill-opacity:0.7;stroke:#d62728;stroke-opacity:0.7;" x="667.583369" xlink:href="#m28e0e14556" y="326.075009"/>
     <use style="fill:#d62728;fill-opacity:0.7;stroke:#d62728;stroke-opacity:0.7;" x="667.904454" xlink:href="#m28e0e14556" y="394.978544"/>
     <use style="fill:#d62728;fill-opacity:0.7;stroke:#d62728;stroke-opacity:0.7;" x="672.900231" xlink:href="#m28e0e14556" y="409.773875"/>
     <use style="fill:#d62728;fill-opacity:0.7;stroke:#d62728;stroke-opacity:0.7;" x="677.8698" xlink:href="#m28e0e14556" y="400.123256"/>
     <use style="fill:#d62728;fill-opacity:0.7;stroke:#d62728;stroke-opacity:0.7;" x="681.294345" xlink:href="#m28e0e14556" y="399.166629"/>
     <use style="fill:#d62728;fill-opacity:0.7;stroke:#d62728;stroke-opacity:0.7;" x="682.813692" xlink:href="#m28e0e14556" y="401.113456"/>
     <use style="fill:#d62728;fill-opacity:0.7;stroke:#d62728;stroke-opacity:0.7;" x="684.384617" xlink:href="#m28e0e14556" y="356.516636"/>
     <use style="fill:#d62728;fill-opacity:0.7;stroke:#d62728;stroke-opacity:0.7;" x="686.011657" xlink:href="#m28e0e14556" y="329.52231"/>
     <use style="fill:#d62728;fill-opacity:0.7;stroke:#d62728;stroke-opacity:0.7;" x="687.679837" xlink:href="#m28e0e14556" y="293.519251"/>
     <use style="fill:#d62728;fill-opacity:0.7;stroke:#d62728;stroke-opacity:0.7;" x="689.360307" xlink:href="#m28e0e14556" y="295.216039"/>
     <use style="fill:#d62728;fill-opacity:0.7;stroke:#d62728;stroke-opacity:0.7;" x="691.192793" xlink:href="#m28e0e14556" y="357.789835"/>
     <use style="fill:#d62728;fill-opacity:0.7;stroke:#d62728;stroke-opacity:0.7;" x="693.044947" xlink:href="#m28e0e14556" y="391.048876"/>
     <use style="fill:#d62728;fill-opacity:0.7;stroke:#d62728;stroke-opacity:0.7;" x="694.904943" xlink:href="#m28e0e14556" y="431.318949"/>
     <use style="fill:#d62728;fill-opacity:0.7;stroke:#d62728;stroke-opacity:0.7;" x="696.882452" xlink:href="#m28e0e14556" y="383.645536"/>
     <use style="fill:#d62728;fill-opacity:0.7;stroke:#d62728;stroke-opacity:0.7;" x="698.944217" xlink:href="#m28e0e14556" y="383.645536"/>
     <use style="fill:#d62728;fill-opacity:0.7;stroke:#d62728;stroke-opacity:0.7;" x="701.163283" xlink:href="#m28e0e14556" y="333.08604"/>
     <use style="fill:#d62728;fill-opacity:0.7;stroke:#d62728;stroke-opacity:0.7;" x="703.39821" xlink:href="#m28e0e14556" y="318.889568"/>
     <use style="fill:#d62728;fill-opacity:0.7;stroke:#d62728;stroke-opacity:0.7;" x="705.717042" xlink:href="#m28e0e14556" y="410.607959"/>
     <use style="fill:#d62728;fill-opacity:0.7;stroke:#d62728;stroke-opacity:0.7;" x="708.162988" xlink:href="#m28e0e14556" y="385.904164"/>
     <use style="fill:#d62728;fill-opacity:0.7;stroke:#d62728;stroke-opacity:0.7;" x="710.687394" xlink:href="#m28e0e14556" y="397.345495"/>
     <use style="fill:#d62728;fill-opacity:0.7;stroke:#d62728;stroke-opacity:0.7;" x="713.379369" xlink:href="#m28e0e14556" y="356.10469"/>
     <use style="fill:#d62728;fill-opacity:0.7;stroke:#d62728;stroke-opacity:0.7;" x="716.171397" xlink:href="#m28e0e14556" y="382.580587"/>
     <use style="fill:#d62728;fill-opacity:0.7;stroke:#d62728;stroke-opacity:0.7;" x="719.164999" xlink:href="#m28e0e14556" y="339.564124"/>
     <use style="fill:#d62728;fill-opacity:0.7;stroke:#d62728;stroke-opacity:0.7;" x="722.316245" xlink:href="#m28e0e14556" y="301.13704"/>
     <use style="fill:#d62728;fill-opacity:0.7;stroke:#d62728;stroke-opacity:0.7;" x="725.702421" xlink:href="#m28e0e14556" y="327.820996"/>
     <use style="fill:#d62728;fill-opacity:0.7;stroke:#d62728;stroke-opacity:0.7;" x="729.449541" xlink:href="#m28e0e14556" y="361.495847"/>
     <use style="fill:#d62728;fill-opacity:0.7;stroke:#d62728;stroke-opacity:0.7;" x="733.039853" xlink:href="#m28e0e14556" y="314.633679"/>
     <use style="fill:#d62728;fill-opacity:0.7;stroke:#d62728;stroke-opacity:0.7;" x="737.264694" xlink:href="#m28e0e14556" y="330.004677"/>
     <use style="fill:#d62728;fill-opacity:0.7;stroke:#d62728;stroke-opacity:0.7;" x="741.801701" xlink:href="#m28e0e14556" y="311.773735"/>
     <use style="fill:#d62728;fill-opacity:0.7;stroke:#d62728;stroke-opacity:0.7;" x="746.790193" xlink:href="#m28e0e14556" y="290.724804"/>
     <use style="fill:#d62728;fill-opacity:0.7;stroke:#d62728;stroke-opacity:0.7;" x="868.180346" xlink:href="#m28e0e14556" y="181.996502"/>
     <use style="fill:#d62728;fill-opacity:0.7;stroke:#d62728;stroke-opacity:0.7;" x="869.105893" xlink:href="#m28e0e14556" y="211.256058"/>
     <use style="fill:#d62728;fill-opacity:0.7;stroke:#d62728;stroke-opacity:0.7;" x="869.105893" xlink:href="#m28e0e14556" y="208.066788"/>
     <use style="fill:#d62728;fill-opacity:0.7;stroke:#d62728;stroke-opacity:0.7;" x="869.287194" xlink:href="#m28e0e14556" y="208.941828"/>
    </g>
   </g>
   <g id="PathCollection_2">
    <g clip-path="url(#pb2a218fe00)">
     <use style="fill:#d62728;fill-opacity:0.7;stroke:#d62728;stroke-opacity:0.7;" x="821.369898" xlink:href="#m28e0e14556" y="266.358951"/>
     <use style="fill:#d62728;fill-opacity:0.7;stroke:#d62728;stroke-opacity:0.7;" x="821.369898" xlink:href="#m28e0e14556" y="261.671218"/>
     <use style="fill:#d62728;fill-opacity:0.7;stroke:#d62728;stroke-opacity:0.7;" x="822.44537" xlink:href="#m28e0e14556" y="253.58948"/>
     <use style="fill:#d62728;fill-opacity:0.7;stroke:#d62728;stroke-opacity:0.7;" x="822.44537" xlink:href="#m28e0e14556" y="254.025284"/>
     <use style="fill:#d62728;fill-opacity:0.7;stroke:#d62728;stroke-opacity:0.7;" x="823.070352" xlink:href="#m28e0e14556" y="238.470428"/>
     <use style="fill:#d62728;fill-opacity:0.7;stroke:#d62728;stroke-opacity:0.7;" x="823.070352" xlink:href="#m28e0e14556" y="240.367587"/>
     <use style="fill:#d62728;fill-opacity:0.7;stroke:#d62728;stroke-opacity:0.7;" x="823.680965" xlink:href="#m28e0e14556" y="235.24544"/>
     <use style="fill:#d62728;fill-opacity:0.7;stroke:#d62728;stroke-opacity:0.7;" x="823.680965" xlink:href="#m28e0e14556" y="236.515167"/>
     <use style="fill:#d62728;fill-opacity:0.7;stroke:#d62728;stroke-opacity:0.7;" x="824.668459" xlink:href="#m28e0e14556" y="251.206379"/>
     <use style="fill:#d62728;fill-opacity:0.7;stroke:#d62728;stroke-opacity:0.7;" x="824.668459" xlink:href="#m28e0e14556" y="251.50604"/>
     <use style="fill:#d62728;fill-opacity:0.7;stroke:#d62728;stroke-opacity:0.7;" x="824.668459" xlink:href="#m28e0e14556" y="248.283061"/>
     <use style="fill:#d62728;fill-opacity:0.7;stroke:#d62728;stroke-opacity:0.7;" x="824.668459" xlink:href="#m28e0e14556" y="247.488141"/>
    </g>
   </g>
   <g id="line2d_23">
    <path clip-path="url(#pb2a218fe00)" d="M 125.160227 60.910123 
L 406.219792 210.326134 
L 435.05844 225.88201 
L 456.268219 237.593746 
L 472.081947 246.641207 
L 481.943299 252.531659 
L 490.129556 257.613751 
L 496.827421 261.962524 
L 504.082714 266.91238 
L 510.59525 271.608569 
L 516.362123 276.020398 
L 521.758265 280.409079 
L 527.897319 285.746192 
L 534.037656 291.503954 
L 539.432454 296.946342 
L 544.269792 302.167626 
L 549.479244 308.130288 
L 554.503331 314.209015 
L 566.967977 329.617646 
L 569.200629 332.016737 
L 571.247929 333.877549 
L 572.177524 334.577632 
L 574.037936 335.553941 
L 574.782172 335.758015 
L 575.561479 335.814146 
L 576.340749 335.687512 
L 577.084919 335.373096 
L 577.643734 334.988133 
L 578.201215 334.456225 
L 579.317537 332.903398 
L 580.24841 330.991518 
L 581.178049 328.396586 
L 582.015762 325.354022 
L 582.853155 321.489817 
L 583.690223 316.617515 
L 584.526939 310.518666 
L 585.364685 302.797504 
L 586.248569 292.295469 
L 586.992761 280.721665 
L 587.667185 266.910126 
L 588.312558 248.733736 
L 588.828619 227.588545 
L 589.256314 200.259081 
L 589.570747 164.686497 
L 589.766964 115.399961 
L 589.940386 50.45 
L 589.990214 58.332135 
L 590.433651 182.093721 
L 590.825996 215.80651 
L 591.35253 242.423595 
L 591.96706 262.952693 
L 592.688132 280.198986 
L 593.525362 295.171455 
L 594.455953 308.082223 
L 595.56856 320.291627 
L 596.759945 330.830751 
L 598.03279 340.151156 
L 599.48265 349.085187 
L 601.002413 357.103569 
L 602.792163 365.310182 
L 604.620336 372.701874 
L 607.031071 381.419552 
L 609.752651 390.270598 
L 612.850214 399.51586 
L 616.909322 410.741689 
L 621.167712 421.791795 
L 625.584523 432.679338 
L 630.243508 443.523119 
L 633.270528 450.104512 
L 636.062608 455.64825 
L 637.85384 458.792566 
L 639.531866 461.283953 
L 640.594438 462.539435 
L 641.667699 463.459146 
L 642.112562 463.713331 
L 642.891753 463.94721 
L 643.489702 463.890469 
L 643.929537 463.692585 
L 644.36212 463.366199 
L 645.20679 462.22833 
L 645.755341 461.071565 
L 646.292791 459.54747 
L 647.079109 456.460535 
L 647.780025 452.624644 
L 648.536326 446.984604 
L 649.263604 439.574757 
L 649.982222 429.567784 
L 650.581957 418.199219 
L 651.203251 401.77706 
L 651.695959 382.829159 
L 652.120075 357.88424 
L 652.456766 323.884141 
L 652.685169 276.154057 
L 652.804274 199.648804 
L 652.858691 102.919549 
L 652.913807 200.999313 
L 653.07804 289.942859 
L 653.37513 338.766296 
L 653.798619 372.716606 
L 654.309046 397.152336 
L 654.947554 417.449974 
L 655.687658 433.957974 
L 656.536675 447.781421 
L 657.440652 458.880797 
L 658.318332 467.337238 
L 659.326709 475.118922 
L 660.493442 482.301481 
L 661.725923 488.379277 
L 663.016299 493.524335 
L 664.486315 498.219179 
L 665.693187 501.314204 
L 666.758071 503.542261 
L 667.781937 505.266505 
L 669.08839 506.884656 
L 669.7183 507.429632 
L 670.861848 508.014449 
L 671.507715 508.10517 
L 672.573064 507.840073 
L 673.542834 507.145722 
L 674.478467 506.024117 
L 675.40807 504.431034 
L 676.152374 502.769973 
L 677.246785 499.642441 
L 678.334779 495.604821 
L 679.303647 491.079993 
L 680.42166 484.498202 
L 681.354039 477.541999 
L 682.254589 469.016727 
L 683.026655 459.56922 
L 683.744703 447.843332 
L 684.349701 433.98303 
L 684.863998 416.403184 
L 685.277603 393.642288 
L 685.595387 362.685268 
L 685.826109 315.907538 
L 685.96858 234.325956 
L 685.997485 218.245361 
L 686.051262 256.397709 
L 686.265109 339.910544 
L 686.553444 377.467595 
L 686.880893 395.428077 
L 687.144274 400.00654 
L 687.197324 400.129484 
L 687.250439 400.003633 
L 687.373567 398.845092 
L 687.583323 394.200725 
L 687.884691 381.447348 
L 688.198869 357.007091 
L 688.440395 318.188849 
L 688.583872 254.986947 
L 688.64907 134.277819 
L 688.702443 246.397502 
L 688.892027 341.356145 
L 689.404222 479.07428 
L 689.444755 469.529614 
L 689.847342 251.304816 
L 689.88302 193.427701 
L 689.943563 275.406849 
L 690.126979 345.139283 
L 690.421329 380.535386 
L 690.848831 405.485125 
L 691.390082 424.454739 
L 692.016829 439.503091 
L 692.826614 453.581163 
L 693.602333 463.78866 
L 694.540356 473.375167 
L 695.410398 480.260625 
L 696.350962 485.862208 
L 697.164304 489.204152 
L 697.666393 490.503238 
L 698.196714 491.131551 
L 698.295038 491.151975 
L 698.522867 491.068609 
L 698.941021 490.375013 
L 699.289672 489.155357 
L 699.727067 486.546695 
L 700.187681 482.012161 
L 700.610547 475.440808 
L 701.020875 465.520831 
L 701.414518 450.184129 
L 701.755461 427.1824 
L 702.025531 391.830078 
L 702.201107 336.220932 
L 702.282776 227.300215 
L 702.300653 166.2944 
L 702.372139 319.033099 
L 702.584297 399.422498 
L 702.924685 446.732955 
L 703.373968 479.766441 
L 703.885867 502.629364 
L 704.460176 518.664841 
L 705.007422 528.185284 
L 705.512827 533.758999 
L 706.049647 537.445622 
L 706.534705 539.429714 
L 706.943544 540.413833 
L 707.479028 540.993514 
L 707.709954 541.05 
L 708.068808 540.936283 
L 708.418481 540.623837 
L 709.036566 539.659216 
L 709.706819 538.123949 
L 710.563511 535.474779 
L 711.692451 530.929078 
L 712.939189 524.556049 
L 714.144699 516.969412 
L 715.382454 507.500818 
L 716.45718 497.539308 
L 717.509671 485.572572 
L 718.249909 474.841042 
L 718.658747 465.987729 
L 718.880686 455.288969 
L 719.020635 434.265548 
L 719.123582 374.782084 
L 719.169117 187.302154 
L 719.225669 383.442665 
L 719.388993 436.977213 
L 719.562781 444.311256 
L 719.622146 444.584329 
L 719.65956 444.492386 
L 719.818789 442.760279 
L 719.849306 442.302736 
L 719.860491 443.803364 
L 719.862847 444.054367 
L 719.879639 441.732436 
L 720.33012 430.823978 
L 720.878693 411.31534 
L 721.346935 386.189901 
L 721.712299 353.746127 
L 721.966749 310.163212 
L 722.125202 240.401984 
L 722.184074 188.502966 
L 722.238828 236.953929 
L 722.445487 320.273472 
L 722.768743 365.322029 
L 723.208932 396.69832 
L 723.766293 420.838543 
L 724.442235 440.459653 
L 725.290329 457.685701 
L 726.107265 469.983418 
L 726.514229 474.340847 
L 726.539783 474.245416 
L 726.572946 473.979965 
L 726.592957 474.374081 
L 726.719638 477.583196 
L 727.547042 485.773268 
L 728.37406 492.236753 
L 729.258353 497.481182 
L 729.260852 497.447111 
L 729.2725 491.003467 
L 729.302563 497.601617 
L 729.985786 500.361822 
L 730.52639 501.711437 
L 730.792588 502.094478 
L 731.191465 502.293311 
L 731.401444 502.196618 
L 731.618216 501.962721 
L 732.025186 501.047514 
L 732.367618 499.709644 
L 732.761252 497.180685 
L 733.074756 493.583232 
L 733.33136 487.825529 
L 733.557379 476.739936 
L 733.761207 453.299972 
L 733.93826 402.715932 
L 734.041946 299.700386 
L 734.064074 205.515541 
L 734.132048 359.939471 
L 734.321204 422.966031 
L 734.563417 443.512612 
L 734.808526 449.536239 
L 734.958171 450.297813 
L 735.024238 450.203523 
L 735.155907 449.429261 
L 735.44752 445.599798 
L 735.865068 436.259189 
L 736.372116 418.863865 
L 736.830202 394.412604 
L 737.196382 361.522542 
L 737.448935 317.642381 
L 737.656808 234.83427 
L 737.732647 268.883226 
L 737.987019 342.189376 
L 738.343947 382.366528 
L 738.802272 410.061071 
L 739.363013 430.935105 
L 740.081085 449.822909 
L 740.097006 449.364666 
L 740.109408 449.226159 
L 740.126714 449.355085 
L 741.191537 463.837192 
L 741.613355 467.039433 
L 741.89111 468.260437 
L 742.143246 468.647743 
L 742.256988 468.560261 
L 742.483022 467.816162 
L 742.751874 465.724248 
L 743.062239 461.121385 
L 743.419462 451.512847 
L 743.759916 435.273291 
L 744.066045 408.985577 
L 744.312028 367.088028 
L 744.509803 302.375682 
L 744.583443 325.09569 
L 744.85133 395.829678 
L 745.208416 433.563692 
L 745.632121 456.716904 
L 746.125388 472.276565 
L 746.557408 480.929327 
L 747.089939 488.031562 
L 747.464139 492.904882 
L 747.47797 495.523586 
L 747.52402 492.126075 
L 747.556561 492.241947 
L 748.091109 495.193443 
L 748.468643 496.386973 
L 748.849642 496.833514 
L 748.86277 496.835072 
L 749.057578 496.738335 
L 749.414299 495.959762 
L 749.631449 495.10177 
L 749.638477 495.361189 
L 749.643869 496.857853 
L 749.652201 494.966555 
L 750.040542 492.630524 
L 750.068857 492.841087 
L 750.103245 496.28206 
L 750.116891 499.416295 
L 750.182937 491.310677 
L 751.24517 471.188693 
L 751.675011 454.891342 
L 752.045666 432.515777 
L 752.374684 398.39105 
L 752.722385 338.502513 
L 752.816217 350.324683 
L 753.245109 418.497509 
L 753.650329 448.355717 
L 754.158998 471.082153 
L 754.167405 470.530859 
L 755.294095 497.622993 
L 755.324852 495.705054 
L 755.944354 502.503516 
L 756.260298 504.494642 
L 756.543058 505.163999 
L 756.64217 505.066677 
L 756.823462 504.295347 
L 756.993987 502.826679 
L 757.008354 503.678414 
L 757.013678 505.461331 
L 757.106489 500.95936 
L 757.11278 501.41461 
L 757.260007 498.016048 
L 757.277051 497.912693 
L 757.30278 498.300553 
L 757.320898 498.72725 
L 757.344261 497.372556 
L 757.63162 480.171138 
L 757.898427 453.770324 
L 758.121289 407.738243 
L 758.269423 325.205333 
L 758.294445 312.819952 
L 758.346537 346.683953 
L 758.563584 426.508305 
L 758.865264 462.71756 
L 759.242218 483.348226 
L 759.66302 495.56744 
L 759.94821 502.613253 
L 759.963725 504.526264 
L 760.004905 502.121352 
L 760.021823 502.2101 
L 760.811407 510.733752 
L 761.043351 513.385982 
L 761.097333 519.27158 
L 761.154172 514.021176 
L 761.191962 513.769748 
L 761.244377 513.921412 
L 762.106466 519.061996 
L 762.201952 521.786807 
L 762.276084 528.534744 
L 762.327418 523.31635 
L 762.469538 519.704506 
L 762.501677 519.677699 
L 762.619323 519.830531 
L 763.197607 520.819256 
L 763.349108 520.875253 
L 763.532023 520.769387 
L 763.77643 520.454013 
L 763.829354 520.538426 
L 763.901378 521.401177 
L 763.999582 527.429178 
L 764.051968 522.700903 
L 764.196987 516.696122 
L 764.366572 514.042561 
L 764.400623 514.993854 
L 764.439871 526.470962 
L 764.48224 512.891418 
L 764.734116 499.557242 
L 764.735597 499.613527 
L 764.742631 508.605185 
L 764.799022 494.796896 
L 765.088331 465.4055 
L 765.303399 417.790481 
L 765.437344 331.030339 
L 765.466988 301.008604 
L 765.522852 357.879144 
L 765.722049 436.010751 
L 766.013353 471.942975 
L 766.328971 490.266783 
L 766.577739 501.340344 
L 766.692012 501.176175 
L 767.230933 509.640722 
L 767.775158 514.832815 
L 768.972025 524.03997 
L 768.988908 525.502644 
L 769.027054 523.805526 
L 769.082597 524.272734 
L 769.245724 528.687939 
L 769.297149 529.573514 
L 769.34365 528.803058 
L 769.617417 523.074753 
L 769.648902 522.924951 
L 769.663131 523.282365 
L 769.672817 530.125143 
L 769.713064 522.562013 
L 770.175944 519.935101 
L 770.336559 518.197971 
L 770.340457 518.714766 
L 770.342931 519.593804 
L 770.424874 516.858559 
L 770.700644 510.25378 
L 770.995017 496.279886 
L 771.26981 470.788012 
L 771.512185 425.060026 
L 771.699577 359.19895 
L 771.768994 380.424113 
L 772.032559 446.560709 
L 772.335148 475.005064 
L 772.776066 495.37268 
L 773.632229 515.784375 
L 773.686738 530.377794 
L 773.744367 516.618213 
L 773.801344 514.233646 
L 773.867193 515.353232 
L 773.898352 515.037455 
L 773.935105 515.402252 
L 774.017794 518.885883 
L 774.076208 522.89581 
L 774.129424 519.800223 
L 774.253851 517.243644 
L 774.38362 517.807797 
L 774.541634 519.403682 
L 774.583387 520.342681 
L 774.641209 519.937139 
L 774.682105 520.053019 
L 774.903457 522.033822 
L 774.958823 525.939331 
L 774.988099 532.366147 
L 775.046491 523.852634 
L 775.139251 522.860368 
L 775.346103 523.084475 
L 775.441352 522.987865 
L 775.581279 522.328982 
L 775.753263 520.245521 
L 775.941144 516.67493 
L 775.97821 517.721107 
L 776.003113 519.159652 
L 776.023758 517.057009 
L 776.262513 493.883085 
L 776.537217 455.807699 
L 776.842461 382.838228 
L 776.930921 397.455936 
L 777.258402 450.983221 
L 777.560769 486.864315 
L 777.578013 533.251942 
L 777.66224 479.188361 
L 777.702436 478.76354 
L 777.734572 478.895878 
L 777.904143 479.991956 
L 777.940315 479.909894 
L 778.040741 478.604323 
L 778.177478 472.575057 
L 778.354955 450.725598 
L 778.545016 393.280981 
L 778.607245 377.953922 
L 778.663028 389.225934 
L 778.951423 446.781621 
L 779.200768 460.328221 
L 779.37652 462.540679 
L 779.451677 462.153892 
L 779.57564 459.447256 
L 779.777272 449.199891 
L 780.013655 422.977401 
L 780.264826 382.821569 
L 780.332885 388.923489 
L 780.930947 498.13258 
L 780.984121 484.084182 
L 781.0924 476.120707 
L 781.109995 476.211164 
L 781.254566 479.500177 
L 781.717095 494.663574 
L 781.800969 493.857189 
L 782.146199 501.891803 
L 782.186538 501.464206 
L 782.258706 496.497015 
L 782.352529 467.317441 
L 782.45101 349.710125 
L 782.460178 339.376328 
L 782.52327 415.891516 
L 782.709159 466.123021 
L 782.900389 477.725898 
L 783.152007 486.765285 
L 783.233553 486.404719 
L 783.383745 487.241417 
L 783.424173 487.142672 
L 783.455345 486.998308 
L 783.46838 487.244787 
L 783.48214 491.838309 
L 783.542716 484.846705 
L 783.660279 475.887495 
L 783.783786 444.307809 
L 783.886699 346.481048 
L 783.899839 333.356486 
L 783.959381 402.032438 
L 784.140467 460.167294 
L 784.367577 486.146477 
L 784.410861 481.229823 
L 784.432168 480.883595 
L 784.475874 481.433242 
L 784.935958 492.828397 
L 784.953388 494.962686 
L 785.016269 491.075498 
L 785.03119 491.1885 
L 785.087737 494.2801 
L 785.118478 500.974207 
L 785.185428 492.824706 
L 785.197727 492.777177 
L 785.228128 492.914633 
L 785.337838 493.383248 
L 785.478613 493.021857 
L 785.570107 491.687503 
L 785.586873 492.678789 
L 785.606329 500.480158 
L 785.644188 483.268967 
L 785.720289 428.758276 
L 785.755007 292.762318 
L 785.820039 447.184623 
L 785.976309 480.414254 
L 786.156512 495.534973 
L 786.213024 489.113117 
L 786.224031 489.071487 
L 786.248587 489.186826 
L 786.772234 493.866573 
L 786.7839 493.326989 
L 786.791325 493.294091 
L 786.819392 493.585796 
L 786.831965 501.481935 
L 786.834261 505.908906 
L 786.87403 493.819951 
L 786.938429 494.028165 
L 787.085759 495.196157 
L 787.092542 496.146464 
L 787.112282 494.798401 
L 787.414946 496.550121 
L 787.417113 497.016877 
L 787.425033 496.089325 
L 787.679104 497.364861 
L 787.718058 498.530749 
L 787.733756 497.338189 
L 787.842219 497.869145 
L 787.848617 499.050411 
L 787.863735 497.606975 
L 788.039162 497.93144 
L 788.051285 498.41548 
L 788.074901 497.799358 
L 788.241418 496.774789 
L 788.466325 489.809077 
L 788.696556 455.187564 
L 788.902831 379.416875 
L 788.987621 405.900466 
L 789.22459 453.798996 
L 789.404304 466.712778 
L 789.507006 479.514641 
L 789.52241 498.465912 
L 789.562389 474.320602 
L 789.610002 477.576018 
L 789.71943 482.457556 
L 789.734639 480.150992 
L 789.738865 480.093454 
L 789.759764 480.564414 
L 789.844168 488.87763 
L 789.892284 499.039652 
L 789.94902 489.168963 
L 790.062165 484.790844 
L 790.092541 484.876893 
L 790.166908 486.175912 
L 790.202133 489.925038 
L 790.259947 486.395983 
L 790.337731 487.047152 
L 790.768467 494.087635 
L 790.796935 497.618248 
L 790.854544 494.037715 
L 790.881018 494.459945 
L 790.964215 499.004165 
L 791.021702 496.376181 
L 791.078654 495.551574 
L 791.119856 496.658181 
L 791.125546 497.531751 
L 791.150451 496.199851 
L 791.22581 497.024116 
L 791.441133 499.132075 
L 791.500708 498.779527 
L 791.596067 495.133856 
L 791.72686 476.495216 
L 791.875477 400.881614 
L 791.922814 379.57286 
L 791.981053 400.27311 
L 792.197705 449.614379 
L 792.494694 466.561309 
L 792.852193 481.083941 
L 792.863624 500.61043 
L 792.898303 475.389754 
L 792.950958 476.908873 
L 792.998749 487.024455 
L 793.019757 502.682545 
L 793.095126 480.159022 
L 793.122194 481.385923 
L 793.134367 482.270991 
L 793.178499 479.787722 
L 793.192486 479.879285 
L 793.375406 483.702627 
L 793.503165 498.929582 
L 793.529695 509.5934 
L 793.586238 486.663049 
L 793.610251 484.313071 
L 793.638077 493.333658 
L 793.657775 509.797106 
L 793.741951 490.769954 
L 793.815672 489.553888 
L 793.849101 489.661226 
L 793.97082 491.212795 
L 793.990673 490.306744 
L 794.072206 485.618323 
L 794.156854 459.063903 
L 794.247297 385.329706 
L 794.321729 426.569097 
L 794.511364 460.470739 
L 794.756455 470.352588 
L 794.921434 475.641542 
L 794.952491 482.924623 
L 795.018404 474.756236 
L 795.13501 469.177734 
L 795.210172 445.491568 
L 795.269175 325.459429 
L 795.272371 319.290182 
L 795.343783 445.216446 
L 795.418299 477.846475 
L 795.495718 470.252657 
L 795.532296 471.87163 
L 795.556266 477.680723 
L 795.622551 472.897515 
L 795.738154 476.376608 
L 795.755808 477.527635 
L 795.803298 475.414428 
L 795.825877 475.55024 
L 796.036518 479.48031 
L 796.158647 484.21546 
L 796.166302 482.5631 
L 796.189481 481.050799 
L 796.244429 481.838298 
L 796.345313 486.076194 
L 796.364482 504.852882 
L 796.4505 485.537012 
L 796.502503 481.521952 
L 796.567979 449.492884 
L 796.628252 354.743717 
L 796.700228 427.609762 
L 796.87762 458.450373 
L 797.135466 467.395869 
L 797.403012 473.215655 
L 797.420162 473.156814 
L 797.447595 474.280963 
L 797.482419 481.883419 
L 797.542996 474.223894 
L 797.551823 474.295517 
L 797.610283 478.147411 
L 797.670918 487.398569 
L 797.717487 479.539597 
L 797.820157 473.073558 
L 797.861998 473.745793 
L 797.893176 474.670045 
L 797.902949 473.543722 
L 798.089499 459.381862 
L 798.303798 442.114397 
L 798.849273 422.915225 
L 799.208399 412.97148 
L 799.481036 386.30928 
L 799.914619 366.999023 
L 800.429029 353.569696 
L 800.788043 317.211319 
L 801.608725 289.207774 
L 802.655555 361.62938 
L 802.735367 439.508277 
L 802.737138 348.148362 
L 802.742008 224.273358 
L 806.054152 217.588635 
L 809.038001 212.429327 
L 812.76026 206.608712 
L 816.679072 204.845064 
L 819.728207 202.978496 
L 822.420484 200.776678 
L 824.765219 198.689306 
L 826.237684 198.478739 
L 827.342675 198.162925 
L 828.434416 197.494426 
L 831.861156 194.972433 
L 833.676695 192.882944 
L 834.71727 191.677567 
L 835.482375 191.533689 
L 837.849544 192.05363 
L 837.849544 192.05363 
L 838.259235 192.002873 
L 838.259235 192.002873 
L 839.325225 191.411185 
L 840.644078 190.303921 
L 843.175566 187.304837 
L 845.486633 186.162254 
L 847.832962 185.427092 
L 849.580955 185.150927 
L 853.127617 185.350429 
L 857.898306 186.194285 
L 859.054425 187.145523 
L 860.72233 190.034446 
L 861.585913 191.186821 
L 868.363377 208.443446 
L 868.923346 209.389739 
L 870.567939 215.199313 
L 871.438842 218.193317 
L 871.557546 218.616102 
L 872.727402 221.902388 
L 873.91811 226.129691 
L 874.666343 227.339081 
L 875.394074 229.602824 
L 876.102396 230.842649 
L 876.792319 232.879217 
L 877.464773 234.141432 
L 877.464773 234.141432 
" style="fill:none;stroke:#008000;stroke-linecap:round;stroke-opacity:0.5;stroke-width:1.5;"/>
   </g>
   <g id="patch_3">
    <path d="M 87.545 565.58 
L 87.545 25.92 
" style="fill:none;stroke:#ffffff;stroke-linecap:square;stroke-linejoin:miter;stroke-width:1.25;"/>
   </g>
   <g id="patch_4">
    <path d="M 915.08 565.58 
L 915.08 25.92 
" style="fill:none;stroke:#ffffff;stroke-linecap:square;stroke-linejoin:miter;stroke-width:1.25;"/>
   </g>
   <g id="patch_5">
    <path d="M 87.545 565.58 
L 915.08 565.58 
" style="fill:none;stroke:#ffffff;stroke-linecap:square;stroke-linejoin:miter;stroke-width:1.25;"/>
   </g>
   <g id="patch_6">
    <path d="M 87.545 25.92 
L 915.08 25.92 
" style="fill:none;stroke:#ffffff;stroke-linecap:square;stroke-linejoin:miter;stroke-width:1.25;"/>
   </g>
  </g>
  <g id="axes_2">
   <g id="matplotlib.axis_3">
    <g id="ytick_9">
     <g id="line2d_24">
      <path clip-path="url(#pb2a218fe00)" d="M 87.545 541.05 
L 915.08 541.05 
" style="fill:none;stroke:#ffffff;stroke-linecap:round;"/>
     </g>
     <g id="line2d_25">
      <defs>
       <path d="M 0 0 
L 6 0 
" id="m146fec0f31" style="stroke:#262626;stroke-width:1.25;"/>
      </defs>
      <g>
       <use style="fill:#262626;stroke:#262626;stroke-width:1.25;" x="915.08" xlink:href="#m146fec0f31" y="541.05"/>
      </g>
     </g>
     <g id="text_17">
      <!-- 0.0 -->
      <defs>
       <path d="M 9.078125 0 
L 9.078125 10.015625 
L 19.09375 10.015625 
L 19.09375 0 
z
" id="ArialMT-46"/>
      </defs>
      <g style="fill:#1f77b4;" transform="translate(924.58 548.923594)scale(0.22 -0.22)">
       <use xlink:href="#ArialMT-48"/>
       <use x="55.615234" xlink:href="#ArialMT-46"/>
       <use x="83.398438" xlink:href="#ArialMT-48"/>
      </g>
     </g>
    </g>
    <g id="ytick_10">
     <g id="line2d_26">
      <path clip-path="url(#pb2a218fe00)" d="M 87.545 464.550097 
L 915.08 464.550097 
" style="fill:none;stroke:#ffffff;stroke-linecap:round;"/>
     </g>
     <g id="line2d_27">
      <g>
       <use style="fill:#262626;stroke:#262626;stroke-width:1.25;" x="915.08" xlink:href="#m146fec0f31" y="464.550097"/>
      </g>
     </g>
     <g id="text_18">
      <!-- 0.5 -->
      <g style="fill:#1f77b4;" transform="translate(924.58 472.42369)scale(0.22 -0.22)">
       <use xlink:href="#ArialMT-48"/>
       <use x="55.615234" xlink:href="#ArialMT-46"/>
       <use x="83.398438" xlink:href="#ArialMT-53"/>
      </g>
     </g>
    </g>
    <g id="ytick_11">
     <g id="line2d_28">
      <path clip-path="url(#pb2a218fe00)" d="M 87.545 388.050193 
L 915.08 388.050193 
" style="fill:none;stroke:#ffffff;stroke-linecap:round;"/>
     </g>
     <g id="line2d_29">
      <g>
       <use style="fill:#262626;stroke:#262626;stroke-width:1.25;" x="915.08" xlink:href="#m146fec0f31" y="388.050193"/>
      </g>
     </g>
     <g id="text_19">
      <!-- 1.0 -->
      <g style="fill:#1f77b4;" transform="translate(924.58 395.923787)scale(0.22 -0.22)">
       <use xlink:href="#ArialMT-49"/>
       <use x="55.615234" xlink:href="#ArialMT-46"/>
       <use x="83.398438" xlink:href="#ArialMT-48"/>
      </g>
     </g>
    </g>
    <g id="ytick_12">
     <g id="line2d_30">
      <path clip-path="url(#pb2a218fe00)" d="M 87.545 311.55029 
L 915.08 311.55029 
" style="fill:none;stroke:#ffffff;stroke-linecap:round;"/>
     </g>
     <g id="line2d_31">
      <g>
       <use style="fill:#262626;stroke:#262626;stroke-width:1.25;" x="915.08" xlink:href="#m146fec0f31" y="311.55029"/>
      </g>
     </g>
     <g id="text_20">
      <!-- 1.5 -->
      <g style="fill:#1f77b4;" transform="translate(924.58 319.423884)scale(0.22 -0.22)">
       <use xlink:href="#ArialMT-49"/>
       <use x="55.615234" xlink:href="#ArialMT-46"/>
       <use x="83.398438" xlink:href="#ArialMT-53"/>
      </g>
     </g>
    </g>
    <g id="ytick_13">
     <g id="line2d_32">
      <path clip-path="url(#pb2a218fe00)" d="M 87.545 235.050387 
L 915.08 235.050387 
" style="fill:none;stroke:#ffffff;stroke-linecap:round;"/>
     </g>
     <g id="line2d_33">
      <g>
       <use style="fill:#262626;stroke:#262626;stroke-width:1.25;" x="915.08" xlink:href="#m146fec0f31" y="235.050387"/>
      </g>
     </g>
     <g id="text_21">
      <!-- 2.0 -->
      <g style="fill:#1f77b4;" transform="translate(924.58 242.92398)scale(0.22 -0.22)">
       <use xlink:href="#ArialMT-50"/>
       <use x="55.615234" xlink:href="#ArialMT-46"/>
       <use x="83.398438" xlink:href="#ArialMT-48"/>
      </g>
     </g>
    </g>
    <g id="ytick_14">
     <g id="line2d_34">
      <path clip-path="url(#pb2a218fe00)" d="M 87.545 158.550483 
L 915.08 158.550483 
" style="fill:none;stroke:#ffffff;stroke-linecap:round;"/>
     </g>
     <g id="line2d_35">
      <g>
       <use style="fill:#262626;stroke:#262626;stroke-width:1.25;" x="915.08" xlink:href="#m146fec0f31" y="158.550483"/>
      </g>
     </g>
     <g id="text_22">
      <!-- 2.5 -->
      <g style="fill:#1f77b4;" transform="translate(924.58 166.424077)scale(0.22 -0.22)">
       <use xlink:href="#ArialMT-50"/>
       <use x="55.615234" xlink:href="#ArialMT-46"/>
       <use x="83.398438" xlink:href="#ArialMT-53"/>
      </g>
     </g>
    </g>
    <g id="ytick_15">
     <g id="line2d_36">
      <path clip-path="url(#pb2a218fe00)" d="M 87.545 82.05058 
L 915.08 82.05058 
" style="fill:none;stroke:#ffffff;stroke-linecap:round;"/>
     </g>
     <g id="line2d_37">
      <g>
       <use style="fill:#262626;stroke:#262626;stroke-width:1.25;" x="915.08" xlink:href="#m146fec0f31" y="82.05058"/>
      </g>
     </g>
     <g id="text_23">
      <!-- 3.0 -->
      <g style="fill:#1f77b4;" transform="translate(924.58 89.924174)scale(0.22 -0.22)">
       <use xlink:href="#ArialMT-51"/>
       <use x="55.615234" xlink:href="#ArialMT-46"/>
       <use x="83.398438" xlink:href="#ArialMT-48"/>
      </g>
     </g>
    </g>
    <g id="text_24">
     <!-- Integrated Flux -->
     <defs>
      <path d="M 9.328125 0 
L 9.328125 71.578125 
L 18.796875 71.578125 
L 18.796875 0 
z
" id="ArialMT-73"/>
      <path d="M 40.4375 6.390625 
Q 35.546875 2.25 31.03125 0.53125 
Q 26.515625 -1.171875 21.34375 -1.171875 
Q 12.796875 -1.171875 8.203125 3 
Q 3.609375 7.171875 3.609375 13.671875 
Q 3.609375 17.484375 5.34375 20.625 
Q 7.078125 23.78125 9.890625 25.6875 
Q 12.703125 27.59375 16.21875 28.5625 
Q 18.796875 29.25 24.03125 29.890625 
Q 34.671875 31.15625 39.703125 32.90625 
Q 39.75 34.71875 39.75 35.203125 
Q 39.75 40.578125 37.25 42.78125 
Q 33.890625 45.75 27.25 45.75 
Q 21.046875 45.75 18.09375 43.578125 
Q 15.140625 41.40625 13.71875 35.890625 
L 5.125 37.0625 
Q 6.296875 42.578125 8.984375 45.96875 
Q 11.671875 49.359375 16.75 51.1875 
Q 21.828125 53.03125 28.515625 53.03125 
Q 35.15625 53.03125 39.296875 51.46875 
Q 43.453125 49.90625 45.40625 47.53125 
Q 47.359375 45.171875 48.140625 41.546875 
Q 48.578125 39.3125 48.578125 33.453125 
L 48.578125 21.734375 
Q 48.578125 9.46875 49.140625 6.21875 
Q 49.703125 2.984375 51.375 0 
L 42.1875 0 
Q 40.828125 2.734375 40.4375 6.390625 
z
M 39.703125 26.03125 
Q 34.90625 24.078125 25.34375 22.703125 
Q 19.921875 21.921875 17.671875 20.9375 
Q 15.4375 19.96875 14.203125 18.09375 
Q 12.984375 16.21875 12.984375 13.921875 
Q 12.984375 10.40625 15.640625 8.0625 
Q 18.3125 5.71875 23.4375 5.71875 
Q 28.515625 5.71875 32.46875 7.9375 
Q 36.421875 10.15625 38.28125 14.015625 
Q 39.703125 17 39.703125 22.796875 
z
" id="ArialMT-97"/>
      <path d="M 40.234375 0 
L 40.234375 6.546875 
Q 35.296875 -1.171875 25.734375 -1.171875 
Q 19.53125 -1.171875 14.328125 2.25 
Q 9.125 5.671875 6.265625 11.796875 
Q 3.421875 17.921875 3.421875 25.875 
Q 3.421875 33.640625 6 39.96875 
Q 8.59375 46.296875 13.765625 49.65625 
Q 18.953125 53.03125 25.34375 53.03125 
Q 30.03125 53.03125 33.6875 51.046875 
Q 37.359375 49.078125 39.65625 45.90625 
L 39.65625 71.578125 
L 48.390625 71.578125 
L 48.390625 0 
z
M 12.453125 25.875 
Q 12.453125 15.921875 16.640625 10.984375 
Q 20.84375 6.0625 26.5625 6.0625 
Q 32.328125 6.0625 36.34375 10.765625 
Q 40.375 15.484375 40.375 25.140625 
Q 40.375 35.796875 36.265625 40.765625 
Q 32.171875 45.75 26.171875 45.75 
Q 20.3125 45.75 16.375 40.96875 
Q 12.453125 36.1875 12.453125 25.875 
z
" id="ArialMT-100"/>
      <path d="M 8.203125 0 
L 8.203125 71.578125 
L 56.5 71.578125 
L 56.5 63.140625 
L 17.671875 63.140625 
L 17.671875 40.96875 
L 51.265625 40.96875 
L 51.265625 32.515625 
L 17.671875 32.515625 
L 17.671875 0 
z
" id="ArialMT-70"/>
      <path d="M 6.390625 0 
L 6.390625 71.578125 
L 15.1875 71.578125 
L 15.1875 0 
z
" id="ArialMT-108"/>
      <path d="M 40.578125 0 
L 40.578125 7.625 
Q 34.515625 -1.171875 24.125 -1.171875 
Q 19.53125 -1.171875 15.546875 0.578125 
Q 11.578125 2.34375 9.640625 5 
Q 7.71875 7.671875 6.9375 11.53125 
Q 6.390625 14.109375 6.390625 19.734375 
L 6.390625 51.859375 
L 15.1875 51.859375 
L 15.1875 23.09375 
Q 15.1875 16.21875 15.71875 13.8125 
Q 16.546875 10.359375 19.234375 8.375 
Q 21.921875 6.390625 25.875 6.390625 
Q 29.828125 6.390625 33.296875 8.421875 
Q 36.765625 10.453125 38.203125 13.9375 
Q 39.65625 17.4375 39.65625 24.078125 
L 39.65625 51.859375 
L 48.4375 51.859375 
L 48.4375 0 
z
" id="ArialMT-117"/>
      <path d="M 0.734375 0 
L 19.671875 26.953125 
L 2.15625 51.859375 
L 13.140625 51.859375 
L 21.09375 39.703125 
Q 23.34375 36.234375 24.703125 33.890625 
Q 26.859375 37.109375 28.65625 39.59375 
L 37.40625 51.859375 
L 47.90625 51.859375 
L 29.984375 27.4375 
L 49.265625 0 
L 38.484375 0 
L 27.828125 16.109375 
L 25 20.453125 
L 11.375 0 
z
" id="ArialMT-120"/>
     </defs>
     <g style="fill:#1f77b4;" transform="translate(976.33875 375.788125)rotate(-90)scale(0.24 -0.24)">
      <use xlink:href="#ArialMT-73"/>
      <use x="27.783203" xlink:href="#ArialMT-110"/>
      <use x="83.398438" xlink:href="#ArialMT-116"/>
      <use x="111.181641" xlink:href="#ArialMT-101"/>
      <use x="166.796875" xlink:href="#ArialMT-103"/>
      <use x="222.412109" xlink:href="#ArialMT-114"/>
      <use x="255.712891" xlink:href="#ArialMT-97"/>
      <use x="311.328125" xlink:href="#ArialMT-116"/>
      <use x="339.111328" xlink:href="#ArialMT-101"/>
      <use x="394.726562" xlink:href="#ArialMT-100"/>
      <use x="450.341797" xlink:href="#ArialMT-32"/>
      <use x="478.125" xlink:href="#ArialMT-70"/>
      <use x="539.208984" xlink:href="#ArialMT-108"/>
      <use x="561.425781" xlink:href="#ArialMT-117"/>
      <use x="617.041016" xlink:href="#ArialMT-120"/>
     </g>
    </g>
   </g>
   <g id="line2d_38">
    <path clip-path="url(#pb2a218fe00)" d="M 125.923138 541.05 
L 560.755268 540.998335 
L 563.764377 540.929505 
L 568.278241 540.880478 
L 569.782828 540.736058 
L 571.287442 540.772699 
L 577.305861 540.240472 
L 581.8197 539.457547 
L 583.324367 539.104148 
L 584.828998 538.940163 
L 587.838208 537.733867 
L 589.342767 537.38821 
L 590.847362 536.778261 
L 592.352002 536.506763 
L 593.85662 535.265995 
L 596.865818 533.581284 
L 598.370425 531.97298 
L 599.875035 530.179654 
L 601.379639 529.153255 
L 602.884271 525.991269 
L 604.388867 524.301723 
L 605.893503 522.259635 
L 607.398093 519.641349 
L 608.902688 516.145303 
L 610.4073 513.844645 
L 611.911926 510.573969 
L 613.416542 505.692816 
L 614.921117 506.666047 
L 616.425803 503.439435 
L 619.435026 494.745221 
L 620.939679 494.415659 
L 622.444278 490.032061 
L 623.948849 492.665188 
L 625.453344 491.538192 
L 626.957977 492.888415 
L 628.462673 497.149765 
L 629.967276 501.865067 
L 631.471836 507.322723 
L 632.976414 515.264637 
L 634.481065 521.216176 
L 635.985704 527.830817 
L 637.490242 533.016607 
L 638.994892 536.8476 
L 640.499479 539.207194 
L 642.004088 539.883231 
L 643.508723 539.061125 
L 645.013307 536.95213 
L 646.517934 533.736441 
L 648.022509 529.721267 
L 649.527136 524.719107 
L 651.031788 520.211426 
L 660.059423 485.148767 
L 661.564021 480.176732 
L 663.068636 474.081832 
L 664.573249 466.521346 
L 666.077831 464.475739 
L 667.582472 455.579106 
L 669.087067 435.335855 
L 670.591675 489.132117 
L 672.096277 455.429472 
L 673.600902 441.409182 
L 675.10549 432.724913 
L 678.114778 419.718093 
L 679.619438 413.967749 
L 681.123941 406.611059 
L 682.628561 402.665347 
L 684.133078 395.353945 
L 685.6378 387.389234 
L 687.142383 381.927141 
L 688.646959 374.342941 
L 690.151543 365.678562 
L 691.656192 363.334605 
L 694.665463 343.60222 
L 696.170022 350.361751 
L 697.674602 322.030777 
L 699.179243 312.878328 
L 700.683833 426.214159 
L 702.18843 351.747929 
L 703.693112 327.45309 
L 705.197697 315.395175 
L 706.702289 309.041093 
L 708.206882 300.589384 
L 709.711522 294.388302 
L 711.216139 284.304084 
L 712.720761 290.814226 
L 714.225352 260.723754 
L 715.729932 270.673332 
L 717.234551 330.366206 
L 718.739158 344.902718 
L 720.243767 445.195009 
L 721.748378 309.650032 
L 723.253011 257.784628 
L 724.757604 243.009437 
L 726.262219 242.795237 
L 727.766809 225.666909 
L 729.271444 212.813395 
L 730.776037 214.424483 
L 732.280648 195.030227 
L 733.785262 169.805149 
L 735.289873 241.675278 
L 736.794444 189.578844 
L 738.299154 174.949003 
L 739.803756 171.410117 
L 741.308301 163.210857 
L 742.813013 157.985914 
L 744.317619 140.193567 
L 745.82204 211.185477 
L 747.326682 157.038845 
L 750.335878 137.63235 
L 751.840536 141.174295 
L 753.345219 169.867879 
L 754.849783 277.281393 
L 756.354378 254.052963 
L 757.859002 215.339422 
L 759.363631 271.071131 
L 760.868218 221.269694 
L 762.372785 119.325923 
L 763.877392 79.949893 
L 765.382022 50.45 
L 766.886675 192.112521 
L 768.391265 166.243314 
L 769.895862 145.865269 
L 771.400495 184.306471 
L 772.905076 272.16508 
L 774.409678 231.399811 
L 775.914298 247.002732 
L 777.418918 173.590364 
L 778.923549 116.184837 
L 780.428162 126.827503 
L 781.932731 259.235066 
L 783.43736 281.481238 
L 784.941971 338.238046 
L 786.446585 344.459018 
L 787.951168 371.602714 
L 789.455778 386.408505 
L 790.960387 355.846794 
L 792.465024 356.033454 
L 793.969619 330.727286 
L 795.474224 357.032543 
L 796.978826 343.752159 
L 798.483407 350.279131 
L 799.988123 359.01083 
L 801.492761 337.395017 
L 802.997279 347.763814 
L 804.501818 335.08625 
L 806.00644 342.072221 
L 807.511132 349.899692 
L 809.015641 351.09921 
L 810.520349 377.866526 
L 812.024998 376.942407 
L 813.529586 388.80999 
L 815.034142 372.776223 
L 816.538711 414.517783 
L 818.043334 430.582151 
L 819.548032 426.717069 
L 821.052577 433.42963 
L 822.557173 442.892362 
L 824.06184 444.964285 
L 825.566439 455.649027 
L 827.071062 458.271444 
L 828.575617 466.529149 
L 831.584816 485.270248 
L 833.089434 490.020433 
L 834.594076 493.218435 
L 836.09865 498.912323 
L 837.603258 502.684839 
L 839.107904 509.116033 
L 840.612506 512.646657 
L 842.117106 518.006393 
L 843.621733 520.825262 
L 846.630951 528.312797 
L 848.135532 530.887738 
L 851.144782 534.254559 
L 852.649365 536.226054 
L 855.658592 538.147976 
L 857.163213 539.122248 
L 860.1724 540.005753 
L 863.181586 540.647939 
L 867.695407 540.917146 
L 872.209356 541.047534 
L 876.723171 541.045144 
L 876.723171 541.045144 
" style="fill:none;stroke:#1f77b4;stroke-linecap:round;stroke-width:1.5;"/>
   </g>
   <g id="patch_7">
    <path d="M 87.545 565.58 
L 87.545 25.92 
" style="fill:none;stroke:#ffffff;stroke-linecap:square;stroke-linejoin:miter;stroke-width:1.25;"/>
   </g>
   <g id="patch_8">
    <path d="M 915.08 565.58 
L 915.08 25.92 
" style="fill:none;stroke:#ffffff;stroke-linecap:square;stroke-linejoin:miter;stroke-width:1.25;"/>
   </g>
   <g id="patch_9">
    <path d="M 87.545 565.58 
L 915.08 565.58 
" style="fill:none;stroke:#ffffff;stroke-linecap:square;stroke-linejoin:miter;stroke-width:1.25;"/>
   </g>
   <g id="patch_10">
    <path d="M 87.545 25.92 
L 915.08 25.92 
" style="fill:none;stroke:#ffffff;stroke-linecap:square;stroke-linejoin:miter;stroke-width:1.25;"/>
   </g>
  </g>
 </g>
 <defs>
  <clipPath id="pb2a218fe00">
   <rect height="539.66" width="827.535" x="87.545" y="25.92"/>
  </clipPath>
 </defs>
</svg>
